<?xml version="1.0" encoding="UTF-8"?>
<svg id="Calque_1" data-name="Calque 1" xmlns="http://www.w3.org/2000/svg" viewBox="0 0 234.06 59.37">
  <defs>
    <style>
      .cls-1 {
        fill: #008a6f;
      }

      .cls-2 {
        fill: #fff;
      }

      .cls-3 {
        fill: none;
        stroke: #fff;
        stroke-miterlimit: 10;
        stroke-width: 2px;
      }
    </style>
  </defs>
  <g id="Groupe_33" data-name="Groupe 33">
    <rect id="Rectangle_81" data-name="Rectangle 81" class="cls-1" x="0" y="0" width="234.06" height="59.35" rx="5.16" ry="5.16"/>
    <rect id="Rectangle_82" data-name="Rectangle 82" class="cls-3" x="4.97" y="3.51" width="224.32" height="51.35" rx="4.2" ry="4.2"/>
  </g>
  <g>
    <path class="cls-2" d="M29.55,21.92h9.9v2.17h-7.39v3.76h6.49v2.05h-6.49v6.37h-2.51v-14.34Z"/>
    <path class="cls-2" d="M44.2,21.92h2.67l5.52,14.34h-2.69l-1.35-3.8h-5.73l-1.35,3.8h-2.59l5.5-14.34Zm-.88,8.64h4.38l-2.15-6.17h-.06l-2.17,6.17Z"/>
    <path class="cls-2" d="M53.76,21.92h2.51v14.34h-2.51v-14.34Z"/>
    <path class="cls-2" d="M57.98,21.92h11.61v2.17h-4.56v12.17h-2.51v-12.17h-4.54v-2.17Z"/>
    <path class="cls-2" d="M80.68,21.92h2.67l5.52,14.34h-2.69l-1.35-3.8h-5.73l-1.35,3.8h-2.59l5.5-14.34Zm-.88,8.64h4.38l-2.15-6.17h-.06l-2.17,6.17Z"/>
    <path class="cls-2" d="M87.37,21.92h2.61l3.6,11.35h.04l3.68-11.35h2.55l-4.9,14.34h-2.79l-4.78-14.34Z"/>
    <path class="cls-2" d="M101.27,21.92h10.33v2.17h-7.81v3.76h7.23v2.05h-7.23v4.2h7.95v2.17h-10.47v-14.34Z"/>
    <path class="cls-2" d="M123.6,26.48c-.11-.41-.26-.8-.44-1.14-.19-.35-.43-.65-.72-.9-.29-.25-.64-.45-1.03-.59-.4-.14-.85-.21-1.38-.21-.76,0-1.42,.15-1.98,.46-.56,.31-1.01,.72-1.36,1.24s-.61,1.1-.77,1.76c-.17,.66-.25,1.33-.25,2.01s.08,1.35,.25,2.01c.17,.66,.43,1.24,.77,1.76,.35,.52,.8,.93,1.36,1.24,.56,.31,1.22,.46,1.98,.46,.56,0,1.06-.1,1.49-.29,.43-.19,.8-.46,1.1-.8,.31-.34,.55-.74,.72-1.2,.17-.46,.29-.94,.34-1.47h2.45c-.05,.86-.24,1.64-.55,2.35-.31,.71-.74,1.32-1.28,1.84-.54,.52-1.17,.91-1.89,1.2s-1.52,.42-2.39,.42c-1.07,0-2.03-.2-2.88-.59-.85-.39-1.57-.93-2.16-1.62-.59-.68-1.04-1.48-1.36-2.39-.31-.91-.47-1.88-.47-2.91s.16-1.98,.47-2.89c.31-.91,.77-1.71,1.36-2.39,.59-.68,1.31-1.23,2.16-1.63,.85-.4,1.81-.6,2.88-.6,.8,0,1.56,.11,2.27,.33,.71,.22,1.34,.54,1.88,.96s.98,.93,1.32,1.54,.54,1.29,.62,2.07h-2.51Z"/>
    <path class="cls-2" d="M137.84,21.92h2.67l5.52,14.34h-2.69l-1.35-3.8h-5.73l-1.35,3.8h-2.59l5.5-14.34Zm-.88,8.64h4.38l-2.15-6.17h-.06l-2.17,6.17Z"/>
    <path class="cls-2" d="M147.37,21.92h3.54l3.96,11.23h.04l3.86-11.23h3.49v14.34h-2.39v-11.07h-.04l-3.98,11.07h-2.07l-3.98-11.07h-.04v11.07h-2.39v-14.34Z"/>
    <path class="cls-2" d="M171.37,21.58c1.07,0,2.03,.2,2.88,.6,.85,.4,1.57,.94,2.16,1.63s1.04,1.48,1.36,2.39c.31,.91,.47,1.88,.47,2.89s-.16,2-.47,2.91-.77,1.71-1.36,2.39-1.31,1.22-2.16,1.62c-.85,.4-1.81,.59-2.88,.59s-2.03-.2-2.88-.59c-.85-.39-1.57-.93-2.16-1.62-.59-.68-1.04-1.48-1.36-2.39-.31-.91-.47-1.88-.47-2.91s.16-1.98,.47-2.89c.31-.91,.77-1.71,1.36-2.39,.59-.68,1.31-1.23,2.16-1.63,.85-.4,1.81-.6,2.88-.6Zm0,2.05c-.76,0-1.42,.15-1.98,.46-.56,.31-1.01,.72-1.36,1.24s-.61,1.1-.77,1.76c-.17,.66-.25,1.33-.25,2.01s.08,1.35,.25,2.01c.17,.66,.43,1.24,.77,1.76,.35,.52,.8,.93,1.36,1.24,.56,.31,1.22,.46,1.98,.46s1.42-.15,1.98-.46c.56-.31,1.01-.72,1.36-1.24,.35-.52,.61-1.1,.77-1.76s.25-1.33,.25-2.01-.08-1.35-.25-2.01c-.17-.66-.43-1.24-.77-1.76s-.8-.93-1.36-1.24c-.56-.31-1.22-.46-1.98-.46Z"/>
    <path class="cls-2" d="M180.37,21.92h2.51v8.36c0,.48,.02,.97,.07,1.47,.05,.5,.18,.94,.4,1.34,.22,.4,.56,.72,1,.97,.45,.26,1.08,.38,1.9,.38s1.45-.13,1.9-.38c.45-.25,.78-.58,1-.97,.22-.4,.35-.84,.4-1.34,.05-.5,.07-.98,.07-1.47v-8.36h2.51v9.18c0,.92-.14,1.73-.42,2.41s-.68,1.26-1.2,1.72-1.14,.81-1.86,1.03-1.53,.34-2.41,.34-1.69-.11-2.41-.34-1.34-.57-1.86-1.03c-.52-.46-.91-1.03-1.2-1.72-.28-.68-.42-1.49-.42-2.41v-9.18Z"/>
    <path class="cls-2" d="M195.03,21.92h6.85c1.58,0,2.77,.34,3.56,1.02s1.19,1.63,1.19,2.85c0,.68-.1,1.25-.3,1.7-.2,.45-.44,.81-.7,1.08-.27,.27-.53,.47-.79,.59-.26,.12-.45,.2-.57,.24v.04c.21,.03,.44,.09,.69,.2,.25,.11,.48,.28,.69,.51,.21,.23,.39,.54,.53,.91,.14,.38,.21,.84,.21,1.41,0,.84,.06,1.61,.19,2.3,.13,.69,.32,1.18,.59,1.48h-2.69c-.19-.31-.3-.65-.33-1.02-.03-.37-.05-.74-.05-1.08,0-.66-.04-1.22-.12-1.7-.08-.48-.23-.87-.44-1.19-.21-.31-.51-.55-.87-.69s-.84-.22-1.42-.22h-3.7v5.91h-2.51v-14.34Zm2.51,6.53h4.12c.8,0,1.41-.19,1.83-.57,.41-.38,.62-.95,.62-1.72,0-.46-.07-.83-.2-1.12-.13-.29-.32-.51-.55-.67-.23-.16-.5-.27-.8-.32s-.61-.08-.93-.08h-4.08v4.48Z"/>
  </g>
</svg>