<?xml version="1.0" encoding="UTF-8"?>
<svg id="Calque_1" data-name="Calque 1" xmlns="http://www.w3.org/2000/svg" viewBox="0 0 301.25 307.49">
  <defs>
    <style>
      .cls-1 {
        fill: #030007;
      }
    </style>
  </defs>
  <path class="cls-1" d="M301.24,154.52c0-23.19-17.26-42.31-39.62-45.33,8.39-8.3,13.6-19.82,13.6-32.55,0-25.29-20.5-45.8-45.8-45.8-13.36,0-25.34,5.75-33.71,14.87-.05-25.25-20.53-45.71-45.79-45.71s-44.89,19.67-45.72,44.24c-8.29-8.28-19.73-13.41-32.38-13.41-25.29,0-45.8,20.5-45.8,45.8,0,12.74,5.21,24.25,13.6,32.55C17.25,112.2,0,131.32,0,154.51s17.79,42.94,40.67,45.49c-5.54,7.57-8.86,16.88-8.86,26.99,0,25.29,20.5,45.8,45.8,45.8,10.57,0,20.27-3.61,28.02-9.62,.79,24.6,20.93,44.32,45.72,44.32s44.36-19.17,45.67-43.28c7.51,5.38,16.68,8.58,26.62,8.58,25.29,0,45.8-20.5,45.8-45.8,0-10.11-3.31-19.42-8.86-26.99,22.87-2.55,40.67-21.94,40.67-45.49h0Z"/>
</svg>