<svg xmlns="http://www.w3.org/2000/svg" width="260" height="58.209" viewBox="0 0 260 58.209"><g transform="translate(-140 -40)"><g transform="translate(140 40)"><path d="M12.34,30.189,5.018,13.309a.633.633,0,0,0-1.213.253v13.9c0,2.4,1.4,2.965,1.4,3.846,0,.561-.482.923-1.4.923H1.4c-.923,0-1.4-.361-1.4-.923,0-.881,1.4-1.443,1.4-3.846V6.949C1.4,4.545,0,3.984,0,3.1c0-.561.482-.923,1.4-.923H6.81c1.163,0,1.563.923,2.045,2.045l8.036,18.739a.06.06,0,0,0,.112,0l7.88-19.3c.4-1,.482-1.484,1.363-1.484h6.091c.923,0,1.4.361,1.4.923,0,.881-1.4,1.443-1.4,3.846V27.465c0,2.4,1.4,2.965,1.4,3.846,0,.561-.482.923-1.4.923H25.206c-.923,0-1.4-.361-1.4-.923,0-.881,1.4-1.443,1.4-3.846v-16.7a.4.4,0,0,0-.776-.153L16.509,30.107c-.162.4-.761,2.124-1.883,2.124h-.241c-1.163,0-1.563-.961-2.045-2.045Z" transform="translate(0 -1.539)" fill="#030007"/><path d="M138.828,53.511a.055.055,0,0,0-.088-.018,8.857,8.857,0,0,1-5.876,1.916c-4.968,0-7.134-2.806-7.134-5.929,0-7.413,12.784-6.37,12.784-8.535V39.781c0-1.842-.761-3.285-2.644-3.285s-2.644,1.443-2.644,3.285a3.028,3.028,0,0,1-3.482,3.009,3.193,3.193,0,0,1-2.471-3.946c.608-2.824,3.987-4.754,8.838-4.754,5.85,0,9.217,3.006,9.217,6.81V50c0,2.4,1.4,2.965,1.4,3.846,0,.561-.482.923-1.4.923h-4.008a2.693,2.693,0,0,1-2.489-1.257Zm-3.082-.946c2.365,0,2.765-2.324,2.765-3.164V44.782a.439.439,0,0,0-.646-.388c-1.76.964-5.124,2.215-5.124,5.086a2.964,2.964,0,0,0,3.006,3.085Z" transform="translate(-88.789 -24.074)" fill="#030007"/><path d="M342.684,42.78c0,5.089,2.685,8.614,6.37,8.614a5.278,5.278,0,0,0,3.725-1.883,1.161,1.161,0,0,1,.84-.441c.4,0,.682.32.682.961,0,1.563-2.365,5.368-7.895,5.368-6.091,0-10.257-4.769-10.257-10.659s4.166-10.659,10.257-10.659c5.25,0,8.976,3.205,8.976,7.093,0,5.368-6.931,7.774-10.019,7.774-.482,0-.8-.12-.8-.441,0-1.225,4.654-3.156,4.484-9.049a2.909,2.909,0,0,0-3.787-2.779c-1.839.676-2.58,3.12-2.58,6.1Z" transform="translate(-237.386 -24.067)" fill="#030007"/><path d="M455.18,3.1c0-.561.482-.923,1.4-.923h12.261c8.335,0,12.181,3.446,12.181,8.694s-3.846,9.5-12.181,9.5h-.961c-2.606,0-4.166.241-4.166,2.524v4.569c0,2.4,1.4,2.965,1.4,3.846,0,.561-.482.923-1.4.923h-7.134c-.923,0-1.4-.361-1.4-.923,0-.881,1.4-1.443,1.4-3.846V6.949c0-2.4-1.4-2.965-1.4-3.846Zm12.7,14.867c4.569,0,5.77-2.685,5.77-6.852s-2.221-6.646-6.787-6.646c-2.606,0-3.15.635-3.15,2.48v8.535c0,2.245,1.563,2.486,4.166,2.486Z" transform="translate(-321.444 -1.539)" fill="#030007"/><path d="M550.64,32.759c0-.881,1.4-1.443,1.4-3.846V20.578c0-2.4-1.4-2.965-1.4-3.846,0-.561.482-.923,1.4-.923,2.765,0,4.607-2.806,5.891-2.806.561,0,.923.482.923,1.4V28.91c0,2.4,1.4,2.965,1.4,3.846,0,.561-.482.923-1.4.923h-6.81c-.923,0-1.4-.361-1.4-.923ZM554.968,4.23a3.762,3.762,0,0,1,3.726,3.808,3.747,3.747,0,1,1-7.492,0A3.772,3.772,0,0,1,554.968,4.23Z" transform="translate(-388.857 -2.987)" fill="#030007"/><path d="M665.1,24.621c0-.881,1.4-3.731,1.4-6.135V7.574c0-2.4-1.4-2.965-1.4-3.846,0-.561.482-.923,1.4-.923,2.765,0,4.607-2.806,5.891-2.806.561,0,.923.482.923,1.4v9.287a.57.57,0,0,0,.855.5,11.4,11.4,0,0,1,4.848-1.169c5.089,0,7.213,3.006,7.213,6.81v9.1c0,2.4,1.4,2.965,1.4,3.846,0,.561-.482.923-1.4.923h-6.81c-.923,0-1.4-.361-1.4-.923,0-.881,1.4-1.443,1.4-3.846v-9.1c0-1.842-1.334-3.966-3.338-3.966s-2.765,2.124-2.765,3.966v1.654c0,2.4.743,2.212.743,3.094a2.1,2.1,0,0,1-.573,1.716,10.911,10.911,0,0,1-3.435,1.716,11.86,11.86,0,0,1-3.549.529c-.923,0-1.4-.361-1.4-.923Z" transform="translate(-469.688)" fill="#030007"/><path d="M843.752,40c1.322,0,2.124-1.122,2.765-1.883a.994.994,0,0,1,.84-.441c.4,0,.682.32.682.961a5.567,5.567,0,0,1-5.891,5.368c-5.25,0-7.733-3.808-7.733-8.294V28.1c0-2.4-1.725-2.444-1.725-3.687,0-.84.761-1.043,1.725-1.243,3.285-.641,4.049-5.209,5.891-5.209.561,0,.923.482.923,1.4v3.9a.062.062,0,0,0,.062.062h2.624c1.164,0,1.725.52,1.725,1.2s-.561,1.2-1.725,1.2H841.29a.062.062,0,0,0-.062.062v7.633c0,5.45.72,6.573,2.524,6.573Z" transform="translate(-588.039 -12.683)" fill="#030007"/><path d="M625.679,50.15c-.05-.79-.323-1.816-1.116-1.848a1.783,1.783,0,0,0-1.119.57c-2.944,2.444-11.074,4.21-17.772,1.851a6.577,6.577,0,0,1-3.408-2.674,9.209,9.209,0,0,1-1.454-5.265c0-3.567,1.025-6.352,3.82-6.29a2.7,2.7,0,0,1,2.565,3.017,3.027,3.027,0,0,0,3.764,3.214,3.176,3.176,0,0,0,2.233-3.567c-.408-2.965-3.74-5.068-8.653-5.068-6.091,0-10.257,4.769-10.257,10.659s3.946,10.41,9.74,10.683c0,0,13.119.438,17.667-.608a31.091,31.091,0,0,0,3.5-.779c.532-.414.538-3.22.5-3.9Z" transform="translate(-419.675 -24.074)" fill="#030007"/><path d="M772.907,41.017a3.608,3.608,0,0,0-3.126-3.576,3.609,3.609,0,1,0-5.2-5.006,3.609,3.609,0,0,0-7.216-.115,3.611,3.611,0,1,0-5.092,5.121,3.609,3.609,0,0,0,.082,7.163,3.607,3.607,0,0,0,5.121,4.983,3.607,3.607,0,0,0,7.207.082A3.608,3.608,0,0,0,769.7,44.6,3.614,3.614,0,0,0,772.907,41.017Z" transform="translate(-529.043 -20.36)" fill="#030007"/><path d="M285.84,26.965c0-.881,1.4-2.588,1.4-4.992V20.508c0-2.4-1.4-2.965-1.4-3.846,0-.561.482-.923,1.4-.923,2.765,0,4.607-2.806,5.891-2.806.561,0,.923.482.923,1.4v6.493c0,2.4,1.4,2.965,1.4,3.846,0,.561-.267.984-1.413,1.557a11.377,11.377,0,0,1-2.862,1.146,15.441,15.441,0,0,1-3.94.508c-.923,0-1.4-.361-1.4-.923ZM290.168,4.16a3.762,3.762,0,0,1,3.725,3.808,3.747,3.747,0,1,1-7.492,0A3.772,3.772,0,0,1,290.168,4.16Z" transform="translate(-201.858 -2.938)" fill="#030007"/><path d="M240.817,53.4a30.519,30.519,0,0,0,3.5-.779c.532-.414.538-2.348.494-3.02-.05-.79-.323-2.691-1.116-2.721a1.783,1.783,0,0,0-1.119.57c-3.147,2.612-13.6,4.463-17.035-1.26l-1.213-1.88a.061.061,0,0,1,.029-.082,6.08,6.08,0,0,0,3.687-5.762c0-3.717-2.724-6.155-8.623-6.155h-8.653c-.652,0-.993.256-.993.652,0,.623.993,1.022.993,2.724V50.212c0,1.7-.993,2.1-.993,2.724,0,.4.341.652.993.652h5.051c.623,0,.964-.256.964-.652,0-.567-.793-.937-.964-2.242V46.551c.17-1.219,1.163-1.36,2.127-1.36,1.616,0,1.986.937,2.809,2.524l1.3,2.5c.085.182.176.358.267.523a6.355,6.355,0,0,0,5.256,2.821c3.441.185,11.241.244,13.236-.153Zm-22.083-9.913c-1.675,0-2.753-.141-2.92-1.36V35.345c.17-1.022.849-1.287,2.524-1.287,3.235,0,4.484,1.654,4.484,4.578s-.852,4.851-4.084,4.851Z" transform="translate(-148.138 -22.817)" fill="#030007"/><g transform="translate(60.392 47.259)"><path d="M208.52,170.052c-1.813,0-2.868-1.055-2.97-2.312h.605a2.13,2.13,0,0,0,2.365,1.813,1.954,1.954,0,0,0,2.2-1.851c0-2.918-5.039-1.093-5.039-4.525a2.477,2.477,0,0,1,2.765-2.327,2.605,2.605,0,0,1,2.8,2.045h-.617a2.1,2.1,0,0,0-2.2-1.542,1.927,1.927,0,0,0-2.171,1.813c0,2.918,5.039,1.131,5.039,4.525a2.494,2.494,0,0,1-2.776,2.365Z" transform="translate(-205.55 -160.85)" fill="#030007"/><path d="M234.17,161.16h5.72v.488H237.32v8.535h-.579v-8.535H234.17Z" transform="translate(-225.761 -161.069)" fill="#030007"/><path d="M263.79,161.16h.579V166.8c0,2.148,1.093,2.956,2.583,2.956s2.544-.811,2.544-2.956V161.16h.579v5.629c0,2.442-1.325,3.485-3.123,3.485s-3.161-1.04-3.161-3.485Z" transform="translate(-246.679 -161.069)" fill="#030007"/><path d="M305.131,165.675c0,2.826-1.7,4.5-4.769,4.5H297.83V161.15h2.533C303.436,161.15,305.131,162.845,305.131,165.675Zm-4.769,4.01c2.776,0,4.178-1.531,4.178-4.01s-1.4-4.037-4.178-4.037h-1.954v8.047Z" transform="translate(-270.717 -161.062)" fill="#030007"/><path d="M334.28,161.16h.579v9.023h-.579Z" transform="translate(-296.458 -161.069)" fill="#030007"/><path d="M352.274,170.1a4.606,4.606,0,1,1,4.384-4.6A4.342,4.342,0,0,1,352.274,170.1Zm0-.514a4.106,4.106,0,1,0-3.793-4.087A3.759,3.759,0,0,0,352.274,169.588Z" transform="translate(-306.069 -160.885)" fill="#030007"/><path d="M414.534,163.628h-.667a3.493,3.493,0,0,0-3.393-2.224,4.092,4.092,0,0,0,0,8.162,3.65,3.65,0,0,0,3.752-3.778H410.2V165.3h4.616v.385a4.294,4.294,0,0,1-4.345,4.4,4.6,4.6,0,0,1,0-9.19A4.151,4.151,0,0,1,414.534,163.628Z" transform="translate(-347.17 -160.878)" fill="#030007"/><path d="M449.87,161.16c2.083,0,3.009,1.093,3.009,2.583a2.414,2.414,0,0,1-2.289,2.544l2.365,3.9h-.693l-2.312-3.843h-1.98v3.843h-.579V161.16Zm0,.514h-1.9v4.178H449.9c1.657,0,2.377-.9,2.377-2.107,0-1.272-.667-2.068-2.4-2.068Z" transform="translate(-376.335 -161.069)" fill="#030007"/><path d="M481.12,168.355H476.84l-.861,2.312h-.629l3.317-8.817h.643l3.3,8.817h-.629l-.861-2.312Zm-2.133-5.747-1.966,5.256h3.919Z" transform="translate(-396.08 -161.556)" fill="#030007"/><path d="M513.166,166.215h-1.927v3.958h-.579V161.15h2.506c2.068,0,2.956,1.055,2.956,2.544,0,1.569-.964,2.518-2.956,2.518Zm0-.514c1.722,0,2.377-.784,2.377-2.007s-.655-2.03-2.377-2.03h-1.927V165.7Z" transform="translate(-421.016 -161.062)" fill="#030007"/><path d="M546.04,165.8h-5.271v4.369h-.579V161.15h.579v4.163h5.271V161.15h.579v9.023h-.579Z" transform="translate(-441.87 -161.062)" fill="#030007"/><path d="M574.89,161.16h.579v9.023h-.579Z" transform="translate(-466.375 -161.069)" fill="#030007"/><path d="M594.864,169.657l2.544,2.171h-.823l-2.289-1.954a4.607,4.607,0,0,1-1.413.217,4.606,4.606,0,1,1,4.384-4.6,4.48,4.48,0,0,1-2.4,4.163Zm-1.98-.076a4.106,4.106,0,1,0-3.793-4.087A3.759,3.759,0,0,0,592.884,169.581Z" transform="translate(-475.986 -160.878)" fill="#030007"/><path d="M629.81,161.16h.579V166.8c0,2.148,1.093,2.956,2.583,2.956s2.544-.811,2.544-2.956V161.16h.579v5.629c0,2.442-1.325,3.485-3.123,3.485s-3.161-1.04-3.161-3.485V161.16Z" transform="translate(-505.159 -161.069)" fill="#030007"/><path d="M668.413,161.648h-3.984v3.767h3.6v.488h-3.6V169.7h3.984v.488H663.85V161.16h4.563Z" transform="translate(-529.198 -161.069)" fill="#030007"/></g></g></g></svg>