<svg xmlns="http://www.w3.org/2000/svg" width="173.119" height="40.49" viewBox="0 0 173.119 40.49">
  <g id="LOGO_MPSTUDIO" transform="translate(0.087)">
    <g id="Groupe_3" data-name="Groupe 3" transform="translate(0.016)">
      <g id="Groupe_2" data-name="Groupe 2">
        <path id="Tracé_2" data-name="Tracé 2" d="M8.212,20.818,3.339,9.586a.421.421,0,0,0-.807.168v9.252c0,1.6.933,1.973.933,2.559,0,.373-.321.614-.933.614H.933c-.614,0-.933-.24-.933-.614,0-.587.933-.96.933-2.559V5.353C.933,3.754,0,3.38,0,2.794,0,2.42.321,2.18.933,2.18h3.6c.774,0,1.04.614,1.361,1.361l5.347,12.47a.04.04,0,0,0,.074,0L16.558,3.167c.266-.667.321-.987.907-.987h4.053c.614,0,.933.24.933.614,0,.587-.933.96-.933,2.559V19.006c0,1.6.933,1.973.933,2.559,0,.373-.321.614-.933.614H16.773c-.614,0-.933-.24-.933-.614,0-.587.933-.96.933-2.559V7.895a.268.268,0,0,0-.516-.1l-5.271,12.97c-.108.266-.506,1.414-1.253,1.414h-.16c-.774,0-1.04-.639-1.361-1.361Z" transform="translate(0 -1.754)" fill="#030007"/>
        <path id="Tracé_3" data-name="Tracé 3" d="M134.446,47.013a.037.037,0,0,0-.059-.012,5.894,5.894,0,0,1-3.91,1.275c-3.306,0-4.747-1.867-4.747-3.945,0-4.933,8.507-4.239,8.507-5.68v-.774c0-1.226-.506-2.186-1.76-2.186s-1.76.96-1.76,2.186a2.015,2.015,0,0,1-2.317,2,2.125,2.125,0,0,1-1.644-2.626c.4-1.879,2.653-3.163,5.881-3.163,3.893,0,6.133,2,6.133,4.532v6.053c0,1.6.933,1.973.933,2.559,0,.373-.321.614-.933.614H136.1a1.792,1.792,0,0,1-1.656-.837Zm-2.051-.63a1.937,1.937,0,0,0,1.84-2.106V41.2a.292.292,0,0,0-.43-.258c-1.171.641-3.41,1.474-3.41,3.384A1.972,1.972,0,0,0,132.4,46.384Z" transform="translate(-101.148 -27.425)" fill="#030007"/>
        <path id="Tracé_4" data-name="Tracé 4" d="M340.5,39.869c0,3.386,1.787,5.732,4.239,5.732a3.512,3.512,0,0,0,2.479-1.253.772.772,0,0,1,.559-.293c.266,0,.454.213.454.639,0,1.04-1.574,3.572-5.253,3.572a6.786,6.786,0,0,1-6.825-7.093,6.786,6.786,0,0,1,6.825-7.093c3.494,0,5.973,2.133,5.973,4.72,0,3.572-4.612,5.173-6.667,5.173-.321,0-.534-.08-.534-.293,0-.815,3.1-2.1,2.984-6.022a1.936,1.936,0,0,0-2.52-1.85c-1.224.45-1.717,2.076-1.717,4.059Z" transform="translate(-270.428 -27.417)" fill="#030007"/>
        <path id="Tracé_5" data-name="Tracé 5" d="M455.18,2.794c0-.373.321-.614.933-.614h8.159c5.547,0,8.106,2.293,8.106,5.785s-2.559,6.319-8.106,6.319h-.639c-1.734,0-2.772.16-2.772,1.679V19c0,1.6.933,1.973.933,2.559,0,.373-.321.614-.933.614h-4.747c-.614,0-.933-.24-.933-.614,0-.587.933-.96.933-2.559V5.353C456.113,3.754,455.18,3.38,455.18,2.794Zm8.452,9.893c3.04,0,3.84-1.787,3.84-4.559S465.994,3.7,462.956,3.7c-1.734,0-2.1.422-2.1,1.65v5.68c0,1.494,1.04,1.654,2.772,1.654Z" transform="translate(-366.187 -1.754)" fill="#030007"/>
        <path id="Tracé_6" data-name="Tracé 6" d="M550.64,23.214c0-.587.933-.96.933-2.559V15.108c0-1.6-.933-1.973-.933-2.559,0-.373.321-.614.933-.614,1.84,0,3.066-1.867,3.92-1.867.373,0,.614.321.614.933v9.652c0,1.6.933,1.973.933,2.559,0,.373-.321.614-.933.614h-4.532c-.614,0-.933-.24-.933-.614ZM553.52,4.23A2.5,2.5,0,0,1,556,6.764a2.493,2.493,0,1,1-4.986,0A2.51,2.51,0,0,1,553.52,4.23Z" transform="translate(-442.983 -3.403)" fill="#030007"/>
        <path id="Tracé_7" data-name="Tracé 7" d="M665.1,16.384c0-.587.933-2.483.933-4.082V5.04c0-1.6-.933-1.973-.933-2.559,0-.373.321-.614.933-.614,1.84,0,3.066-1.867,3.92-1.867.373,0,.614.321.614.933v6.18a.379.379,0,0,0,.569.33,7.588,7.588,0,0,1,3.226-.778c3.386,0,4.8,2,4.8,4.532V17.25c0,1.6.933,1.973.933,2.559,0,.373-.321.614-.933.614h-4.532c-.614,0-.933-.24-.933-.614,0-.587.933-.96.933-2.559V11.2a2.531,2.531,0,0,0-2.221-2.639c-1.333,0-1.84,1.414-1.84,2.639v1.1c0,1.6.495,1.472.495,2.059a1.4,1.4,0,0,1-.381,1.142A7.262,7.262,0,0,1,668.4,16.64a7.892,7.892,0,0,1-2.362.352c-.614,0-.933-.24-.933-.614Z" transform="translate(-535.065)" fill="#030007"/>
        <path id="Tracé_8" data-name="Tracé 8" d="M840.051,32.627c.88,0,1.414-.747,1.84-1.253a.661.661,0,0,1,.559-.293c.266,0,.454.213.454.639a3.7,3.7,0,0,1-3.92,3.572c-3.494,0-5.146-2.534-5.146-5.519V24.707c0-1.6-1.148-1.627-1.148-2.454,0-.559.506-.694,1.148-.827,2.186-.426,2.694-3.466,3.92-3.466.373,0,.614.321.614.933v2.6a.041.041,0,0,0,.041.041h1.746c.774,0,1.148.346,1.148.8s-.373.8-1.148.8h-1.746a.041.041,0,0,0-.041.041v5.079c0,3.627.479,4.374,1.68,4.374Z" transform="translate(-669.889 -14.449)" fill="#030007"/>
        <path id="Tracé_9" data-name="Tracé 9" d="M615.174,44.777c-.033-.526-.215-1.208-.743-1.23a1.187,1.187,0,0,0-.745.379c-1.959,1.627-7.369,2.8-11.826,1.232a4.377,4.377,0,0,1-2.268-1.779,6.129,6.129,0,0,1-.968-3.5c0-2.374.682-4.227,2.542-4.186a1.8,1.8,0,0,1,1.707,2.008,2.014,2.014,0,0,0,2.5,2.139,2.113,2.113,0,0,0,1.486-2.374c-.272-1.973-2.489-3.373-5.758-3.373a6.786,6.786,0,0,0-6.825,7.093,6.753,6.753,0,0,0,6.481,7.109s8.73.291,11.756-.4a20.691,20.691,0,0,0,2.327-.518c.354-.276.358-2.143.33-2.592Z" transform="translate(-478.091 -27.425)" fill="#030007"/>
      </g>
      <path id="Tracé_10" data-name="Tracé 10" d="M764.959,36.94a2.4,2.4,0,0,0-2.08-2.379,2.4,2.4,0,1,0-3.459-3.332,2.4,2.4,0,0,0-4.8-.076,2.4,2.4,0,1,0-3.388,3.408,2.4,2.4,0,0,0,.055,4.767,2.4,2.4,0,0,0,3.408,3.316,2.4,2.4,0,0,0,4.8.055,2.4,2.4,0,0,0,3.335-3.371A2.4,2.4,0,0,0,764.959,36.94Z" transform="translate(-602.682 -23.193)" fill="#030007"/>
      <path id="Tracé_11" data-name="Tracé 11" d="M285.84,19.336c0-.587.933-1.722.933-3.322v-.976c0-1.6-.933-1.973-.933-2.559,0-.373.321-.614.933-.614,1.84,0,3.066-1.867,3.92-1.867.373,0,.614.321.614.933v4.321c0,1.6.933,1.973.933,2.559,0,.373-.178.655-.94,1.036a7.571,7.571,0,0,1-1.9.762,10.275,10.275,0,0,1-2.622.338c-.614,0-.933-.24-.933-.614ZM288.72,4.16A2.5,2.5,0,0,1,291.2,6.694a2.493,2.493,0,1,1-4.986,0A2.51,2.51,0,0,1,288.72,4.16Z" transform="translate(-229.955 -3.347)" fill="#030007"/>
      <path id="Tracé_12" data-name="Tracé 12" d="M230.43,46.344a20.307,20.307,0,0,0,2.327-.518c.354-.276.358-1.562.328-2.01-.033-.526-.215-1.791-.743-1.81a1.187,1.187,0,0,0-.745.379c-2.094,1.738-9.05,2.97-11.336-.839l-.807-1.251a.041.041,0,0,1,.02-.055,4.046,4.046,0,0,0,2.454-3.834c0-2.473-1.812-4.1-5.738-4.1h-5.758c-.434,0-.661.17-.661.434,0,.414.661.68.661,1.812v9.666c0,1.132-.661,1.4-.661,1.812,0,.264.227.434.661.434h3.361c.414,0,.641-.17.641-.434,0-.377-.528-.624-.641-1.492V41.787c.113-.811.774-.905,1.416-.905,1.075,0,1.322.624,1.869,1.679l.868,1.662c.057.121.117.239.178.348a4.229,4.229,0,0,0,3.5,1.877,64.6,64.6,0,0,0,8.808-.1Zm-14.695-6.6c-1.114,0-1.832-.094-1.943-.905V34.33c.113-.68.565-.856,1.679-.856,2.153,0,2.984,1.1,2.984,3.046s-.567,3.228-2.718,3.228Z" transform="translate(-168.757 -25.993)" fill="#030007"/>
    </g>
    <g id="Groupe_4" data-name="Groupe 4" transform="translate(-0.087 31.448)">
      <path id="Tracé_13" data-name="Tracé 13" d="M208,168.449a2.208,2.208,0,0,1-2.453-1.909h.5a1.759,1.759,0,0,0,1.953,1.5,1.614,1.614,0,0,0,1.815-1.528c0-2.409-4.161-.9-4.161-3.736a2.046,2.046,0,0,1,2.283-1.921,2.151,2.151,0,0,1,2.314,1.689h-.509a1.733,1.733,0,0,0-1.815-1.274,1.591,1.591,0,0,0-1.793,1.5c0,2.409,4.161.934,4.161,3.736a2.059,2.059,0,0,1-2.293,1.953Z" transform="translate(-205.55 -160.85)" fill="#030007"/>
      <path id="Tracé_14" data-name="Tracé 14" d="M234.17,161.16h4.724v.4h-2.123v7.048h-.478v-7.048H234.17Z" transform="translate(-227.227 -161.085)" fill="#030007"/>
      <path id="Tracé_15" data-name="Tracé 15" d="M263.79,161.16h.478v4.661c0,1.773.9,2.441,2.133,2.441s2.1-.67,2.1-2.441V161.16h.478v4.648c0,2.016-1.094,2.877-2.579,2.877s-2.61-.859-2.61-2.877Z" transform="translate(-249.661 -161.085)" fill="#030007"/>
      <path id="Tracé_16" data-name="Tracé 16" d="M303.859,164.886c0,2.334-1.4,3.714-3.937,3.714H297.83v-7.45h2.091C302.459,161.15,303.859,162.55,303.859,164.886Zm-3.937,3.312c2.293,0,3.45-1.264,3.45-3.312s-1.157-3.333-3.45-3.333h-1.613V168.2Z" transform="translate(-275.442 -161.077)" fill="#030007"/>
      <path id="Tracé_17" data-name="Tracé 17" d="M334.28,161.16h.478v7.45h-.478Z" transform="translate(-303.049 -161.085)" fill="#030007"/>
      <path id="Tracé_18" data-name="Tracé 18" d="M351.51,168.5a3.8,3.8,0,1,1,3.62-3.8A3.585,3.585,0,0,1,351.51,168.5Zm0-.425a3.391,3.391,0,1,0-3.132-3.375A3.1,3.1,0,0,0,351.51,168.074Z" transform="translate(-313.357 -160.888)" fill="#030007"/>
      <path id="Tracé_19" data-name="Tracé 19" d="M413.063,163.151h-.551a2.884,2.884,0,0,0-2.8-1.837,3.379,3.379,0,0,0,0,6.74,3.014,3.014,0,0,0,3.1-3.12h-3.321v-.4H413.3v.318a3.546,3.546,0,0,1-3.588,3.629,3.8,3.8,0,0,1,0-7.589A3.428,3.428,0,0,1,413.063,163.151Z" transform="translate(-357.437 -160.88)" fill="#030007"/>
      <path id="Tracé_20" data-name="Tracé 20" d="M449.438,161.16c1.72,0,2.484.9,2.484,2.133a1.993,1.993,0,0,1-1.89,2.1l1.953,3.217h-.573l-1.909-3.173h-1.635v3.173h-.478v-7.45Zm0,.425h-1.57v3.45h1.592c1.368,0,1.963-.742,1.963-1.739,0-1.05-.551-1.708-1.985-1.708Z" transform="translate(-388.718 -161.085)" fill="#030007"/>
      <path id="Tracé_21" data-name="Tracé 21" d="M480.115,167.221H476.58l-.711,1.909h-.519l2.739-7.281h.531l2.727,7.281h-.519l-.711-1.909Zm-1.761-4.745-1.623,4.34h3.236Z" transform="translate(-409.894 -161.607)" fill="#030007"/>
      <path id="Tracé_22" data-name="Tracé 22" d="M512.73,165.333h-1.592V168.6h-.478v-7.45h2.069c1.708,0,2.441.871,2.441,2.1,0,1.3-.8,2.079-2.441,2.079Zm0-.425c1.422,0,1.963-.648,1.963-1.657s-.541-1.676-1.963-1.676h-1.592v3.333Z" transform="translate(-436.638 -161.077)" fill="#030007"/>
      <path id="Tracé_23" data-name="Tracé 23" d="M545.02,164.993h-4.352V168.6h-.478v-7.45h.478v3.438h4.352V161.15h.478v7.45h-.478Z" transform="translate(-459.004 -161.077)" fill="#030007"/>
      <path id="Tracé_24" data-name="Tracé 24" d="M574.89,161.16h.478v7.45h-.478Z" transform="translate(-485.285 -161.085)" fill="#030007"/>
      <path id="Tracé_25" data-name="Tracé 25" d="M593.755,168.129l2.1,1.793h-.679l-1.89-1.613a3.8,3.8,0,0,1-1.167.18,3.8,3.8,0,1,1,3.62-3.8,3.7,3.7,0,0,1-1.984,3.438Zm-1.635-.063a3.391,3.391,0,1,0-3.132-3.375A3.1,3.1,0,0,0,592.12,168.066Z" transform="translate(-495.593 -160.88)" fill="#030007"/>
      <path id="Tracé_26" data-name="Tracé 26" d="M629.81,161.16h.478v4.661c0,1.773.9,2.441,2.132,2.441s2.1-.67,2.1-2.441V161.16H635v4.648c0,2.016-1.094,2.877-2.579,2.877s-2.61-.859-2.61-2.877Z" transform="translate(-526.881 -161.085)" fill="#030007"/>
      <path id="Tracé_27" data-name="Tracé 27" d="M667.618,161.563h-3.29v3.11H667.3v.4h-2.972v3.132h3.29v.4H663.85V161.16h3.768Z" transform="translate(-552.663 -161.085)" fill="#030007"/>
    </g>
  </g>
</svg>
