<svg id="LOGO_MPSTUDIO" xmlns="http://www.w3.org/2000/svg" width="178.217" height="39.899" viewBox="0 0 178.217 39.899">
  <g id="Groupe_8" data-name="Groupe 8">
    <g id="Groupe_7" data-name="Groupe 7">
      <path id="Tracé_55" data-name="Tracé 55" d="M8.458,21.379,3.44,9.809a.434.434,0,0,0-.832.173v9.53c0,1.647.961,2.032.961,2.636,0,.385-.33.632-.961.632H.961c-.632,0-.961-.248-.961-.632,0-.6.961-.989.961-2.636V5.449C.961,3.8,0,3.417,0,2.812c0-.385.33-.632.961-.632H4.668c.8,0,1.071.632,1.4,1.4l5.508,12.845a.041.041,0,0,0,.077,0L17.056,3.2c.274-.687.33-1.017.934-1.017h4.175c.632,0,.961.248.961.632,0,.6-.961.989-.961,2.636V19.512c0,1.647.961,2.032.961,2.636,0,.385-.33.632-.961.632H17.277c-.632,0-.961-.248-.961-.632,0-.6.961-.989.961-2.636V8.067a.276.276,0,0,0-.532-.1l-5.43,13.36c-.111.274-.522,1.456-1.291,1.456H9.86c-.8,0-1.071-.659-1.4-1.4Z" transform="translate(0 -1.741)" fill="#ebebeb"/>
      <path id="Tracé_56" data-name="Tracé 56" d="M134.708,47.4a.038.038,0,0,0-.06-.012A6.071,6.071,0,0,1,130.62,48.7c-3.406,0-4.89-1.923-4.89-4.064,0-5.081,8.763-4.366,8.763-5.85v-.8c0-1.263-.522-2.252-1.813-2.252s-1.812.989-1.812,2.252a2.076,2.076,0,0,1-2.386,2.062,2.189,2.189,0,0,1-1.694-2.7c.417-1.935,2.733-3.259,6.058-3.259,4.01,0,6.318,2.06,6.318,4.668v6.235c0,1.647.961,2.032.961,2.636,0,.385-.33.632-.961.632h-2.747a1.846,1.846,0,0,1-1.706-.862Zm-2.113-.648a2,2,0,0,0,1.9-2.169V41.419a.3.3,0,0,0-.443-.266c-1.206.661-3.512,1.518-3.512,3.486A2.031,2.031,0,0,0,132.6,46.753Z" transform="translate(-100.409 -27.225)" fill="#ebebeb"/>
      <path id="Tracé_57" data-name="Tracé 57" d="M340.629,40.043c0,3.488,1.841,5.9,4.366,5.9a3.618,3.618,0,0,0,2.554-1.291.8.8,0,0,1,.576-.3c.274,0,.467.22.467.659,0,1.071-1.621,3.679-5.411,3.679a6.99,6.99,0,0,1-7.031-7.306,6.99,6.99,0,0,1,7.031-7.306c3.6,0,6.152,2.2,6.152,4.862,0,3.679-4.751,5.329-6.867,5.329-.33,0-.55-.083-.55-.3,0-.84,3.19-2.163,3.073-6.2a1.994,1.994,0,0,0-2.6-1.905c-1.261.463-1.768,2.139-1.768,4.181Z" transform="translate(-268.452 -27.217)" fill="#ebebeb"/>
      <path id="Tracé_58" data-name="Tracé 58" d="M455.18,2.812c0-.385.33-.632.961-.632h8.4c5.714,0,8.35,2.362,8.35,5.959s-2.636,6.509-8.35,6.509h-.659c-1.786,0-2.856.165-2.856,1.73V19.51c0,1.647.961,2.032.961,2.636,0,.385-.33.632-.961.632h-4.89c-.632,0-.961-.248-.961-.632,0-.6.961-.989.961-2.636V5.449C456.141,3.8,455.18,3.417,455.18,2.812ZM463.886,13c3.132,0,3.955-1.841,3.955-4.7s-1.523-4.555-4.652-4.555c-1.786,0-2.159.435-2.159,1.7V11.3c0,1.539,1.071,1.7,2.856,1.7Z" transform="translate(-363.511 -1.741)" fill="#ebebeb"/>
      <path id="Tracé_59" data-name="Tracé 59" d="M550.64,23.785c0-.6.961-.989.961-2.636V15.435c0-1.647-.961-2.032-.961-2.636,0-.385.33-.632.961-.632,1.9,0,3.158-1.923,4.038-1.923.385,0,.632.33.632.961v9.943c0,1.647.961,2.032.961,2.636,0,.385-.33.632-.961.632H551.6c-.632,0-.961-.248-.961-.632ZM553.607,4.23a2.578,2.578,0,0,1,2.554,2.61,2.568,2.568,0,1,1-5.135,0A2.586,2.586,0,0,1,553.607,4.23Z" transform="translate(-439.746 -3.378)" fill="#ebebeb"/>
      <path id="Tracé_60" data-name="Tracé 60" d="M665.1,16.877c0-.6.961-2.558.961-4.205V5.192c0-1.647-.961-2.032-.961-2.636,0-.385.33-.632.961-.632,1.9,0,3.158-1.923,4.038-1.923.385,0,.632.33.632.961V7.327a.391.391,0,0,0,.586.34,7.815,7.815,0,0,1,3.323-.8c3.488,0,4.944,2.06,4.944,4.668v6.235c0,1.647.961,2.032.961,2.636,0,.385-.33.632-.961.632h-4.668c-.632,0-.961-.248-.961-.632,0-.6.961-.989.961-2.636V11.534a2.607,2.607,0,0,0-2.288-2.719c-1.373,0-1.9,1.456-1.9,2.719v1.134c0,1.647.51,1.516.51,2.121a1.436,1.436,0,0,1-.393,1.176A7.478,7.478,0,0,1,668.5,17.14a8.129,8.129,0,0,1-2.433.363c-.632,0-.961-.248-.961-.632Z" transform="translate(-531.155)" fill="#ebebeb"/>
      <path id="Tracé_61" data-name="Tracé 61" d="M840.272,33.068c.906,0,1.456-.769,1.9-1.291a.681.681,0,0,1,.576-.3c.274,0,.467.22.467.659a3.816,3.816,0,0,1-4.038,3.679c-3.6,0-5.3-2.61-5.3-5.685V24.91c0-1.647-1.182-1.676-1.182-2.527,0-.576.522-.715,1.182-.852,2.252-.439,2.775-3.571,4.038-3.571.385,0,.632.33.632.961V21.6a.043.043,0,0,0,.042.042h1.8c.8,0,1.182.356,1.182.824s-.385.824-1.182.824h-1.8a.043.043,0,0,0-.042.042v5.232c0,3.736.493,4.505,1.73,4.505Z" transform="translate(-664.993 -14.343)" fill="#ebebeb"/>
      <path id="Tracé_62" data-name="Tracé 62" d="M615.8,45.1c-.034-.542-.221-1.245-.765-1.267a1.222,1.222,0,0,0-.767.391c-2.018,1.676-7.59,2.886-12.182,1.269a4.508,4.508,0,0,1-2.336-1.833,6.312,6.312,0,0,1-1-3.609c0-2.445.7-4.354,2.618-4.312a1.849,1.849,0,0,1,1.758,2.068,2.075,2.075,0,0,0,2.58,2.2,2.177,2.177,0,0,0,1.531-2.445c-.28-2.032-2.564-3.474-5.931-3.474A6.99,6.99,0,0,0,594.28,41.4c0,4.038,2.7,7.135,6.676,7.323,0,0,8.992.3,12.11-.417a21.317,21.317,0,0,0,2.4-.534c.364-.284.369-2.207.34-2.67Z" transform="translate(-474.597 -27.225)" fill="#ebebeb"/>
    </g>
    <path id="Tracé_63" data-name="Tracé 63" d="M765.435,37.184a2.473,2.473,0,0,0-2.143-2.451,2.474,2.474,0,1,0-3.563-3.432,2.474,2.474,0,0,0-4.946-.079,2.475,2.475,0,1,0-3.49,3.51,2.474,2.474,0,0,0,.056,4.91,2.473,2.473,0,0,0,3.51,3.416,2.472,2.472,0,0,0,4.94.056,2.473,2.473,0,0,0,3.436-3.472A2.477,2.477,0,0,0,765.435,37.184Z" transform="translate(-598.278 -23.024)" fill="#ebebeb"/>
    <path id="Tracé_64" data-name="Tracé 64" d="M285.84,19.792c0-.6.961-1.774.961-3.422v-1c0-1.647-.961-2.032-.961-2.636,0-.385.33-.632.961-.632,1.9,0,3.158-1.923,4.038-1.923.385,0,.632.33.632.961v4.451c0,1.647.961,2.032.961,2.636,0,.385-.183.675-.969,1.067a7.8,7.8,0,0,1-1.962.785,10.584,10.584,0,0,1-2.7.348c-.632,0-.961-.248-.961-.632ZM288.807,4.16a2.579,2.579,0,0,1,2.554,2.61,2.568,2.568,0,1,1-5.135,0A2.586,2.586,0,0,1,288.807,4.16Z" transform="translate(-228.274 -3.322)" fill="#ebebeb"/>
    <path id="Tracé_65" data-name="Tracé 65" d="M231.051,46.766a20.92,20.92,0,0,0,2.4-.534c.365-.284.369-1.609.338-2.07-.034-.542-.222-1.845-.765-1.865a1.222,1.222,0,0,0-.767.391c-2.157,1.79-9.322,3.059-11.677-.864l-.832-1.289a.042.042,0,0,1,.02-.056,4.167,4.167,0,0,0,2.527-3.949c0-2.548-1.867-4.219-5.911-4.219h-5.931c-.447,0-.681.175-.681.447,0,.427.681.7.681,1.867v9.957c0,1.166-.681,1.44-.681,1.867,0,.272.234.447.681.447h3.462c.427,0,.661-.175.661-.447,0-.389-.544-.642-.661-1.537v-2.84c.117-.836.8-.932,1.458-.932,1.108,0,1.361.642,1.925,1.73l.894,1.712c.058.125.121.246.183.358a4.356,4.356,0,0,0,3.6,1.933,66.537,66.537,0,0,0,9.073-.1Zm-15.137-6.795c-1.148,0-1.887-.1-2-.932V34.39c.117-.7.582-.882,1.73-.882,2.217,0,3.073,1.134,3.073,3.138s-.584,3.325-2.8,3.325Z" transform="translate(-167.524 -25.803)" fill="#ebebeb"/>
  </g>
  <g id="Groupe_9" data-name="Groupe 9" transform="translate(41.396 32.394)">
    <path id="Tracé_66" data-name="Tracé 66" d="M207.586,167.158a1.833,1.833,0,0,1-2.036-1.585h.415a1.46,1.46,0,0,0,1.621,1.243,1.339,1.339,0,0,0,1.506-1.269c0-2-3.454-.749-3.454-3.1a1.7,1.7,0,0,1,1.9-1.6,1.786,1.786,0,0,1,1.921,1.4h-.423a1.438,1.438,0,0,0-1.506-1.057,1.321,1.321,0,0,0-1.488,1.243c0,2,3.454.775,3.454,3.1a1.709,1.709,0,0,1-1.9,1.621Z" transform="translate(-205.55 -160.85)" fill="#ebebeb"/>
    <path id="Tracé_67" data-name="Tracé 67" d="M234.17,161.16h3.921v.334h-1.762v5.85h-.4v-5.85H234.17Z" transform="translate(-228.406 -161.098)" fill="#ebebeb"/>
    <path id="Tracé_68" data-name="Tracé 68" d="M263.79,161.16h.4v3.869c0,1.472.749,2.026,1.77,2.026s1.744-.556,1.744-2.026V161.16h.4v3.859c0,1.674-.908,2.389-2.141,2.389s-2.167-.713-2.167-2.389Z" transform="translate(-252.061 -161.098)" fill="#ebebeb"/>
    <path id="Tracé_69" data-name="Tracé 69" d="M302.835,164.251c0,1.937-1.162,3.083-3.269,3.083H297.83V161.15h1.736C301.673,161.15,302.835,162.312,302.835,164.251ZM299.566,167a2.76,2.76,0,1,0,0-5.516h-1.339V167Z" transform="translate(-279.246 -161.09)" fill="#ebebeb"/>
    <path id="Tracé_70" data-name="Tracé 70" d="M334.28,161.16h.4v6.185h-.4Z" transform="translate(-308.355 -161.098)" fill="#ebebeb"/>
    <path id="Tracé_71" data-name="Tracé 71" d="M350.895,167.208a3.157,3.157,0,1,1,3-3.154A2.976,2.976,0,0,1,350.895,167.208Zm0-.352a2.815,2.815,0,1,0-2.6-2.8A2.577,2.577,0,0,0,350.895,166.855Z" transform="translate(-319.224 -160.89)" fill="#ebebeb"/>
    <path id="Tracé_72" data-name="Tracé 72" d="M411.878,162.767h-.457a2.394,2.394,0,0,0-2.326-1.525,2.8,2.8,0,0,0,0,5.595,2.5,2.5,0,0,0,2.572-2.59H408.91v-.334h3.164v.264a2.943,2.943,0,0,1-2.979,3.013,3.153,3.153,0,0,1,0-6.3A2.845,2.845,0,0,1,411.878,162.767Z" transform="translate(-365.703 -160.882)" fill="#ebebeb"/>
    <path id="Tracé_73" data-name="Tracé 73" d="M449.09,161.16c1.428,0,2.062.749,2.062,1.77a1.654,1.654,0,0,1-1.569,1.744l1.621,2.67h-.475l-1.585-2.634h-1.357v2.634h-.4V161.16Zm0,.352h-1.3v2.864h1.321c1.136,0,1.629-.616,1.629-1.444,0-.872-.457-1.418-1.647-1.418Z" transform="translate(-398.686 -161.098)" fill="#ebebeb"/>
    <path id="Tracé_74" data-name="Tracé 74" d="M479.305,166.309h-2.934l-.59,1.585h-.431l2.274-6.044h.441l2.264,6.044H479.9l-.59-1.585Zm-1.462-3.939-1.347,3.6h2.687Z" transform="translate(-421.015 -161.649)" fill="#ebebeb"/>
    <path id="Tracé_75" data-name="Tracé 75" d="M512.378,164.622h-1.321v2.713h-.4V161.15h1.718c1.418,0,2.026.723,2.026,1.744,0,1.075-.661,1.726-2.026,1.726Zm0-.352c1.18,0,1.629-.538,1.629-1.376s-.449-1.392-1.629-1.392h-1.321v2.767Z" transform="translate(-449.214 -161.09)" fill="#ebebeb"/>
    <path id="Tracé_76" data-name="Tracé 76" d="M544.2,164.34h-3.613v2.995h-.4V161.15h.4V164H544.2V161.15h.4v6.185h-.4V164.34Z" transform="translate(-472.796 -161.09)" fill="#ebebeb"/>
    <path id="Tracé_77" data-name="Tracé 77" d="M574.89,161.16h.4v6.185h-.4Z" transform="translate(-500.508 -161.098)" fill="#ebebeb"/>
    <path id="Tracé_78" data-name="Tracé 78" d="M592.862,166.9l1.744,1.488h-.564l-1.569-1.339a3.157,3.157,0,0,1-.969.149,3.157,3.157,0,1,1,3-3.154,3.071,3.071,0,0,1-1.647,2.854Zm-1.357-.052a2.815,2.815,0,1,0-2.6-2.8A2.576,2.576,0,0,0,591.5,166.847Z" transform="translate(-511.377 -160.882)" fill="#ebebeb"/>
    <path id="Tracé_79" data-name="Tracé 79" d="M629.81,161.16h.4v3.869c0,1.472.749,2.026,1.77,2.026s1.744-.556,1.744-2.026V161.16h.4v3.859c0,1.674-.908,2.389-2.141,2.389s-2.167-.713-2.167-2.389V161.16Z" transform="translate(-544.368 -161.098)" fill="#ebebeb"/>
    <path id="Tracé_80" data-name="Tracé 80" d="M666.978,161.494h-2.731v2.582h2.467v.334h-2.467v2.6h2.731v.334H663.85V161.16h3.128Z" transform="translate(-571.552 -161.098)" fill="#ebebeb"/>
  </g>
</svg>
