<?xml version="1.0" encoding="UTF-8"?>
<svg id="Calque_1" data-name="Calque 1" xmlns="http://www.w3.org/2000/svg" viewBox="0 0 234.18 59.9">
  <defs>
    <style>
      .cls-1 {
        fill: #f59ec1;
      }

      .cls-2 {
        fill: #fff;
      }

      .cls-3 {
        fill: none;
        stroke: #fff;
        stroke-miterlimit: 10;
        stroke-width: 2px;
      }
    </style>
  </defs>
  <g id="Groupe_35" data-name="Groupe 35">
    <g id="Groupe_17" data-name="Groupe 17">
      <rect id="Rectangle_81" data-name="Rectangle 81" class="cls-1" x=".06" y=".27" width="234.06" height="59.35" rx="5.16" ry="5.16" transform="translate(-.07 .29) rotate(-.14)"/>
      <rect id="Rectangle_82" data-name="Rectangle 82" class="cls-3" x="5.02" y="4.77" width="224.32" height="51.35" rx="4.2" ry="4.2" transform="translate(-.07 .29) rotate(-.14)"/>
    </g>
  </g>
  <g>
    <path class="cls-2" d="M41.95,24.17h3.17l3.55,10.06h.04l3.46-10.06h3.13v12.85h-2.14v-9.92h-.04l-3.56,9.92h-1.85l-3.56-9.92h-.04v9.92h-2.14v-12.85Z"/>
    <path class="cls-2" d="M57.99,24.17h9.25v1.94h-7v3.37h6.48v1.84h-6.48v3.76h7.13v1.94h-9.38v-12.85Z"/>
    <path class="cls-2" d="M70.8,32.74c0,.49,.08,.91,.25,1.26,.17,.35,.4,.63,.7,.86,.3,.22,.65,.38,1.04,.49,.39,.1,.81,.15,1.27,.15,.49,0,.91-.06,1.26-.17s.63-.26,.85-.44c.22-.18,.37-.39,.47-.62,.1-.23,.14-.47,.14-.71,0-.49-.11-.86-.33-1.09-.22-.23-.46-.4-.73-.49-.46-.17-.99-.33-1.59-.48-.61-.15-1.35-.35-2.24-.59-.55-.14-1.01-.33-1.38-.57-.37-.23-.66-.5-.87-.78-.22-.29-.37-.59-.46-.92-.09-.32-.13-.65-.13-.99,0-.65,.13-1.21,.4-1.68s.63-.87,1.07-1.18,.95-.54,1.51-.69,1.13-.23,1.71-.23c.67,0,1.3,.09,1.9,.26,.59,.17,1.12,.44,1.57,.78,.45,.35,.81,.78,1.07,1.29,.26,.51,.4,1.1,.4,1.77h-2.25c-.06-.83-.34-1.41-.85-1.75-.5-.34-1.15-.51-1.93-.51-.26,0-.53,.03-.81,.08-.28,.05-.53,.14-.76,.27-.23,.13-.42,.3-.57,.51-.15,.22-.23,.49-.23,.81,0,.46,.14,.81,.42,1.07,.28,.26,.65,.45,1.11,.58,.05,.01,.24,.06,.57,.15,.33,.09,.7,.19,1.11,.3,.41,.11,.81,.21,1.2,.31,.39,.1,.67,.18,.84,.23,.42,.13,.79,.31,1.1,.54,.31,.23,.57,.49,.78,.78,.21,.29,.37,.61,.47,.95s.15,.67,.15,1.01c0,.72-.15,1.33-.44,1.84-.29,.51-.68,.93-1.16,1.25-.48,.32-1.03,.56-1.64,.71-.61,.15-1.24,.22-1.87,.22-.73,0-1.42-.09-2.07-.27-.65-.18-1.21-.46-1.69-.83-.48-.37-.86-.85-1.15-1.43s-.44-1.27-.45-2.06h2.25Z"/>
    <path class="cls-2" d="M85.99,24.17h9.25v1.94h-7v3.37h6.48v1.84h-6.48v3.76h7.13v1.94h-9.38v-12.85Z"/>
    <path class="cls-2" d="M96.21,24.17h2.68l2.92,4.54,3.04-4.54h2.52l-4.25,6.19,4.55,6.66h-2.74l-3.2-4.91-3.26,4.91h-2.57l4.55-6.66-4.25-6.19Z"/>
    <path class="cls-2" d="M108.99,24.17h5.67c.91,0,1.66,.13,2.23,.4,.58,.26,1.02,.59,1.33,.99,.31,.4,.52,.83,.64,1.3,.11,.47,.17,.9,.17,1.3s-.06,.83-.17,1.29-.33,.89-.64,1.29c-.31,.4-.76,.72-1.33,.98-.58,.26-1.32,.39-2.23,.39h-3.42v4.93h-2.25v-12.85Zm2.25,6.08h3.29c.25,0,.51-.04,.77-.11,.26-.07,.51-.19,.73-.35,.22-.16,.4-.38,.54-.65,.14-.27,.21-.61,.21-1.02s-.06-.77-.18-1.04c-.12-.28-.28-.5-.49-.66-.2-.16-.44-.27-.7-.33-.26-.06-.55-.09-.85-.09h-3.33v4.25Z"/>
    <path class="cls-2" d="M121,24.17h9.25v1.94h-7v3.37h6.48v1.84h-6.48v3.76h7.13v1.94h-9.38v-12.85Z"/>
    <path class="cls-2" d="M132.34,24.17h6.14c1.42,0,2.48,.31,3.19,.92s1.06,1.46,1.06,2.56c0,.61-.09,1.12-.27,1.52s-.39,.73-.63,.97c-.24,.25-.48,.42-.71,.53-.23,.11-.41,.18-.51,.22v.04c.19,.02,.4,.08,.62,.18,.22,.1,.43,.25,.62,.46,.19,.21,.35,.48,.48,.82s.19,.76,.19,1.26c0,.76,.06,1.44,.17,2.06,.11,.62,.29,1.06,.53,1.32h-2.41c-.17-.28-.27-.58-.3-.92-.03-.33-.05-.66-.05-.97,0-.59-.04-1.1-.11-1.52s-.2-.78-.4-1.06c-.19-.28-.45-.49-.78-.62-.33-.13-.75-.2-1.27-.2h-3.31v5.29h-2.25v-12.85Zm2.25,5.85h3.69c.72,0,1.27-.17,1.64-.51,.37-.34,.56-.85,.56-1.54,0-.41-.06-.74-.18-1-.12-.26-.29-.46-.5-.6s-.45-.24-.72-.29c-.27-.05-.55-.07-.84-.07h-3.65v4.01Z"/>
    <path class="cls-2" d="M143.46,24.17h10.4v1.94h-4.09v10.91h-2.25v-10.91h-4.07v-1.94Z"/>
    <path class="cls-2" d="M155.35,24.17h2.25v12.85h-2.25v-12.85Z"/>
    <path class="cls-2" d="M161.83,32.74c0,.49,.08,.91,.25,1.26,.17,.35,.4,.63,.7,.86,.3,.22,.64,.38,1.03,.49,.39,.1,.81,.15,1.27,.15,.49,0,.91-.06,1.26-.17,.35-.11,.63-.26,.85-.44,.22-.18,.37-.39,.47-.62,.1-.23,.14-.47,.14-.71,0-.49-.11-.86-.33-1.09-.22-.23-.47-.4-.73-.49-.46-.17-.99-.33-1.59-.48-.61-.15-1.35-.35-2.24-.59-.55-.14-1.01-.33-1.38-.57-.37-.23-.66-.5-.87-.78-.22-.29-.37-.59-.46-.92-.09-.32-.13-.65-.13-.99,0-.65,.13-1.21,.4-1.68,.27-.47,.63-.87,1.07-1.18,.44-.31,.95-.54,1.51-.69,.56-.15,1.13-.23,1.71-.23,.67,0,1.3,.09,1.9,.26,.59,.17,1.12,.44,1.57,.78,.45,.35,.81,.78,1.07,1.29,.26,.51,.4,1.1,.4,1.77h-2.25c-.06-.83-.34-1.41-.85-1.75s-1.15-.51-1.93-.51c-.26,0-.53,.03-.81,.08-.28,.05-.53,.14-.76,.27-.23,.13-.42,.3-.57,.51-.15,.22-.23,.49-.23,.81,0,.46,.14,.81,.42,1.07,.28,.26,.65,.45,1.11,.58,.05,.01,.24,.06,.57,.15,.33,.09,.7,.19,1.11,.3s.81,.21,1.2,.31c.39,.1,.67,.18,.84,.23,.42,.13,.79,.31,1.1,.54,.31,.23,.57,.49,.78,.78s.37,.61,.47,.95c.1,.34,.15,.67,.15,1.01,0,.72-.15,1.33-.44,1.84-.29,.51-.68,.93-1.16,1.25-.48,.32-1.03,.56-1.64,.71-.61,.15-1.24,.22-1.87,.22-.73,0-1.42-.09-2.07-.27-.65-.18-1.21-.46-1.69-.83-.48-.37-.86-.85-1.15-1.43s-.44-1.27-.45-2.06h2.25Z"/>
    <path class="cls-2" d="M172.02,24.17h9.25v1.94h-7v3.37h6.48v1.84h-6.48v3.76h7.13v1.94h-9.38v-12.85Z"/>
    <path class="cls-2" d="M184.83,32.74c0,.49,.08,.91,.25,1.26,.17,.35,.4,.63,.7,.86,.3,.22,.64,.38,1.03,.49,.39,.1,.81,.15,1.27,.15,.49,0,.91-.06,1.26-.17,.35-.11,.63-.26,.85-.44,.22-.18,.37-.39,.47-.62,.1-.23,.14-.47,.14-.71,0-.49-.11-.86-.33-1.09-.22-.23-.47-.4-.73-.49-.46-.17-.99-.33-1.59-.48-.61-.15-1.35-.35-2.24-.59-.55-.14-1.01-.33-1.38-.57-.37-.23-.66-.5-.87-.78-.22-.29-.37-.59-.46-.92-.09-.32-.13-.65-.13-.99,0-.65,.13-1.21,.4-1.68,.27-.47,.63-.87,1.07-1.18,.44-.31,.95-.54,1.51-.69,.56-.15,1.13-.23,1.71-.23,.67,0,1.3,.09,1.9,.26,.59,.17,1.12,.44,1.57,.78,.45,.35,.81,.78,1.07,1.29,.26,.51,.4,1.1,.4,1.77h-2.25c-.06-.83-.34-1.41-.85-1.75s-1.15-.51-1.93-.51c-.26,0-.53,.03-.81,.08-.28,.05-.53,.14-.76,.27-.23,.13-.42,.3-.57,.51-.15,.22-.23,.49-.23,.81,0,.46,.14,.81,.42,1.07,.28,.26,.65,.45,1.11,.58,.05,.01,.24,.06,.57,.15,.33,.09,.7,.19,1.11,.3s.81,.21,1.2,.31c.39,.1,.67,.18,.84,.23,.42,.13,.79,.31,1.1,.54,.31,.23,.57,.49,.78,.78s.37,.61,.47,.95c.1,.34,.15,.67,.15,1.01,0,.72-.15,1.33-.44,1.84-.29,.51-.68,.93-1.16,1.25-.48,.32-1.03,.56-1.64,.71-.61,.15-1.24,.22-1.87,.22-.73,0-1.42-.09-2.07-.27-.65-.18-1.21-.46-1.69-.83-.48-.37-.86-.85-1.15-1.43s-.44-1.27-.45-2.06h2.25Z"/>
  </g>
</svg>