<?xml version="1.0" encoding="UTF-8"?>
<svg id="Calque_1" data-name="Calque 1" xmlns="http://www.w3.org/2000/svg" viewBox="0 0 441.36 442.13">
  <defs>
    <style>
      .cls-1 {
        fill: #030007;
      }
    </style>
  </defs>
  <g id="Groupe_10" data-name="Groupe 10">
    <path id="Tracé_81" data-name="Tracé 81" class="cls-1" d="M420.42,283.24l1.56-8.33c6.79-1.75,11.86-7.43,12.82-14.38,1.44-11.69-6.86-22.33-18.55-23.77-10.68-1.32-20.66,5.53-23.29,15.96-2.28,9.84,3.84,19.66,13.68,21.94,.04,0,.07,.02,.11,.02l3.97-21.26,5.66,1.06-5.36,28.68-5.37-.98c-13.42-3.59-21.73-17-18.98-30.62,3.3-14.92,18.07-24.34,32.99-21.04,14.23,3.15,23.57,16.78,21.38,31.19-1.56,10.85-9.85,19.51-20.62,21.54h0Z"/>
    <path id="Tracé_82" data-name="Tracé 82" class="cls-1" d="M419.19,322.92c-5.8,11.37-14.86,13.55-22.76,9.52-6.96-3.29-10.38-11.24-8-18.56l-26.42,1.8,3.85-7.55,25.62-1.43,3.89-7.62-19.75-10.08,3.22-6.31,48.3,24.65-7.95,15.58h0Zm-5.2-2.65l4.75-9.3-18.29-9.34-4.75,9.3c-3.64,7.14-1.35,12.23,4.05,14.99,5.4,2.76,10.56,1.55,14.25-5.65h0Z"/>
    <path id="Tracé_83" data-name="Tracé 83" class="cls-1" d="M344.76,352.72l16.25-17.18-5.75-11.44,5.14-5.43,25.67,51.27-5.63,5.92-52.59-22.86,5.13-5.42,11.79,5.15h-.01Zm32.2,14.17l-13.16-25.94-13.47,14.24,26.63,11.7Z"/>
    <path id="Tracé_84" data-name="Tracé 84" class="cls-1" d="M319.93,383.93l8.93-5.38-11.69-19.39,6.05-3.63,28,46.43-14.99,9.04c-10.93,6.59-19.67,3.69-24.25-3.91-4.25-7.07-3.58-16.22,7.96-23.16h0Zm3.01,5c-6.93,4.18-7.89,9.21-4.76,14.41,3.25,5.39,8.12,6.8,15.04,2.65l8.93-5.38-10.28-17.06-8.93,5.38Z"/>
    <path id="Tracé_85" data-name="Tracé 85" class="cls-1" d="M260.44,409.48l26.61-7.38-6.58-23.69,6.82-1.89,14.5,52.25-6.82,1.89-6.36-22.94-26.61,7.38,6.36,22.94-6.82,1.89-14.5-52.25,6.82-1.89,6.57,23.69h.01Z"/>
    <path id="Tracé_86" data-name="Tracé 86" class="cls-1" d="M241.33,441.63l-7.06,.5-3.8-54.08,7.06-.5,3.8,54.08Z"/>
    <path id="Tracé_87" data-name="Tracé 87" class="cls-1" d="M203.68,386.64c10.83,1.19,17.82,8.07,17,16.98l-7.5-.82c.08-5.55-4.34-10.11-9.89-10.19h-.26c-5.08-1.33-10.28,1.72-11.61,6.8-.08,.32-.15,.65-.2,.98-1.6,14.54,28.58,8.46,26.38,28.5-.99,8.89-8.84,14.14-19.51,12.97-10.3-1.11-16.4-7.52-16.34-15.81l7.73,.85c.44,4.98,4.56,8.84,9.56,8.95,4.75,1.35,9.69-1.41,11.04-6.16,.13-.45,.22-.9,.28-1.37,1.53-13.92-28.5-8.45-26.31-28.41,.86-7.66,7.96-14.55,19.64-13.26h-.01Z"/>
    <path id="Tracé_88" data-name="Tracé 88" class="cls-1" d="M163,435.16l-34.46-12.7,1.99-5.4,13.88,5.12,16.78-45.47,6.64,2.45-16.78,45.48,13.94,5.14-1.99,5.39h0Z"/>
    <path id="Tracé_89" data-name="Tracé 89" class="cls-1" d="M91.44,393.19l18.49,12.06,9.9-15.19-16.56-10.79,3.19-4.89,16.56,10.81,10.18-15.65-18.49-12.06,3.21-4.87,24.44,15.93-29.66,45.5-24.44-15.93,3.17-4.92h0Z"/>
    <path id="Tracé_90" data-name="Tracé 90" class="cls-1" d="M55.22,367.16l-18.75-24.27,4.55-3.52,14.43,18.65,14.46-11.18-11.71-15.14,4.55-3.52,11.71,15.14,19.32-14.95,4.33,5.6-42.91,33.21,.02-.02Z"/>
    <path id="Tracé_91" data-name="Tracé 91" class="cls-1" d="M19.81,311.09c-5.19-11.65-1.2-20.08,6.92-23.71,6.94-3.34,15.29-1,19.47,5.46l15.21-21.69,3.45,7.75-15,20.82,3.48,7.82,20.25-9.02,2.88,6.47-49.53,22.07-7.15-15.97h.02Zm5.33-2.37l4.24,9.52,18.76-8.36-4.24-9.52c-1.41-5.31-6.86-8.48-12.17-7.08-.7,.19-1.38,.45-2.03,.78-5.62,2.52-7.85,7.26-4.56,14.66h0Z"/>
    <path id="Tracé_92" data-name="Tracé 92" class="cls-1" d="M6.98,244.01l3.94,21.74,17.84-3.23-3.52-19.45,5.74-1.04,3.52,19.45,18.37-3.32-3.94-21.74,5.74-1.04,5.2,28.71-53.44,9.68-5.2-28.71s5.75-1.05,5.75-1.05Z"/>
    <path id="Tracé_93" data-name="Tracé 93" class="cls-1" d="M7.03,196.34l-.91,22.08,18.11,.75,.81-19.74,5.83,.24-.82,19.75,18.66,.77,.91-22.08,5.83,.24-1.2,29.15L0,225.25l1.2-29.15,5.83,.24h0Z"/>
    <path id="Tracé_94" data-name="Tracé 94" class="cls-1" d="M6.16,170.39l47.02,11.77,4.61-18.42,5.59,1.4-6.32,25.27-52.61-13.17,1.71-6.86h0Z"/>
    <path id="Tracé_95" data-name="Tracé 95" class="cls-1" d="M68.47,126.82l-10.75,21.06,8.76,9.36-3.39,6.65L23.98,121.92l3.71-7.28,56.89,7.11-3.39,6.65-12.72-1.59h0Zm-34.89-4.52l19.94,21.17,8.91-17.46s-28.85-3.71-28.85-3.71Z"/>
    <path id="Tracé_96" data-name="Tracé 96" class="cls-1" d="M79.25,49.52l38.68,38.13-4.97,5.04-50.75-10.03,30.75,30.31-4.97,5.04-38.68-38.13,4.97-5.04,50.71,9.99-30.7-30.26,4.95-5.05h.01Z"/>
    <path id="Tracé_97" data-name="Tracé 97" class="cls-1" d="M120.87,22.49c9.57-5.54,21.63-4.28,29.85,3.12l-7.55,3.87c-5.54-4.52-13.31-5.1-19.46-1.46-10.12,6.3-13.21,19.61-6.91,29.73,5.58,8.96,16.81,12.57,26.56,8.53,6.52-2.87,10.58-9.48,10.19-16.6l7.54-3.87c1.16,10.96-4.86,21.43-14.92,25.94-13.76,6.68-30.33,.94-37.01-12.83-6.46-13.32-1.31-29.37,11.7-36.43h.01Z"/>
    <path id="Tracé_98" data-name="Tracé 98" class="cls-1" d="M194.47,5.72l-21.63,4.4,3.6,17.76,19.36-3.93,1.16,5.72-19.37,3.92,3.71,18.3,21.63-4.4,1.16,5.72-28.59,5.79-10.78-53.22L193.31,0l1.16,5.72Z"/>
  </g>
</svg>