<svg xmlns="http://www.w3.org/2000/svg" width="187.768" height="148.75" viewBox="0 0 187.768 148.75">
  <path id="Tracé_52" data-name="Tracé 52" d="M89.644,9.323C65.827,7.1,41.191,14.09,22.606,28.347c-8.615,6.608-16.072,14.9-19.93,24.729S-1.1,74.406,4.446,83.492C10.71,93.756,22.819,99.6,34.884,102.815c11.853,3.161,24.208,4.333,36.517,4.736,12.825.422,25.786.012,38.259-2.843s24.5-8.281,33.577-16.854a38.373,38.373,0,0,0,8.788-11.79,34.329,34.329,0,0,0,1.948-21.009C151,40.466,140.366,27.905,127.1,19.938S98.146,8.234,82.5,6.853c-18.344-1.619-37.616.039-53.637,8.641S.807,40.684,2.039,58.064C2.783,68.546,8.208,78.452,15.927,86.01s17.612,12.907,28.006,16.626c18.224,6.522,38.021,8.222,57.5,7.866,12.071-.219,24.352-1.255,35.511-5.613s21.167-12.468,25.08-23.265c5.433-14.988-2.075-32.045-14.348-42.834S119.2,22.271,103.251,17.4C74.3,8.563,44.468,1.669,14.089.077,11.241-.071,8.225-.139,5.728,1.163" transform="translate(27.869 0.939) rotate(14)" fill="none" stroke="#030007" stroke-linecap="round" stroke-miterlimit="10" stroke-width="1.5"/>
</svg>
