<svg xmlns="http://www.w3.org/2000/svg" width="159" height="151.109" viewBox="0 0 159 151.109">
  <g id="Groupe_35" data-name="Groupe 35" transform="translate(-402 -449)">
    <path id="Tracé_103" data-name="Tracé 103" d="M373.225,143.88A22.494,22.494,0,0,0,353.754,121.6a22.491,22.491,0,1,0-32.39-31.192,22.491,22.491,0,0,0-44.97-.722A22.5,22.5,0,1,0,244.66,121.6a22.489,22.489,0,0,0,.513,44.634,22.478,22.478,0,0,0,31.92,31.041,22.478,22.478,0,0,0,44.913.512,22.478,22.478,0,0,0,31.236-31.553A22.5,22.5,0,0,0,373.225,143.88Z" transform="translate(177.811 381.052)" fill="#f59ec1"/>
    <text id="bran" transform="translate(402 490)" fill="#f5f5f5" font-size="40" font-family="SegoeUI, Segoe UI"><tspan x="0" y="43">bran</tspan></text>
    <text id="ding" transform="translate(455 528)" fill="#f5f5f5" font-size="40" font-family="SegoeUI, Segoe UI"><tspan x="0" y="43">ding</tspan></text>
  </g>
</svg>
