<?xml version="1.0" encoding="UTF-8"?>
<svg id="Calque_1" data-name="Calque 1" xmlns="http://www.w3.org/2000/svg" viewBox="0 0 230.5 205.25">
  <defs>
    <style>
      .cls-1 {
        fill: none;
        stroke: #030007;
        stroke-linecap: round;
        stroke-miterlimit: 10;
        stroke-width: 1.5px;
      }

      .cls-2 {
        fill: #f59ec1;
      }
    </style>
  </defs>
  <g>
    <path d="M115.63,41.38l1.11,.31-1.93,6.96c-.64,2.3,.31,3.56,2.03,4.04s3.16-.13,3.79-2.43l1.93-6.96,1.11,.31-1.93,6.95c-.81,2.93-2.94,3.73-5.19,3.11s-3.66-2.41-2.85-5.34l1.93-6.95Z"/>
    <path d="M130.92,52.21c.53-1.92-.24-3.19-1.82-3.63s-3.02,.25-3.6,2.36l-1.31,4.72-1.11-.31,2.4-8.64,1.11,.31-.41,1.47c.85-.92,2.11-1.17,3.4-.81,1.96,.54,3.18,2.18,2.48,4.71l-1.4,5.07-1.09-.3,1.37-4.94Z"/>
    <path d="M145.27,56.19c.53-1.92-.24-3.19-1.82-3.63s-3.02,.25-3.6,2.36l-1.31,4.72-1.11-.31,2.4-8.64,1.11,.31-.41,1.47c.85-.92,2.11-1.17,3.4-.81,1.96,.54,3.18,2.18,2.48,4.71l-1.4,5.07-1.09-.3,1.37-4.94Z"/>
    <path d="M151.2,63.29c-2.44-.68-3.82-2.9-3.06-5.64s3.13-3.92,5.55-3.25,3.85,2.89,3.09,5.65-3.15,3.92-5.59,3.24Zm.27-.97c1.63,.45,3.52-.22,4.18-2.59s-.59-3.91-2.23-4.37-3.49,.23-4.15,2.6,.55,3.9,2.2,4.36Z"/>
    <path d="M165.1,67.01l-1.11-.31,.42-1.52c-.83,.95-2.12,1.2-3.4,.85-1.96-.54-3.18-2.18-2.48-4.71l1.4-5.05,1.09,.3-1.36,4.92c-.53,1.92,.24,3.19,1.82,3.63s3.02-.25,3.6-2.36l1.3-4.7,1.11,.31-2.4,8.64Z"/>
    <path d="M170.19,59.11l.81,8.37,5.01-6.76,1.17,.32-5.86,7.68-1.25-.35-1.07-9.6,1.19,.33Z"/>
    <path d="M179.99,71.27c-2.45-.68-3.77-2.89-3.01-5.62s2.99-3.96,5.48-3.27,3.58,2.94,2.97,5.14c-.1,.35-.16,.57-.27,.86l-7.17-1.99c-.47,2.05,.65,3.5,2.26,3.95,1.47,.41,2.68-.09,3.32-1.16l1.17,.32c-.85,1.52-2.58,2.37-4.75,1.77Zm-1.75-5.79l6.08,1.69c.6-2-.57-3.41-2.17-3.86s-3.22,.2-3.91,2.17Z"/>
    <path d="M192.19,65.08c1.74,.48,2.67,1.75,2.86,2.97l.53-1.9,1.11,.31-2.4,8.64-1.11-.31,.53-1.92c-.81,.97-2.28,1.57-4,1.09-2.36-.65-3.63-2.9-2.88-5.61s2.99-3.94,5.36-3.29Zm-.06,1.02c-1.82-.5-3.56,.38-4.17,2.58s.42,3.88,2.24,4.39,3.58-.44,4.18-2.59-.47-3.88-2.25-4.37Z"/>
    <path d="M204.31,77.88l-1.11-.31,.42-1.52c-.83,.95-2.12,1.2-3.4,.85-1.96-.54-3.18-2.18-2.48-4.71l1.4-5.05,1.09,.3-1.36,4.92c-.53,1.92,.24,3.19,1.82,3.63s3.02-.25,3.6-2.36l1.3-4.7,1.11,.31-2.4,8.64Z"/>
    <path d="M131.23,68.77l.81,8.37,5.01-6.76,1.17,.32-5.86,7.68-1.25-.35-1.07-9.6,1.19,.33Z"/>
    <path d="M140.16,68.6c.13-.47,.59-.71,1.03-.58s.72,.56,.58,1.03-.59,.72-1.04,.6-.71-.57-.58-1.05Zm-.43,2.52l1.11,.31-2.4,8.64-1.11-.31,2.4-8.64Z"/>
    <path d="M143.9,81.72c-1.96-.54-3.07-1.91-2.77-3.53l1.14,.32c-.17,.98,.47,1.88,1.87,2.28,1.23,.34,2.12-.13,2.34-.95,.59-2.14-4.95-2.33-4.05-5.57,.36-1.28,1.87-2,3.69-1.5s2.8,1.83,2.43,3.52l-1.11-.31c.2-.98-.31-1.91-1.62-2.27-1.16-.32-2.05,.1-2.27,.85-.65,2.34,4.81,2.51,4.01,5.58-.39,1.39-1.89,2.08-3.68,1.59Z"/>
    <path d="M155.09,75.24c1.74,.48,2.67,1.75,2.86,2.97l.53-1.9,1.11,.31-2.4,8.64-1.11-.31,.53-1.92c-.81,.97-2.28,1.57-4,1.09-2.36-.65-3.63-2.9-2.88-5.61s2.99-3.94,5.36-3.29Zm-.06,1.02c-1.82-.5-3.56,.38-4.17,2.58s.42,3.88,2.24,4.39,3.58-.44,4.18-2.59-.47-3.88-2.25-4.37Z"/>
    <path d="M165.77,78.21c1.71,.47,2.67,1.73,2.86,2.96l.52-1.88,1.11,.31-2.46,8.86c-.67,2.42-2.78,3.56-5.15,2.9-2.23-.62-3.47-2.19-3.31-4.09l1.09,.3c.04,1.27,.91,2.38,2.49,2.82s3.23-.28,3.78-2.24l.59-2.14c-.81,.97-2.28,1.57-3.99,1.09-2.37-.66-3.64-2.9-2.89-5.61s2.99-3.94,5.36-3.29Zm-.06,1.02c-1.82-.5-3.56,.38-4.17,2.58s.42,3.88,2.24,4.39,3.58-.44,4.18-2.59-.47-3.88-2.25-4.37Z"/>
    <path d="M174.1,90.1c-2.45-.68-3.77-2.89-3.01-5.62s2.99-3.96,5.48-3.27,3.58,2.94,2.97,5.14c-.1,.35-.16,.57-.27,.86l-7.17-1.99c-.47,2.05,.65,3.5,2.26,3.95,1.47,.41,2.68-.09,3.32-1.16l1.17,.32c-.85,1.52-2.58,2.37-4.75,1.77Zm-1.75-5.79l6.08,1.69c.6-2-.57-3.41-2.17-3.86s-3.22,.2-3.91,2.17Z"/>
  </g>
  <g>
    <path class="cls-2" d="M47.15,132.78c0,1.04,.64,3.08,3,3.08s2.76-2.32,2.76-3.16v-5.4c-1.36,1.04-5.76,2.2-5.76,5.48Z"/>
    <path class="cls-2" d="M128.29,162.21c0-3.48-.92-5.56-2.96-5.56s-3,2.08-3,5.56,.92,5.56,3,5.56,2.96-2.04,2.96-5.56Z"/>
    <path class="cls-2" d="M119.49,169.24c0,2.17,7.09,1.54,11.9,3.16,.46-1.46,.75-2.96,.9-4.47-1.7,1.38-4.09,2.23-6.95,2.23-2.24,0-4.16-.48-5.72-1.36-.08,.16-.12,.32-.12,.44Z"/>
    <path class="cls-2" d="M61.57,157.05c-2.92,0-4.08,3.56-4.08,7.84s1.16,7.68,4.08,7.68c2.4,0,3.44-2.12,3.44-3.96v-7.44c0-1.84-1.04-4.12-3.44-4.12Z"/>
    <path class="cls-2" d="M13.23,135.74c2.92,0,4.08-3.4,4.08-7.68s-1.16-7.88-4.08-7.88c-2.4,0-3.44,2.28-3.44,4.12v7.48c0,1.84,1.04,3.96,3.44,3.96Z"/>
    <path class="cls-2" d="M128.56,107.79c8.84-8.72,8.94-22.96,.22-31.81s-22.96-8.94-31.81-.22c-.27,.27-.54,.55-.8,.83,0-12.42-10.08-22.49-22.5-22.48-12.13,0-22.07,9.63-22.47,21.76-8.81-8.76-23.06-8.72-31.82,.09-8.76,8.81-8.72,23.06,.09,31.82-3.6,.49-6.87,1.8-9.68,3.73v7.59c.96-.8,2.4-1.68,4.8-1.68,6.28,0,9.72,5,9.72,10.64s-3.44,10.64-9.72,10.64c-2.64,0-4.12-1.04-5.08-1.92-.4,.72-1.24,1.28-2.52,1.28H2.99c-.92,0-1.4-.36-1.4-.92,0-.88,1.4-1.44,1.4-3.84v-14.42c-2.39,4.16-3.48,9.1-2.79,14.22,1.38,10.21,9.53,18.18,19.78,19.33-7.34,10.01-5.18,24.08,4.83,31.42,8.1,5.94,19.16,5.79,27.09-.38,.38,12.41,10.75,22.16,23.16,21.77,11.67-.36,21.13-9.6,21.75-21.26,8.28,5.95,19.24,5.44,26.9-.51-5.08-.38-7.95-2.63-7.95-5.62,0-1.68,1.36-3.04,3.04-3.04s3,1.36,3,3.04c0,1.84,.52,3.28,3.44,3.28,.41,0,.8-.05,1.16-.15,.62-.68,1.23-1.38,1.78-2.15,.18-.25,.33-.5,.5-.75-.08-5.37-12.87-2.93-12.87-8.07,0-1.08,.88-1.84,2.04-2.48-1.48-1.4-2.32-3.28-2.32-5.32,0-4.4,3.84-7.96,9.8-7.96,1.12,0,2.16,.12,3.08,.36,.39,.08,.75,.1,1.09,.08-.44-.77-.91-1.53-1.44-2.26,11.38-1.28,19.98-10.9,19.98-22.35,0-11.25-8.32-20.77-19.47-22.28Zm-63.85,13.35c0-.56,.48-.92,1.4-.92,2.76,0,4.6-2.8,5.88-2.8,.56,0,.92,.48,.92,1.4v.32c1.12-.84,3.04-1.72,5.12-1.72,5.08,0,7.2,3,7.2,6.8v9.08c0,2.4,1.4,2.96,1.4,3.84,0,.56-.48,.92-1.4,.92h-6.8c-.92,0-1.4-.36-1.4-.92,0-.88,1.4-1.44,1.4-3.84v-9.08c0-1.84-.76-3.96-2.76-3.96s-2.76,2.12-2.76,3.96v9.08c0,2.4,1.4,2.96,1.4,3.84,0,.56-.48,.92-1.4,.92h-6.8c-.92,0-1.4-.36-1.4-.92,0-.88,1.4-1.44,1.4-3.84v-8.32c0-2.4-1.4-2.96-1.4-3.84Zm-24.56,11.64c0-7.4,12.76-6.36,12.76-8.52v-1.16c0-1.76-.44-3-1.76-3-.88,0-1.6,.64-1.6,2.36s-1.36,3.04-3.04,3.04-3-1.36-3-3.04c0-1.84-1.2-2.64-3-2.64-2.44,0-4.8,1.84-4.8,4.4v9.08c0,2.4,1.4,2.96,1.4,3.84,0,.56-.48,.92-1.4,.92h-6.8c-.92,0-1.4-.36-1.4-.92,0-.88,1.4-1.44,1.4-3.84v-8.32c0-2.4-1.4-2.96-1.4-3.84,0-.56,.48-.92,1.4-.92,2.76,0,4.6-2.8,5.88-2.8,.56,0,.92,.48,.92,1.4v.32c1.04-.72,3.08-1.72,6.16-1.72s4.32,.64,5.92,.64,2.04-.64,4.56-.64c4.76,0,7.36,3.2,7.36,6.8v9.08c0,2.4,1.4,2.96,1.4,3.84,0,.56-.48,.92-1.4,.92h-4c-1.28,0-2.12-.56-2.52-1.32-1,.92-3,1.96-5.92,1.96-4.96,0-7.12-2.8-7.12-5.92Zm33.57,15.79c-.64,0-1.92,.4-1.92,3.24v18.32c0,2.4,1.4,2.96,1.4,3.84,0,.56-.48,.92-1.4,.92h-4c-1.28,0-2.12-.56-2.52-1.28-.96,.88-2.44,1.92-5.08,1.92-6.28,0-9.72-4.96-9.72-10.64s3.44-10.64,9.72-10.64c2.4,0,3.84,.88,4.8,1.68v-4.12c0-2.4-1.4-2.96-1.4-3.84,0-.56,.48-.92,1.4-.92,3.56,0,5.32-2.8,7.72-2.8,2.12,0,3.36,3.4,4.96,3.4,1.72,0,1.16-2.16,4.08-2.16,1.8,0,3.48,1.68,3.48,3.8s-1.68,3.56-3.76,3.56c-3.92,0-5.12-4.28-7.76-4.28Zm11.68,26.32h-6.8c-.92,0-1.4-.36-1.4-.92,0-.88,1.4-1.44,1.4-3.84v-8.32c0-2.4-1.4-2.96-1.4-3.84,0-.56,.48-.92,1.4-.92,2.76,0,4.6-2.8,5.88-2.8,.56,0,.92,.48,.92,1.4v14.48c0,2.4,1.4,2.96,1.4,3.84,0,.56-.48,.92-1.4,.92Zm25.92,0h-6.8c-.92,0-1.4-.36-1.4-.92,0-.88,1.4-1.44,1.4-3.84v-9.08c0-1.84-.76-3.96-2.76-3.96s-2.76,2.12-2.76,3.96v9.08c0,2.4,1.4,2.96,1.4,3.84,0,.56-.48,.92-1.4,.92h-6.8c-.92,0-1.4-.36-1.4-.92,0-.88,1.4-1.44,1.4-3.84v-8.32c0-2.4-1.4-2.96-1.4-3.84,0-.56,.48-.92,1.4-.92,2.76,0,4.6-2.8,5.88-2.8,.56,0,.92,.48,.92,1.4v.32c1.12-.84,3.04-1.72,5.12-1.72,5.08,0,7.2,3,7.2,6.8v9.08c0,2.4,1.4,2.96,1.4,3.84,0,.56-.48,.92-1.4,.92Z"/>
  </g>
  <path id="Tracé_105" data-name="Tracé 105" class="cls-1" d="M177.44,26.41c-20.46-7.13-42.84-6.41-62.79,2.03-8.98,3.9-17.31,9.52-22.83,17.29s-7.95,17.84-5.09,26.99c3.24,10.35,12.56,18.1,22.41,23.54,9.68,5.35,20.23,9.07,30.91,12.11,11.13,3.17,22.55,5.63,34.09,5.86s23.24-1.9,33.05-7.42c3.93-2.11,7.41-4.96,10.26-8.4,3.93-5.18,6.13-11.46,6.29-17.95,.58-13.41-5.98-26.72-15.85-36.58-9.87-9.86-22.77-16.55-36.16-21.18-15.69-5.42-32.91-8.17-48.8-4.14-15.89,4.03-30.03,15.92-32.75,31.39-1.64,9.33,.95,19.18,6.05,27.48,5.1,8.3,12.59,15.13,20.87,20.65,14.52,9.68,31.47,15.49,48.59,19.42,10.61,2.44,21.58,4.21,32.29,2.84,10.71-1.38,21.24-6.29,27.01-14.88,8.02-11.93,5.17-28.48-3.21-40.6s-21.31-20.66-34.2-28.4C164.18,22.4,139.59,9.86,113.36,1.84c-2.46-.75-5.08-1.47-7.55-.87"/>
</svg>