<?xml version="1.0" encoding="UTF-8"?>
<svg id="Calque_1" data-name="Calque 1" xmlns="http://www.w3.org/2000/svg" viewBox="0 0 212.96 183.06">
  <defs>
    <style>
      .cls-1 {
        fill: #030007;
      }

      .cls-2 {
        fill: #0b5abd;
      }

      .cls-3 {
        fill: none;
        stroke: #000;
        stroke-linecap: round;
        stroke-linejoin: round;
        stroke-width: 1.5px;
      }
    </style>
  </defs>
  <g id="Groupe_18" data-name="Groupe 18">
    <path id="Tracé_119" data-name="Tracé 119" class="cls-3" d="M123.16,8.34c13.18-2.24,26.7-1.54,39.58,2.06,3.25,.91,6.54,2.06,9.1,4.26s4.27,5.68,3.53,8.97c-.92,4.09-5.11,6.54-9.09,7.88-2.04,.81-4.25,1.12-6.43,.9-2.22-.26-4.11-1.74-4.89-3.84-.9-3.06,1.57-6.07,4.17-7.91,7.34-5.21,16.77-6.41,25.78-6.54,5.92-.09,12.13,.29,17.23,3.3,7.06,4.17,10.63,12.91,10.01,21.09s-4.89,15.73-10.44,21.77-4.81,5.09-11.56,9.75"/>
    <path id="Tracé_120" data-name="Tracé 120" class="cls-3" d="M185.96,66.38l3.92,3.96,3.92,3.96-5.39,1.41-5.39,1.41,1.47-5.37,1.47-5.37Z"/>
  </g>
  <g>
    <path class="cls-2" d="M91.74,149.03c0,1.04,.64,3.08,3,3.08s2.76-2.32,2.76-3.16v-5.4c-1.36,1.04-5.76,2.2-5.76,5.48Z"/>
    <path class="cls-2" d="M116.97,101.03c0,1.04,.64,3.08,3,3.08s2.76-2.32,2.76-3.16v-5.4c-1.36,1.04-5.76,2.2-5.76,5.48Z"/>
    <path class="cls-2" d="M76.37,91.35c0-1.84-.76-3.28-2.64-3.28s-2.64,1.44-2.64,3.28c0,.07-.02,.14-.02,.21,.49,.88,1.05,1.73,1.68,2.55,2.04-.47,3.62-.84,3.62-1.6v-1.16Z"/>
    <path class="cls-2" d="M189.2,115.99c0-10.04-7.42-18.53-17.37-19.88,7.88-7.79,7.95-20.5,.16-28.38-7.79-7.88-20.5-7.95-28.38-.16-.23,.23-.46,.47-.68,.71-.01-11.08-9-20.06-20.09-20.05-10.82,.01-19.68,8.59-20.04,19.4-7.86-7.82-20.58-7.78-28.39,.08-5.07,5.1-6.82,12.24-5.29,18.76,1.35-.51,2.99-.8,4.85-.8,5.84,0,9.2,3,9.2,6.8v9.08c0,2.4,1.4,2.96,1.4,3.84,0,.56-.48,.92-1.4,.92h-4c-1.28,0-2.12-.56-2.52-1.32-1,.92-3,1.96-5.92,1.96-4.86,0-7.03-2.69-7.11-5.73-4.67,4.29-7.24,10.71-6.32,17.47,.98,7.24,5.78,13.21,12.3,15.87,1.27-.56,2.7-.88,4.26-.88,5.24,0,8.68,2.4,8.68,5.68,0,1.68-1.36,3.04-3.04,3.04s-3-1.36-3-3.04c0-1.5-.54-2.72-1.74-3.13-2.34,3.3-3.55,7.07-3.68,10.85,1.09,2.4,3.04,3.88,5.42,3.88,1.56,0,2.72-.88,3.72-1.88,.28-.28,.52-.44,.84-.44,.4,0,.68,.32,.68,.96,0,1.56-2.36,5.36-7.88,5.36-.52,0-1.02-.05-1.51-.11,1.32,3.53,3.64,6.74,6.9,9.13,7.23,5.31,17.1,5.17,24.18-.34,.35,11.07,9.6,19.77,20.67,19.42,10.41-.32,18.84-8.56,19.4-18.96,9,6.46,21.53,4.4,27.99-4.6,5.06-7.05,5.01-16.56-.12-23.56,10.15-1.14,17.83-9.73,17.83-19.95Zm-84.91,38.32h-4c-1.28,0-2.12-.56-2.52-1.32-1,.92-3,1.96-5.92,1.96-4.96,0-7.12-2.8-7.12-5.92,0-7.4,12.76-6.36,12.76-8.52v-1.16c0-1.84-.76-3.28-2.64-3.28s-2.64,1.44-2.64,3.28c0,1.68-1.36,3.04-3,3.04s-3.04-1.36-3.04-3.04c0-3.32,3.56-5.68,8.92-5.68,5.84,0,9.2,3,9.2,6.8v9.08c0,2.4,1.4,2.96,1.4,3.84,0,.56-.48,.92-1.4,.92Zm1.08-48h-6.8c-.92,0-1.4-.36-1.4-.92,0-.88,1.4-1.44,1.4-3.84v-18.32c0-2.4-1.4-2.96-1.4-3.84,0-.56,.48-.92,1.4-.92,2.76,0,4.6-2.8,5.88-2.8,.56,0,.92,.48,.92,1.4v24.48c0,2.4,1.4,2.96,1.4,3.84,0,.56-.48,.92-1.4,.92Zm21.56,36.08c-1.64,0-3-1.36-3-3.04,0-1.84-1-3.28-3.04-3.28-2.2,0-3.4,1.84-3.4,4.4v9.08c0,2.4,1.4,2.96,1.4,3.84,0,.56-.48,.92-1.4,.92h-6.8c-.92,0-1.4-.36-1.4-.92,0-.88,1.4-1.44,1.4-3.84v-8.32c0-2.4-1.4-2.96-1.4-3.84,0-.56,.48-.92,1.4-.92,2.76,0,4.6-2.8,5.88-2.8,.56,0,.92,.48,.92,1.4v.32c.92-.76,2.64-1.72,5.24-1.72,4.2,0,7.24,2.4,7.24,5.68,0,1.68-1.36,3.04-3.04,3.04Zm2.6-36.08h-4c-1.28,0-2.12-.56-2.52-1.32-1,.92-3,1.96-5.92,1.96-4.96,0-7.12-2.8-7.12-5.92,0-7.4,12.76-6.36,12.76-8.52v-1.16c0-1.84-.76-3.28-2.64-3.28s-2.64,1.44-2.64,3.28c0,1.68-1.36,3.04-3,3.04s-3.04-1.36-3.04-3.04c0-3.32,3.56-5.68,8.92-5.68,5.84,0,9.2,3,9.2,6.8v9.08c0,2.4,1.4,2.96,1.4,3.84,0,.56-.48,.92-1.4,.92Zm11.68,48.64c-5.24,0-7.72-3.8-7.72-8.28v-7.6c0-2.4-1.72-2.44-1.72-3.68,0-.84,.76-1.04,1.72-1.24,3.28-.64,4.04-5.2,5.88-5.2,.56,0,.92,.48,.92,1.4v3.96h2.68c1.16,0,1.72,.52,1.72,1.2s-.56,1.2-1.72,1.2h-2.68v7.68c0,5.44,.72,6.56,2.52,6.56,1.32,0,2.12-1.12,2.76-1.88,.24-.32,.52-.44,.84-.44,.4,0,.68,.32,.68,.96,0,1.56-1.24,5.36-5.88,5.36Zm17.32-18.88c-2.72,0-3.72,2.76-3.72,6.28,0,5.08,2.68,8.6,6.36,8.6,1.56,0,2.72-.88,3.72-1.88,.28-.28,.52-.44,.84-.44,.4,0,.68,.32,.68,.96,0,1.56-2.36,5.36-7.88,5.36-6.08,0-10.24-4.76-10.24-10.64s4.16-10.64,10.24-10.64c5.24,0,8.96,3.2,8.96,7.08,0,5.36-6.92,7.76-10,7.76-.48,0-.8-.12-.8-.44,0-1.2,4.48-3.08,4.48-8.72,0-1.84-.8-3.28-2.64-3.28Z"/>
    <path class="cls-2" d="M73.61,104.11c2.36,0,2.76-2.32,2.76-3.16v-5.4c-1.36,1.04-5.76,2.2-5.76,5.48,0,1.04,.64,3.08,3,3.08Z"/>
  </g>
  <g>
    <path class="cls-1" d="M4.08,38.47c1.81-.74,3.38-.82,4.71-.25,1.33,.57,2.42,1.83,3.27,3.79s1.03,3.62,.55,4.98c-.49,1.36-1.62,2.45-3.39,3.27l-4.08,1.77L0,40.24l4.08-1.77Zm4.15,11.07c.85-.37,1.54-.78,2.07-1.22s.91-.95,1.13-1.52c.22-.57,.29-1.21,.21-1.92-.09-.71-.32-1.5-.7-2.38s-.8-1.59-1.26-2.14c-.46-.55-.97-.93-1.54-1.15-.57-.22-1.2-.29-1.89-.21-.69,.08-1.46,.31-2.31,.68l-2.39,1.04,4.3,9.87,2.39-1.04Z"/>
    <path class="cls-1" d="M22.18,44.61l-.67-1.53h-.03c-.03,.71-.23,1.32-.63,1.85-.39,.53-.91,.93-1.54,1.21-.54,.23-1.03,.36-1.48,.38s-.84-.06-1.2-.23c-.36-.17-.68-.43-.96-.78-.28-.35-.53-.78-.75-1.28l-2.41-5.53,1.04-.45,2.41,5.54c.36,.76,.79,1.27,1.3,1.52,.51,.25,1.17,.2,2-.16,.45-.2,.79-.46,1.03-.79s.39-.7,.46-1.11c.07-.41,.07-.84-.02-1.3-.08-.45-.21-.9-.4-1.33l-1.95-4.47,1.04-.45,3.71,8.52-.96,.42Z"/>
    <path class="cls-1" d="M31.6,32.35c-.22-.18-.47-.31-.74-.37s-.55-.08-.85-.03c-.3,.04-.59,.13-.89,.26-.23,.1-.45,.23-.67,.38-.22,.15-.4,.33-.54,.53s-.24,.42-.28,.66c-.04,.24,0,.5,.12,.77,.1,.23,.24,.4,.43,.51s.39,.18,.61,.21c.22,.03,.46,.04,.7,.02,.24-.02,.46-.04,.65-.08l1.52-.29c.32-.09,.65-.13,.99-.15s.67,.03,.97,.12c.31,.09,.59,.24,.85,.45,.26,.21,.48,.51,.64,.88,.2,.46,.27,.9,.2,1.32-.07,.42-.22,.8-.46,1.14-.24,.35-.54,.65-.91,.92-.37,.26-.75,.48-1.15,.66-1,.44-1.92,.55-2.74,.35-.83-.2-1.51-.81-2.06-1.81l1.04-.45c.35,.69,.84,1.1,1.46,1.26,.62,.15,1.28,.08,1.97-.22,.25-.11,.5-.25,.75-.42,.25-.17,.46-.37,.63-.61,.17-.23,.29-.48,.35-.75,.06-.27,.03-.55-.1-.85-.11-.25-.25-.44-.43-.57-.18-.13-.38-.21-.61-.25s-.47-.05-.73-.03c-.26,.02-.52,.06-.77,.1l-1.47,.28c-.38,.06-.74,.1-1.07,.1s-.65-.02-.94-.1c-.29-.08-.55-.21-.78-.41-.23-.2-.42-.47-.58-.84-.19-.43-.25-.84-.19-1.23s.2-.75,.43-1.07c.23-.32,.51-.61,.85-.86,.34-.25,.7-.46,1.07-.62,.43-.19,.85-.3,1.27-.36,.42-.05,.82-.02,1.2,.09,.38,.11,.73,.3,1.04,.57,.31,.27,.58,.63,.8,1.08l-1.04,.45c-.15-.31-.34-.56-.56-.75Z"/>
    <path class="cls-1" d="M43.57,35.3l-.67-1.53h-.03c-.03,.71-.23,1.32-.63,1.85-.39,.53-.91,.93-1.54,1.21-.54,.23-1.03,.36-1.48,.38s-.84-.06-1.2-.23c-.36-.17-.68-.43-.96-.78-.28-.35-.53-.78-.75-1.28l-2.41-5.53,1.04-.45,2.41,5.54c.36,.76,.79,1.27,1.3,1.52,.51,.25,1.17,.2,2-.16,.45-.2,.79-.46,1.03-.79s.39-.7,.46-1.11c.07-.41,.07-.84-.02-1.3-.08-.45-.21-.9-.4-1.33l-1.95-4.47,1.04-.45,3.71,8.52-.96,.42Z"/>
    <path class="cls-1" d="M43.74,25.1l.87,2h.03c-.04-.82,.14-1.53,.53-2.15,.39-.62,.98-1.07,1.77-1.38l.45,1.04c-.48,.18-.88,.43-1.2,.75s-.56,.67-.72,1.07c-.16,.4-.24,.82-.22,1.27s.12,.9,.31,1.35l1.98,4.54-1.04,.45-3.71-8.52,.96-.42Z"/>
    <path class="cls-1" d="M53.52,20.84l.62,1.44,.05-.02c.04-.65,.23-1.22,.54-1.71,.32-.49,.82-.89,1.51-1.19,.56-.24,1.13-.33,1.71-.25,.58,.08,1.06,.36,1.46,.86,0-.67,.2-1.25,.58-1.74s.84-.86,1.4-1.1c1.88-.82,3.26-.23,4.12,1.76l2.51,5.78-1.04,.45-2.49-5.73c-.31-.7-.69-1.18-1.15-1.42-.46-.24-1.06-.2-1.81,.13-.45,.2-.79,.44-1.01,.74-.22,.3-.36,.63-.41,.99-.05,.36-.03,.74,.06,1.14,.09,.4,.22,.8,.39,1.19l2.1,4.82-1.04,.45-2.51-5.78c-.12-.29-.27-.54-.45-.78s-.37-.42-.59-.55c-.22-.13-.47-.2-.75-.21-.28,0-.58,.06-.91,.2-.44,.19-.79,.44-1.04,.74-.25,.3-.42,.64-.5,1.01-.08,.37-.09,.76-.02,1.19s.2,.86,.39,1.31l2.07,4.75-1.04,.45-3.71-8.52,.96-.42Z"/>
    <path class="cls-1" d="M69.56,20.64c.28,.36,.6,.64,.97,.86s.78,.36,1.22,.41c.44,.06,.91-.02,1.41-.24,.76-.33,1.27-.79,1.52-1.37,.26-.58,.32-1.24,.2-1.97l1.04-.45c.2,1.06,.12,1.99-.24,2.77-.36,.78-1.08,1.41-2.16,1.88-.67,.29-1.3,.43-1.9,.4-.59-.02-1.13-.17-1.62-.45-.49-.28-.92-.66-1.31-1.14s-.71-1.02-.97-1.63c-.24-.56-.41-1.14-.5-1.75s-.07-1.18,.06-1.74c.12-.56,.37-1.07,.75-1.54,.38-.47,.9-.85,1.57-1.15s1.33-.41,1.93-.35c.6,.06,1.15,.25,1.65,.57,.5,.31,.94,.73,1.32,1.25s.69,1.08,.93,1.69l-6.55,2.85c.16,.37,.38,.74,.66,1.1Zm3.77-5.42c-.28-.31-.6-.55-.96-.73-.35-.18-.73-.28-1.14-.31-.4-.03-.82,.05-1.23,.23s-.77,.44-1.03,.75c-.26,.31-.44,.66-.55,1.04-.11,.38-.15,.79-.13,1.21,.02,.43,.1,.84,.22,1.25l5.51-2.4c-.18-.39-.42-.74-.7-1.05Z"/>
    <path class="cls-1" d="M80.5,11.07c-.22-.18-.47-.31-.74-.37s-.55-.08-.85-.03c-.3,.04-.59,.13-.89,.26-.23,.1-.45,.23-.67,.38-.22,.15-.4,.33-.54,.53s-.24,.42-.28,.66c-.04,.24,0,.5,.12,.77,.1,.23,.24,.4,.43,.51s.39,.18,.61,.21c.22,.03,.46,.04,.7,.02,.24-.02,.46-.04,.65-.08l1.52-.29c.32-.09,.65-.13,.99-.15s.67,.03,.97,.12c.31,.09,.59,.24,.85,.45,.26,.21,.48,.51,.64,.88,.2,.46,.27,.9,.2,1.32-.07,.42-.22,.8-.46,1.14-.24,.35-.54,.65-.91,.92-.37,.26-.75,.48-1.15,.66-1,.44-1.92,.55-2.74,.35-.83-.2-1.51-.81-2.06-1.81l1.04-.45c.35,.69,.84,1.1,1.46,1.26,.62,.15,1.28,.08,1.97-.22,.25-.11,.5-.25,.75-.42,.25-.17,.46-.37,.63-.61,.17-.23,.29-.48,.35-.75,.06-.27,.03-.55-.1-.85-.11-.25-.25-.44-.43-.57-.18-.13-.38-.21-.61-.25s-.47-.05-.73-.03c-.26,.02-.52,.06-.77,.1l-1.47,.28c-.38,.06-.74,.1-1.07,.1s-.65-.02-.94-.1c-.29-.08-.55-.21-.78-.41-.23-.2-.42-.47-.58-.84-.19-.43-.25-.84-.19-1.23s.2-.75,.43-1.07c.23-.32,.51-.61,.85-.86,.34-.25,.7-.46,1.07-.62,.43-.19,.85-.3,1.27-.36,.42-.05,.82-.02,1.2,.09,.38,.11,.73,.3,1.04,.57,.31,.27,.58,.63,.8,1.08l-1.04,.45c-.15-.31-.34-.56-.56-.75Z"/>
    <path class="cls-1" d="M92.47,14.02l-.67-1.53h-.03c-.03,.71-.23,1.32-.63,1.85-.39,.53-.91,.93-1.54,1.21-.54,.23-1.03,.36-1.48,.38s-.84-.06-1.2-.23c-.36-.17-.68-.43-.96-.78-.28-.35-.53-.78-.75-1.28l-2.41-5.53,1.04-.45,2.41,5.54c.36,.76,.79,1.27,1.3,1.52,.51,.25,1.17,.2,2-.16,.45-.2,.79-.46,1.03-.79s.39-.7,.46-1.11c.07-.41,.07-.84-.02-1.3-.08-.45-.21-.9-.4-1.33l-1.95-4.47,1.04-.45,3.71,8.52-.96,.42Z"/>
    <path class="cls-1" d="M92.64,3.82l.87,2h.03c-.04-.82,.14-1.53,.53-2.15,.39-.62,.98-1.07,1.77-1.38l.45,1.04c-.48,.18-.88,.43-1.2,.75s-.56,.67-.72,1.07c-.16,.4-.24,.82-.22,1.27s.12,.9,.31,1.35l1.98,4.54-1.04,.45-3.71-8.52,.96-.42Z"/>
    <path class="cls-1" d="M99.83,7.47c.28,.36,.6,.64,.97,.86s.78,.36,1.22,.41c.44,.06,.91-.02,1.41-.24,.76-.33,1.27-.79,1.52-1.37,.26-.58,.32-1.24,.2-1.97l1.04-.45c.2,1.06,.12,1.99-.24,2.77-.36,.78-1.08,1.41-2.16,1.88-.67,.29-1.3,.43-1.9,.4-.59-.02-1.13-.17-1.62-.45-.49-.28-.92-.66-1.31-1.14s-.71-1.02-.97-1.63c-.24-.56-.41-1.14-.5-1.75s-.07-1.18,.06-1.74c.12-.56,.37-1.07,.75-1.54,.38-.47,.9-.85,1.57-1.15s1.33-.41,1.93-.35c.6,.06,1.15,.25,1.65,.57,.5,.31,.94,.73,1.32,1.25s.69,1.08,.93,1.69l-6.55,2.85c.16,.37,.38,.74,.66,1.1Zm3.77-5.42c-.28-.31-.6-.55-.96-.73-.35-.18-.73-.28-1.14-.31-.4-.03-.82,.05-1.23,.23s-.77,.44-1.03,.75c-.26,.31-.44,.66-.55,1.04-.11,.38-.15,.79-.13,1.21,.02,.43,.1,.84,.22,1.25l5.51-2.4c-.18-.39-.42-.74-.7-1.05Z"/>
    <path class="cls-1" d="M7.13,64.58l.7,1.62h.03c-.02-.71,.18-1.34,.58-1.91s.95-.99,1.64-1.3c.65-.28,1.27-.41,1.85-.37s1.13,.19,1.62,.46c.5,.27,.94,.65,1.33,1.13,.39,.48,.72,1.02,.98,1.62s.44,1.21,.52,1.83c.08,.61,.05,1.19-.08,1.74-.14,.55-.4,1.05-.77,1.5s-.89,.81-1.54,1.09c-.31,.13-.63,.23-.97,.29-.34,.06-.68,.07-1.01,.03s-.65-.13-.95-.27-.58-.34-.82-.6h-.03s2.07,4.77,2.07,4.77l-1.04,.45-5.07-11.65,.96-.42Zm6.98,.46c-.29-.39-.63-.71-1-.95-.37-.24-.78-.39-1.23-.46-.45-.06-.92,.02-1.41,.23-.57,.25-1.01,.56-1.31,.92s-.49,.76-.58,1.19c-.09,.43-.08,.89,.02,1.37,.1,.48,.25,.96,.46,1.45,.19,.44,.43,.85,.73,1.24,.29,.39,.63,.7,1.02,.94,.38,.24,.81,.38,1.29,.43,.47,.05,.98-.05,1.53-.28,.5-.22,.87-.51,1.13-.88,.26-.37,.43-.77,.5-1.21,.08-.44,.07-.9-.01-1.38-.08-.48-.22-.94-.41-1.38s-.43-.85-.73-1.24Z"/>
    <path class="cls-1" d="M21.02,58.68c.61,.02,1.17,.17,1.69,.42,.52,.26,.98,.62,1.4,1.09,.41,.47,.75,1.01,1.02,1.63s.43,1.23,.49,1.86c.06,.62,0,1.21-.15,1.77-.16,.56-.44,1.06-.84,1.51-.4,.45-.92,.82-1.57,1.11s-1.28,.41-1.88,.4c-.6-.02-1.17-.16-1.68-.42-.52-.26-.98-.62-1.4-1.09-.41-.47-.75-1.01-1.02-1.63s-.43-1.23-.49-1.86c-.06-.62,0-1.21,.15-1.76,.16-.55,.44-1.06,.84-1.52,.39-.46,.92-.83,1.57-1.11s1.28-.41,1.88-.39Zm-2.67,2.14c-.28,.37-.47,.78-.57,1.23s-.12,.92-.05,1.41c.06,.49,.19,.96,.39,1.41s.45,.87,.77,1.25c.32,.38,.67,.69,1.07,.92s.83,.37,1.29,.42c.47,.05,.95-.04,1.44-.25s.88-.51,1.17-.88c.28-.37,.47-.78,.57-1.23s.12-.92,.06-1.41c-.06-.49-.19-.96-.39-1.41s-.45-.87-.77-1.25c-.32-.38-.67-.69-1.07-.92s-.83-.37-1.29-.42c-.47-.05-.95,.04-1.44,.25s-.88,.51-1.17,.88Z"/>
    <path class="cls-1" d="M34.47,62.82l-.67-1.53h-.03c-.03,.71-.23,1.32-.63,1.85-.39,.53-.91,.93-1.54,1.21-.54,.23-1.03,.36-1.48,.38s-.84-.06-1.2-.23c-.36-.17-.68-.43-.96-.78-.28-.35-.53-.78-.75-1.28l-2.41-5.53,1.04-.45,2.41,5.54c.36,.76,.79,1.27,1.3,1.52,.51,.25,1.17,.2,2-.16,.45-.2,.79-.46,1.03-.79s.39-.7,.46-1.11c.07-.41,.07-.84-.02-1.3-.08-.45-.21-.9-.4-1.33l-1.95-4.47,1.04-.45,3.71,8.52-.96,.42Z"/>
    <path class="cls-1" d="M34.64,52.61l.87,2h.03c-.04-.82,.14-1.53,.53-2.15,.39-.62,.98-1.07,1.77-1.38l.45,1.04c-.48,.18-.88,.43-1.2,.75s-.56,.67-.72,1.07c-.16,.4-.24,.82-.22,1.27s.12,.9,.31,1.35l1.98,4.54-1.04,.45-3.71-8.52,.96-.42Z"/>
    <path class="cls-1" d="M43.67,48.68l5.93,6.31h.03s-.61-8.64-.61-8.64l1.07-.47,.52,9.9-1.11,.48-6.99-7.09,1.16-.5Z"/>
    <path class="cls-1" d="M56.48,43.24c.61,.02,1.17,.17,1.69,.42,.52,.26,.98,.62,1.4,1.09,.41,.47,.75,1.01,1.02,1.63s.43,1.23,.49,1.86c.06,.62,0,1.21-.15,1.77-.16,.56-.44,1.06-.84,1.51-.4,.45-.92,.82-1.57,1.11s-1.28,.41-1.88,.4c-.6-.02-1.17-.16-1.68-.42-.52-.26-.98-.62-1.4-1.09-.41-.47-.75-1.01-1.02-1.63s-.43-1.23-.49-1.86c-.06-.62,0-1.21,.15-1.76,.16-.55,.44-1.06,.84-1.52,.39-.46,.92-.83,1.57-1.11s1.28-.41,1.88-.39Zm-2.67,2.14c-.28,.37-.47,.78-.57,1.23s-.12,.92-.05,1.41c.06,.49,.19,.96,.39,1.41s.45,.87,.77,1.25c.32,.38,.67,.69,1.07,.92s.83,.37,1.29,.42c.47,.05,.95-.04,1.44-.25s.88-.51,1.17-.88c.28-.37,.47-.78,.57-1.23s.12-.92,.06-1.41c-.06-.49-.19-.96-.39-1.41s-.45-.87-.77-1.25c-.32-.38-.67-.69-1.07-.92s-.83-.37-1.29-.42c-.47-.05-.95,.04-1.44,.25s-.88,.51-1.17,.88Z"/>
    <path class="cls-1" d="M65.91,40.98c-.22-.18-.47-.31-.74-.37s-.55-.08-.85-.03c-.3,.04-.59,.13-.89,.26-.23,.1-.45,.23-.67,.38-.22,.15-.4,.33-.54,.53s-.24,.42-.28,.66c-.04,.24,0,.5,.12,.77,.1,.23,.24,.4,.43,.51s.39,.18,.61,.21c.22,.03,.46,.04,.7,.02,.24-.02,.46-.04,.65-.08l1.52-.29c.32-.09,.65-.13,.99-.15s.67,.03,.97,.12c.31,.09,.59,.24,.85,.45,.26,.21,.48,.51,.64,.88,.2,.46,.27,.9,.2,1.32-.07,.42-.22,.8-.46,1.14-.24,.35-.54,.65-.91,.92-.37,.26-.75,.48-1.15,.66-1,.44-1.92,.55-2.74,.35-.83-.2-1.51-.81-2.06-1.81l1.04-.45c.35,.69,.84,1.1,1.46,1.26,.62,.15,1.28,.08,1.97-.22,.25-.11,.5-.25,.75-.42,.25-.17,.46-.37,.63-.61,.17-.23,.29-.48,.35-.75,.06-.27,.03-.55-.1-.85-.11-.25-.25-.44-.43-.57-.18-.13-.38-.21-.61-.25s-.47-.05-.73-.03c-.26,.02-.52,.06-.77,.1l-1.47,.28c-.38,.06-.74,.1-1.07,.1s-.65-.02-.94-.1c-.29-.08-.55-.21-.78-.41-.23-.2-.42-.47-.58-.84-.19-.43-.25-.84-.19-1.23s.2-.75,.43-1.07c.23-.32,.51-.61,.85-.86,.34-.25,.7-.46,1.07-.62,.43-.19,.85-.3,1.27-.36,.42-.05,.82-.02,1.2,.09,.38,.11,.73,.3,1.04,.57,.31,.27,.58,.63,.8,1.08l-1.04,.45c-.15-.31-.34-.56-.56-.75Z"/>
    <path class="cls-1" d="M76.06,41.37c.28,.36,.6,.64,.97,.86s.78,.36,1.22,.41c.44,.06,.91-.02,1.41-.24,.76-.33,1.27-.79,1.52-1.37,.26-.58,.32-1.24,.2-1.97l1.04-.45c.2,1.06,.12,1.99-.24,2.77-.36,.78-1.08,1.41-2.16,1.88-.67,.29-1.3,.43-1.9,.4-.59-.02-1.13-.17-1.62-.45-.49-.28-.92-.66-1.31-1.14s-.71-1.02-.97-1.63c-.24-.56-.41-1.14-.5-1.75s-.07-1.18,.06-1.74c.12-.56,.37-1.07,.75-1.54,.38-.47,.9-.85,1.57-1.15s1.33-.41,1.93-.35c.6,.06,1.15,.25,1.65,.57,.5,.31,.94,.73,1.32,1.25s.69,1.08,.93,1.69l-6.55,2.85c.16,.37,.38,.74,.66,1.1Zm3.77-5.42c-.28-.31-.6-.55-.96-.73-.35-.18-.73-.28-1.14-.31-.4-.03-.82,.05-1.23,.23s-.77,.44-1.03,.75c-.26,.31-.44,.66-.55,1.04-.11,.38-.15,.79-.13,1.21,.02,.43,.1,.84,.22,1.25l5.51-2.4c-.18-.39-.42-.74-.7-1.05Z"/>
    <path class="cls-1" d="M82.4,31.83l.64,1.47h.03c-.03-.62,.14-1.19,.51-1.72,.37-.53,.86-.93,1.46-1.2s1.13-.4,1.59-.42,.89,.06,1.25,.23c.36,.18,.68,.45,.96,.81,.28,.36,.52,.8,.74,1.31l2.38,5.48-1.04,.45-2.31-5.31c-.16-.36-.34-.69-.54-.97-.2-.28-.44-.51-.7-.67-.27-.16-.57-.24-.91-.25-.34,0-.72,.08-1.13,.26s-.76,.42-1.02,.71c-.26,.29-.45,.61-.56,.97-.11,.36-.15,.74-.13,1.15,.03,.41,.13,.83,.3,1.25l2.16,4.97-1.04,.45-3.71-8.52,1.04-.45Z"/>
    <path class="cls-1" d="M90.44,28.33l5.93,6.31h.03s-.61-8.64-.61-8.64l1.07-.47,.52,9.9-1.11,.48-6.99-7.09,1.16-.5Z"/>
    <path class="cls-1" d="M97.52,21.36l.73,1.67-1.04,.45-.73-1.67,1.04-.45Zm1.42,3.27l3.71,8.52-1.04,.45-3.71-8.52,1.04-.45Z"/>
    <path class="cls-1" d="M104.18,29.13c.28,.36,.6,.64,.97,.86s.78,.36,1.22,.41c.44,.06,.91-.02,1.41-.24,.76-.33,1.27-.79,1.52-1.37,.26-.58,.32-1.24,.2-1.97l1.04-.45c.2,1.06,.12,1.99-.24,2.77-.36,.78-1.08,1.41-2.16,1.88-.67,.29-1.3,.43-1.9,.4-.59-.02-1.13-.17-1.62-.45-.49-.28-.92-.66-1.31-1.14s-.71-1.02-.97-1.63c-.24-.56-.41-1.14-.5-1.75s-.07-1.18,.06-1.74c.12-.56,.37-1.07,.75-1.54,.38-.47,.9-.85,1.57-1.15s1.33-.41,1.93-.35c.6,.06,1.15,.25,1.65,.57,.5,.31,.94,.73,1.32,1.25s.69,1.08,.93,1.69l-6.55,2.85c.16,.37,.38,.74,.66,1.1Zm3.77-5.42c-.28-.31-.6-.55-.96-.73-.35-.18-.73-.28-1.14-.31-.4-.03-.82,.05-1.23,.23s-.77,.44-1.03,.75c-.26,.31-.44,.66-.55,1.04-.11,.38-.15,.79-.13,1.21,.02,.43,.1,.84,.22,1.25l5.51-2.4c-.18-.39-.42-.74-.7-1.05Z"/>
    <path class="cls-1" d="M115.12,19.56c-.22-.18-.47-.31-.74-.37s-.55-.08-.85-.03c-.3,.04-.59,.13-.89,.26-.23,.1-.45,.23-.67,.38-.22,.15-.4,.33-.54,.53s-.24,.42-.28,.66c-.04,.24,0,.5,.12,.77,.1,.23,.24,.4,.43,.51s.39,.18,.61,.21c.22,.03,.46,.04,.7,.02,.24-.02,.46-.04,.65-.08l1.52-.29c.32-.09,.65-.13,.99-.15s.67,.03,.97,.12c.31,.09,.59,.24,.85,.45,.26,.21,.48,.51,.64,.88,.2,.46,.27,.9,.2,1.32-.07,.42-.22,.8-.46,1.14-.24,.35-.54,.65-.91,.92-.37,.26-.75,.48-1.15,.66-1,.44-1.92,.55-2.74,.35-.83-.2-1.51-.81-2.06-1.81l1.04-.45c.35,.69,.84,1.1,1.46,1.26,.62,.15,1.28,.08,1.97-.22,.25-.11,.5-.25,.75-.42,.25-.17,.46-.37,.63-.61,.17-.23,.29-.48,.35-.75,.06-.27,.03-.55-.1-.85-.11-.25-.25-.44-.43-.57-.18-.13-.38-.21-.61-.25s-.47-.05-.73-.03c-.26,.02-.52,.06-.77,.1l-1.47,.28c-.38,.06-.74,.1-1.07,.1s-.65-.02-.94-.1c-.29-.08-.55-.21-.78-.41-.23-.2-.42-.47-.58-.84-.19-.43-.25-.84-.19-1.23s.2-.75,.43-1.07c.23-.32,.51-.61,.85-.86,.34-.25,.7-.46,1.07-.62,.43-.19,.85-.3,1.27-.36,.42-.05,.82-.02,1.2,.09,.38,.11,.73,.3,1.04,.57,.31,.27,.58,.63,.8,1.08l-1.04,.45c-.15-.31-.34-.56-.56-.75Z"/>
  </g>
</svg>