<?xml version="1.0" encoding="UTF-8"?>
<svg id="Calque_1" data-name="Calque 1" xmlns="http://www.w3.org/2000/svg" viewBox="0 0 170.69 122.56">
  <defs>
    <style>
      .cls-1 {
        fill: #030007;
      }

      .cls-2 {
        fill: #008a6f;
      }

      .cls-3 {
        fill: #fff;
      }

      .cls-4 {
        fill: none;
        stroke: #fff;
        stroke-miterlimit: 10;
        stroke-width: 1px;
      }
    </style>
  </defs>
  <g>
    <path class="cls-2" d="M122.7,86.6c0-.9,.1-1.79,.27-2.64-.57-1.48-1.33-2.91-2.3-4.24,1.96-.22,3.81-.76,5.52-1.54,.85-.74,1.84-1.33,2.98-1.72,4.69-3.32,7.71-8.77,7.71-14.87,0-7.66-4.76-14.31-11.64-16.98-.56,1.78-2.97,4.62-7.74,4.62-6.08,0-10.24-4.76-10.24-10.64s4.16-10.64,10.24-10.64c4.52,0,7.91,2.39,8.75,5.54,.91-5.56-.74-11.46-5.01-15.77-7.08-7.17-18.63-7.24-25.8-.16-.22,.21-.43,.43-.63,.66C94.8,8.15,86.63,0,76.55,0c-9.83,0-17.89,7.81-18.21,17.64-7.15-7.11-18.7-7.08-25.81,.07-3.3,3.32-5.04,7.58-5.26,11.91,1.13-.82,3-1.66,5.03-1.66,5.08,0,7.2,3,7.2,6.8v9.08c0,2.4,1.4,2.96,1.4,3.84,0,.56-.48,.92-1.4,.92h-6.8c-.92,0-1.4-.36-1.4-.92,0-.88,1.4-1.44,1.4-3.84v-9.08c0-1.84-.76-3.96-2.76-3.96-1.4,0-2.18,1.04-2.53,2.29,.53,3.82,2.24,7.51,5.19,10.44-1.87,.25-3.64,.78-5.27,1.54,.36,1.39,1.24,1.91,1.24,2.61,0,.56-.48,.92-1.4,.92h-4.89c-3.96,3.89-6.11,9.53-5.31,15.45,.78,5.77,4.23,10.64,9.05,13.39,1.02-.73,1.84-1.48,2.5-1.48,.56,0,.92,.48,.92,1.4v.32c1.04-.72,3.08-1.72,6.16-1.72s4.32,.64,5.92,.64,2.04-.64,4.56-.64c4.76,0,7.36,3.2,7.36,6.8v9.08c0,2.4,1.4,2.96,1.4,3.84,0,.56-.48,.92-1.4,.92h-4c-1.28,0-2.12-.56-2.52-1.32-1,.92-3,1.96-5.92,1.96-4.96,0-7.12-2.8-7.12-5.92,0-7.4,12.76-6.36,12.76-8.52v-1.16c0-1.76-.44-3-1.76-3-.88,0-1.6,.64-1.6,2.36s-1.36,3.04-3.04,3.04-3-1.36-3-3.04c0-1.84-1.2-2.64-3-2.64-1.11,0-2.2,.4-3.06,1.06,.6,.13,1.2,.24,1.82,.31-3.02,4.12-4.05,9.09-3.27,13.77,.41,1.08,1.11,1.56,1.11,2.19,0,.29-.14,.52-.39,.69,1.16,3.43,3.34,6.54,6.47,8.84,6.57,4.82,15.53,4.69,21.97-.31,.32,10.06,8.73,17.97,18.8,17.65,9.46-.3,17.12-7.78,17.63-17.23,8.18,5.87,19.57,4,25.44-4.18,1.89-2.64,2.99-5.66,3.31-8.74-.91-1.69-1.39-3.69-1.39-5.8Zm-30.24-58.16c3.28-.64,4.04-5.2,5.88-5.2,.56,0,.92,.48,.92,1.4v3.96h2.68c1.16,0,1.72,.52,1.72,1.2s-.56,1.2-1.72,1.2h-2.68v7.68c0,5.44,.72,6.56,2.52,6.56,1.32,0,2.12-1.12,2.76-1.88,.24-.32,.52-.44,.84-.44,.4,0,.68,.32,.68,.96,0,1.56-1.24,5.36-5.88,5.36-5.24,0-7.72-3.8-7.72-8.28v-7.6c0-2.4-1.72-2.44-1.72-3.68,0-.84,.76-1.04,1.72-1.24Zm-35.72,18.84c-1,.92-3,1.96-5.92,1.96-4.96,0-7.12-2.8-7.12-5.92,0-7.4,12.76-6.36,12.76-8.52v-1.16c0-1.84-.76-3.28-2.64-3.28s-2.64,1.44-2.64,3.28c0,1.68-1.36,3.04-3,3.04s-3.04-1.36-3.04-3.04c0-3.32,3.56-5.68,8.92-5.68,5.84,0,9.2,3,9.2,6.8v9.08c0,2.4,1.4,2.96,1.4,3.84,0,.56-.48,.92-1.4,.92h-4c-1.28,0-2.12-.56-2.52-1.32Zm14.72,49.96c-2.4,0-3.84-.88-4.8-1.68v4.28c0,2.4,1.4,2.96,1.4,3.84,0,.56-.48,.92-1.4,.92h-6.8c-.92,0-1.4-.36-1.4-.92,0-.88,1.4-1.44,1.4-3.84v-16.32c0-2.4-1.4-2.96-1.4-3.84,0-.56,.48-.92,1.4-.92,2.76,0,4.6-2.8,5.88-2.8,.56,0,.92,.48,.92,1.4v.28c.96-.8,2.4-1.68,4.8-1.68,6.28,0,9.72,5,9.72,10.64s-3.44,10.64-9.72,10.64Zm11.44-63.6c0-1.84-1-3.28-3.04-3.28-2.2,0-3.4,1.84-3.4,4.4v9.08c0,2.4,1.4,2.96,1.4,3.84,0,.56-.48,.92-1.4,.92h-6.8c-.92,0-1.4-.36-1.4-.92,0-.88,1.4-1.44,1.4-3.84v-8.32c0-2.4-1.4-2.96-1.4-3.84,0-.56,.48-.92,1.4-.92,2.76,0,4.6-2.8,5.88-2.8,.56,0,.92,.48,.92,1.4v.32c.92-.76,2.64-1.72,5.24-1.72,4.2,0,7.24,2.4,7.24,5.68,0,1.68-1.36,3.04-3.04,3.04s-3-1.36-3-3.04Zm22,62.96h-6.8c-.92,0-1.4-.36-1.4-.92,0-.88,1.4-1.44,1.4-3.84v-9.08c0-1.84-.76-3.96-2.76-3.96s-2.76,2.12-2.76,3.96v9.08c0,2.4,1.4,2.96,1.4,3.84,0,.56-.48,.92-1.4,.92h-6.8c-.92,0-1.4-.36-1.4-.92,0-.88,1.4-1.44,1.4-3.84v-18.32c0-2.4-1.4-2.96-1.4-3.84,0-.56,.48-.92,1.4-.92,4.32,0,6.24-2.8,10.72-2.8s8.6,3.92,12.2,3.92c1.44,0,2.48-1.36,2.96-1.72,.68-.6,1.56-.96,2.52-.96,2.04,0,3.72,1.68,3.72,3.8s-1.64,3.56-3.72,3.56c-5.84,0-13-6.2-17.6-6.2-3,0-4,1.8-4,5.44v3.88c1.12-.84,3.04-1.72,5.12-1.72,5.08,0,7.2,3,7.2,6.8v9.08c0,2.4,1.4,2.96,1.4,3.84,0,.56-.48,.92-1.4,.92Zm13.2,0h-6.8c-.92,0-1.4-.36-1.4-.92,0-.88,1.4-1.44,1.4-3.84v-8.32c0-2.4-1.4-2.96-1.4-3.84,0-.56,.48-.92,1.4-.92,2.76,0,4.6-2.8,5.88-2.8,.56,0,.92,.48,.92,1.4v14.48c0,2.4,1.4,2.96,1.4,3.84,0,.56-.48,.92-1.4,.92Z"/>
    <path class="cls-2" d="M50.7,43.32c0,1.04,.64,3.08,3,3.08s2.76-2.32,2.76-3.16v-5.4c-1.36,1.04-5.76,2.2-5.76,5.48Z"/>
    <path class="cls-2" d="M117.5,30.36c-2.72,0-3.72,2.76-3.72,6.28,0,5.08,2.68,8.6,6.36,8.6,1.24,0,2.22-.55,3.07-1.28-.69-.18-1.4-.33-2.12-.43,1.06-1.05,1.95-2.21,2.7-3.42-2.29,1.83-5.49,2.7-7.33,2.7-.48,0-.8-.12-.8-.44,0-1.2,4.48-3.08,4.48-8.72,0-1.84-.8-3.28-2.64-3.28Z"/>
    <path class="cls-2" d="M70.1,78.72c-2.4,0-3.44,2.28-3.44,4.12v7.48c0,1.84,1.04,3.96,3.44,3.96,2.92,0,4.08-3.4,4.08-7.68s-1.16-7.88-4.08-7.88Z"/>
    <path class="cls-2" d="M40.9,91.32c0,1.04,.64,3.08,3,3.08s2.76-2.32,2.76-3.16v-5.4c-1.36,1.04-5.76,2.2-5.76,5.48Z"/>
  </g>
  <g id="Groupe_19" data-name="Groupe 19">
    <rect id="Rectangle_79" data-name="Rectangle 79" class="cls-1" x="1.04" y="48.99" width="168.6" height="37" rx="5.16" ry="5.16" transform="translate(-12.17 19.23) rotate(-12.01)"/>
    <rect id="Rectangle_80" data-name="Rectangle 80" class="cls-4" x="4.43" y="52.5" width="161.6" height="28.86" rx="4.2" ry="4.2" transform="translate(-12.06 19.19) rotate(-12.01)"/>
  </g>
  <g>
    <path class="cls-3" d="M23.4,76.51c-.57-.24-1.2-.29-1.88-.15-.58,.12-1.06,.34-1.43,.65-.37,.31-.65,.67-.84,1.1-.19,.43-.3,.89-.33,1.39-.03,.5,.01,1.01,.12,1.52,.12,.56,.29,1.07,.53,1.54,.23,.47,.52,.86,.87,1.18,.35,.31,.75,.53,1.22,.67s.99,.13,1.58,.01c.43-.09,.8-.24,1.1-.45,.3-.21,.55-.47,.74-.77,.19-.3,.32-.64,.38-1.02,.06-.38,.07-.77,0-1.18l1.3-.27c.13,1.26-.09,2.31-.67,3.15-.58,.84-1.49,1.39-2.74,1.65-.76,.16-1.45,.17-2.07,.03-.62-.14-1.17-.4-1.64-.78-.47-.38-.87-.86-1.18-1.44-.32-.58-.55-1.23-.7-1.94s-.19-1.4-.12-2.07c.07-.67,.25-1.28,.54-1.82,.29-.55,.7-1.02,1.22-1.41,.52-.39,1.16-.67,1.91-.82,.51-.11,1.01-.14,1.5-.1,.49,.04,.93,.16,1.35,.35s.78,.46,1.1,.8c.32,.35,.57,.77,.76,1.28l-1.3,.27c-.29-.66-.72-1.12-1.3-1.36Z"/>
    <path class="cls-3" d="M28.39,74.01l.89,4.2,5.15-1.09-.89-4.2,1.3-.27,2.06,9.78-1.3,.27-.95-4.48-5.15,1.09,.95,4.48-1.3,.27-2.06-9.78,1.3-.27Z"/>
    <path class="cls-3" d="M41.07,71.34l5.88,8.97-1.44,.3-1.69-2.72-4.14,.87-.47,3.18-1.33,.28,1.74-10.58,1.44-.3Zm2.12,5.55l-2.59-4.22h-.03s-.69,4.92-.69,4.92l3.31-.7Z"/>
    <path class="cls-3" d="M50.45,69.36c.93-.2,1.71-.12,2.33,.22,.62,.35,1.02,.92,1.18,1.71,.13,.59,.1,1.14-.07,1.65-.17,.5-.54,.9-1.1,1.19v.03c.3,0,.55,.04,.76,.13,.2,.09,.38,.21,.52,.37s.26,.34,.36,.55c.1,.21,.18,.43,.26,.66,.07,.23,.13,.47,.19,.72s.14,.48,.22,.71c.09,.23,.19,.44,.3,.64,.11,.2,.26,.37,.43,.5l-1.45,.31c-.11-.08-.2-.21-.27-.37-.07-.17-.13-.36-.18-.57-.05-.21-.11-.44-.17-.69s-.14-.48-.24-.71c-.09-.23-.18-.45-.28-.65-.1-.2-.23-.37-.38-.51-.15-.13-.33-.23-.55-.29s-.48-.05-.8,.02l-3.18,.67,.88,4.18-1.3,.27-2.06-9.78,4.6-.97Zm1.21,4.38c.26-.1,.49-.24,.66-.42,.18-.18,.3-.39,.38-.64,.08-.25,.08-.55,0-.91-.1-.49-.33-.87-.67-1.12-.34-.25-.81-.31-1.43-.19l-3.23,.68,.72,3.41,2.71-.57c.3-.06,.58-.15,.85-.25Z"/>
    <path class="cls-3" d="M54.18,69.72l-.23-1.1,7.82-1.65,.23,1.1-3.26,.69,1.83,8.68-1.3,.27-1.83-8.68-3.26,.69Z"/>
    <path class="cls-3" d="M69.6,65.32l.23,1.1-5.45,1.15,.66,3.11,5.08-1.07,.23,1.1-5.08,1.07,.71,3.38,5.49-1.16,.23,1.1-6.79,1.43-2.06-9.78,6.75-1.43Z"/>
    <path class="cls-3" d="M82.95,72.59c-.52,.34-1.07,.58-1.64,.7-.73,.15-1.41,.16-2.04,0-.63-.15-1.2-.41-1.7-.78s-.91-.83-1.25-1.38c-.34-.55-.57-1.14-.71-1.78-.15-.71-.2-1.41-.14-2.1,.06-.68,.23-1.31,.52-1.88,.29-.57,.69-1.05,1.21-1.46,.52-.41,1.17-.7,1.94-.86,.53-.11,1.04-.16,1.54-.13s.96,.13,1.38,.32,.81,.46,1.14,.81c.34,.35,.61,.81,.82,1.36l-1.3,.27c-.14-.36-.33-.66-.56-.89s-.49-.41-.78-.53c-.29-.12-.61-.19-.95-.21-.34-.02-.7,.01-1.06,.09-.59,.13-1.08,.35-1.45,.68-.37,.33-.66,.71-.84,1.16-.19,.45-.29,.93-.32,1.45-.02,.52,.02,1.05,.13,1.57s.28,.99,.53,1.43c.25,.44,.55,.81,.91,1.11,.36,.3,.77,.51,1.23,.64,.46,.13,.97,.13,1.51,.02,.51-.11,.95-.29,1.3-.53s.64-.54,.85-.89c.21-.34,.34-.73,.4-1.14,.06-.42,.03-.85-.09-1.29l-3.12,.66-.23-1.1,4.29-.9,1.09,5.15-.82,.17-.6-1.15c-.28,.59-.67,1.06-1.19,1.4Z"/>
    <path class="cls-3" d="M90.02,61.01c.93-.2,1.71-.12,2.33,.22,.62,.35,1.02,.92,1.18,1.71,.13,.59,.1,1.14-.07,1.65-.17,.5-.54,.9-1.1,1.19v.03c.3,0,.55,.04,.76,.13,.2,.09,.38,.21,.52,.37s.26,.34,.36,.55c.1,.21,.18,.43,.26,.66,.07,.23,.13,.47,.19,.72s.14,.48,.22,.71c.09,.23,.19,.44,.3,.64,.11,.2,.26,.37,.43,.5l-1.45,.31c-.11-.08-.2-.21-.27-.37-.07-.17-.13-.36-.18-.57-.05-.21-.11-.44-.17-.69s-.14-.48-.24-.71c-.09-.23-.18-.45-.28-.65-.1-.2-.23-.37-.38-.51-.15-.13-.33-.23-.55-.29s-.48-.05-.8,.02l-3.18,.67,.88,4.18-1.3,.27-2.06-9.78,4.6-.97Zm1.21,4.38c.26-.1,.49-.24,.66-.42,.18-.18,.3-.39,.38-.64,.08-.25,.08-.55,0-.91-.1-.49-.33-.87-.67-1.12-.34-.25-.81-.31-1.43-.19l-3.23,.68,.72,3.41,2.71-.57c.3-.06,.58-.15,.85-.25Z"/>
    <path class="cls-3" d="M98.9,59.13l5.88,8.97-1.44,.3-1.69-2.72-4.14,.87-.47,3.18-1.33,.28,1.74-10.58,1.44-.3Zm2.12,5.55l-2.59-4.22h-.03s-.69,4.92-.69,4.92l3.31-.7Z"/>
    <path class="cls-3" d="M107.97,57.22c.99-.21,1.79-.11,2.4,.29,.61,.4,1.02,1.06,1.21,1.97s.09,1.68-.31,2.3c-.4,.62-1.09,1.03-2.08,1.23l-2.99,.63,.84,4-1.3,.27-2.06-9.78,4.29-.9Zm.55,4.78c.74-.15,1.25-.41,1.53-.79,.28-.38,.35-.87,.23-1.45s-.39-.99-.8-1.23-.98-.27-1.72-.12l-2.55,.54,.76,3.59,2.55-.54Z"/>
    <path class="cls-3" d="M113.86,55.98l.89,4.2,5.15-1.09-.89-4.2,1.3-.27,2.06,9.78-1.3,.27-.95-4.48-5.15,1.09,.95,4.48-1.3,.27-2.06-9.78,1.3-.27Z"/>
    <path class="cls-3" d="M123.8,53.88l2.06,9.78-1.3,.27-2.06-9.78,1.3-.27Z"/>
    <path class="cls-3" d="M134.46,61.47c-.58,.52-1.32,.88-2.22,1.07-.78,.16-1.49,.17-2.13,.01-.64-.15-1.21-.43-1.7-.82-.49-.39-.9-.88-1.23-1.45-.33-.57-.56-1.2-.7-1.86s-.18-1.33-.11-1.99c.07-.66,.25-1.26,.54-1.82s.7-1.04,1.23-1.45c.53-.41,1.18-.69,1.95-.86s1.49-.17,2.13,0c.64,.16,1.21,.44,1.71,.83,.49,.39,.9,.88,1.23,1.45,.33,.58,.56,1.2,.7,1.86,.16,.75,.19,1.49,.08,2.22-.1,.73-.35,1.39-.74,1.99l1.5,.74-.48,.96-1.74-.88Zm-.38-1.38c.3-.46,.49-.99,.55-1.58,.07-.59,.04-1.19-.09-1.79-.1-.49-.27-.97-.5-1.42-.23-.45-.52-.84-.88-1.17s-.77-.56-1.25-.7-1.01-.15-1.61-.03-1.08,.35-1.46,.67c-.38,.32-.67,.71-.86,1.15s-.3,.92-.33,1.42c-.03,.51,.01,1.01,.12,1.5s.27,.97,.5,1.42c.23,.45,.52,.84,.88,1.17,.36,.33,.77,.56,1.25,.7,.48,.14,1.01,.15,1.61,.03,.47-.1,.9-.28,1.3-.56l-1.26-.64,.52-.94,1.52,.77Z"/>
    <path class="cls-3" d="M145.12,58.84c-.53,.77-1.42,1.28-2.65,1.54s-2.31,.17-3.14-.27c-.83-.45-1.39-1.33-1.66-2.63l-1.32-6.25,1.3-.27,1.32,6.25c.18,.88,.56,1.49,1.12,1.85,.56,.35,1.28,.44,2.16,.25,.83-.18,1.42-.53,1.75-1.08s.42-1.25,.23-2.13l-1.32-6.25,1.3-.27,1.32,6.25c.26,1.25,.13,2.26-.41,3.03Z"/>
    <path class="cls-3" d="M153.04,47.71l.23,1.1-5.45,1.15,.66,3.11,5.08-1.07,.23,1.1-5.08,1.07,.71,3.38,5.49-1.16,.23,1.1-6.79,1.43-2.06-9.78,6.75-1.43Z"/>
  </g>
</svg>