<?xml version="1.0" encoding="UTF-8"?>
<svg id="Calque_1" data-name="Calque 1" xmlns="http://www.w3.org/2000/svg" viewBox="0 0 482.84 428.54">
  <defs>
    <style>
      .cls-1 {
        fill: #030007;
      }

      .cls-2 {
        fill: #0b5abd;
      }

      .cls-3 {
        fill: none;
        stroke: #000;
        stroke-linecap: round;
        stroke-linejoin: round;
        stroke-width: 1.5px;
      }
    </style>
  </defs>
  <g>
    <path class="cls-2" d="M222.62,316.27c-5.23,0-7.57,6.35-7.57,19.25s2.34,19.25,7.57,19.25,7.48-6.36,7.48-19.25-2.24-19.25-7.48-19.25Z"/>
    <path class="cls-2" d="M197.48,234.4c0,2.43,1.5,7.2,7.01,7.2s6.45-5.42,6.45-7.38v-12.62c-3.18,2.43-13.46,5.14-13.46,12.8Z"/>
    <path class="cls-2" d="M345.61,377.58c-2.15,0-3.27-.84-3.27-2.15,0-2.06,3.27-3.36,3.27-8.97v-38.13c0-5.61-3.27-6.92-3.27-8.97,0-1.31,1.12-2.15,3.27-2.15,6.45,0,10.75-6.54,13.74-6.54,1.01,0,1.74,.67,2.02,1.97,1.74-.22,3.45-.54,5.12-.93,.83-.3,1.74-.55,2.74-.73,20.54-6.14,35.17-25.14,35.18-47.25-.01-24.67-18.25-45.53-42.69-48.85,19.35-19.16,19.51-50.39,.34-69.74-19.16-19.35-50.39-19.51-69.74-.34-.56,.55-1.1,1.12-1.63,1.69-.17-27.24-22.39-49.18-49.63-49.01-26.38,.17-47.96,21.06-48.97,47.42-19.25-19.29-50.49-19.33-69.78-.08-19.29,19.25-19.33,50.49-.08,69.78,.09,.09,.19,.19,.28,.28-26.99,3.6-45.95,28.4-42.34,55.38,3,22.46,20.93,39.99,43.46,42.47-16.09,21.96-11.34,52.8,10.62,68.89,17.76,13.01,41.99,12.68,59.37-.83,.85,27.21,23.59,48.58,50.8,47.73,25.58-.8,46.3-21.05,47.68-46.6,19.56,14.05,45.92,11.7,62.73-4.34h-9.22ZM151.22,183.84c0-1.31,1.12-2.15,3.27-2.15,6.45,0,10.75-6.54,13.74-6.54,1.31,0,2.15,1.12,2.15,3.27v57.2c0,5.61,3.27,6.92,3.27,8.97,0,1.31-1.12,2.15-3.27,2.15h-15.89c-2.15,0-3.27-.84-3.27-2.15,0-2.06,3.27-3.36,3.27-8.97v-42.8c0-5.61-3.27-6.92-3.27-8.97h0Zm28.23,167.19c3.65,0,6.36-2.06,8.69-4.39,.65-.65,1.21-1.03,1.96-1.03,.93,0,1.59,.75,1.59,2.24,0,3.65-5.51,12.52-18.41,12.52-14.21,0-23.93-11.12-23.93-24.86s9.72-24.86,23.93-24.86c12.24,0,20.28,5.61,20.28,13.27,0,3.93-3.18,7.1-7.1,7.1s-7.01-3.18-7.01-7.1c0-4.3-1.87-7.66-6.17-7.66-6.35,0-8.69,6.45-8.69,14.67,0,11.87,6.26,20.09,14.86,20.09h0Zm1.68-116.63c0-17.29,29.81-14.86,29.81-19.91v-2.71c0-4.3-1.78-7.66-6.17-7.66s-6.17,3.36-6.17,7.66c0,3.93-3.18,7.1-7.01,7.1s-7.1-3.18-7.1-7.1c0-7.76,8.32-13.27,20.84-13.27,13.65,0,21.5,7.01,21.5,15.89v21.22c0,5.61,3.27,6.92,3.27,8.97,0,1.31-1.12,2.15-3.27,2.15h-9.35c-2.99,0-4.95-1.31-5.89-3.08-2.34,2.15-7.01,4.58-13.83,4.58-11.59,0-16.64-6.54-16.64-13.83h.01Zm41.5,125.97c-14.21,0-23.93-11.12-23.93-24.86s9.72-24.86,23.93-24.86,23.83,11.12,23.83,24.86-9.81,24.86-23.83,24.86Zm108.04-1.5h-15.89c-2.15,0-3.27-.84-3.27-2.15,0-2.06,3.27-3.36,3.27-8.97v-21.22c0-4.3-1.78-9.25-6.45-9.25s-6.45,4.95-6.45,9.25v21.22c0,5.61,3.27,6.92,3.27,8.97,0,1.31-1.12,2.15-3.27,2.15h-15.89c-2.15,0-3.27-.84-3.27-2.15,0-2.06,3.27-3.36,3.27-8.97v-21.22c0-4.3-1.78-9.25-6.45-9.25s-6.45,4.95-6.45,9.25v21.22c0,5.61,3.27,6.92,3.27,8.97,0,1.31-1.12,2.15-3.27,2.15h-15.89c-2.15,0-3.27-.84-3.27-2.15,0-2.06,3.27-3.36,3.27-8.97v-19.44c0-5.61-3.27-6.92-3.27-8.97,0-1.31,1.12-2.15,3.27-2.15,6.45,0,10.75-6.54,13.74-6.54,1.31,0,2.15,1.12,2.15,3.27v.75c2.62-1.96,7.1-4.02,11.96-4.02,6.73,0,11.21,2.24,13.83,5.79,3.18-2.8,8.5-5.79,14.95-5.79,11.87,0,16.82,7.01,16.82,15.89v21.22c0,5.61,3.27,6.92,3.27,8.97,0,1.31-1.12,2.15-3.27,2.15h.02Z"/>
    <path class="cls-2" d="M361.5,356.46v10c0,1.09,.12,2.01,.32,2.81,2.08-3.1,3.76-6.39,5.06-9.78-2.33-.77-4.06-1.93-5.38-3.03Z"/>
    <path class="cls-2" d="M361.5,326.74v17.48c0,4.09,2.21,8.77,7.26,9.21,2.76-11.47,1.34-23.72-4.25-34.39-2.07,1.94-3.02,5.02-3.02,7.7h0Z"/>
    <path class="cls-2" d="M361.75,314.39c-.08-.12-.17-.24-.25-.36v.56c.08-.07,.17-.13,.25-.2Z"/>
  </g>
  <g id="Groupe_18" data-name="Groupe 18">
    <path id="Tracé_119" data-name="Tracé 119" class="cls-3" d="M246.49,8.45c32.25-9.41,66.48-10.2,100.25-2.31,8.6,1.48,16.97,5.11,24.53,10.62,7.3,5.94,12.96,15.83,12.38,25.72-.72,12.27-10.29,20.37-19.76,25.17-4.81,2.82-10.24,4.2-15.81,4.03-5.69-.29-11.02-4.25-13.79-10.28-3.45-8.83,1.58-18.23,7.39-24.2,16.4-16.93,39.63-22.45,62.2-24.76,14.85-1.51,30.58-1.73,44.59,6.06,19.37,10.78,31.76,35.82,33.4,60.08,1.64,24.25-6.13,47.43-17.7,66.41-11.59,18.98-10.1,16.04-25.23,31.21"/>
    <path id="Tracé_120" data-name="Tracé 120" class="cls-3" d="M426.96,166.28l11.39,10.85,11.39,10.83-12.99,5.31-13,5.33,1.6-16.16,1.6-16.16h.01Z"/>
  </g>
  <g id="Groupe_21" data-name="Groupe 21">
    <g id="Groupe_20" data-name="Groupe 20">
      <path id="Tracé_129" data-name="Tracé 129" d="M314.13,89.01l2.63,13.23,5.18-1.03,.31,1.57-7.11,1.4-2.94-14.8,1.93-.37h0Z"/>
      <path id="Tracé_130" data-name="Tracé 130" d="M332.57,98.93l-6.58,.16-1.13,3.38-2.08,.05,5.1-15.12,2.27-.06,5.8,14.86-2.08,.05-1.29-3.32h0Zm-3.5-9.14l-2.54,7.68,5.45-.13s-2.91-7.55-2.91-7.55Z"/>
      <path id="Tracé_131" data-name="Tracé 131" d="M353.79,90.29c2.99,.71,5.19,3.26,5.44,6.33l-2.27-.66c-.26-1.97-1.72-3.57-3.66-4.01-3.25-.66-6.42,1.44-7.08,4.69-.58,2.88,1,5.75,3.74,6.8,1.87,.66,3.95,.1,5.23-1.41l2.27,.66c-1.86,2.44-5.08,3.41-7.97,2.4-4.04-1.33-6.24-5.69-4.91-9.74,1.26-3.84,5.28-6.05,9.2-5.07h0Z"/>
      <path id="Tracé_132" data-name="Tracé 132" d="M364.02,111.34c-3.72-2.07-5.06-6.77-2.98-10.49s6.77-5.06,10.49-2.98c3.72,2.07,5.06,6.77,2.98,10.49-.02,.04-.04,.08-.07,.12-1.93,3.63-6.44,5-10.07,3.07-.12-.06-.23-.13-.35-.2h0Zm.86-1.49c2.74,1.88,6.48,1.18,8.36-1.57,1.88-2.74,1.17-6.48-1.57-8.36s-6.48-1.18-8.36,1.57c-.08,.12-.16,.25-.24,.38-1.75,2.49-1.16,5.93,1.33,7.68,.15,.11,.31,.21,.47,.3h.01Z"/>
      <path id="Tracé_133" data-name="Tracé 133" d="M382.6,105.43l1.51,1.49-4.78,12.7,12.65-4.91,1.49,1.48-10.55,10.65-1.4-1.39,7.86-7.94-11.4,4.44-.98-.98,4.32-11.47-7.88,7.94-1.4-1.39,10.55-10.62h.01Z"/>
      <path id="Tracé_134" data-name="Tracé 134" d="M392.2,129.79l-1.56-2.45-5.31,3.38-1.06-1.66,12.72-8.11,2.62,4.11c1.91,2.99,1.17,5.45-.92,6.78-1.93,1.23-4.47,1.1-6.49-2.05Zm1.37-.87c1.21,1.9,2.61,2.13,4.04,1.22,1.48-.93,1.84-2.3,.63-4.21l-1.56-2.45-4.67,2.98,1.56,2.45h0Z"/>
      <path id="Tracé_135" data-name="Tracé 135" d="M405.03,135.12l-12.37,5.37,2.1,4.84-1.47,.64-2.89-6.65,13.84-6.01,.79,1.8h0Z"/>
      <path id="Tracé_136" data-name="Tracé 136" d="M408.92,151.85l-1.59-5.94-4.87,1.3,1.42,5.31-1.57,.42-1.42-5.31-5.02,1.34,1.59,5.94-1.57,.42-2.1-7.84,14.6-3.9,2.1,7.84s-1.57,.42-1.57,.42Z"/>
      <path id="Tracé_137" data-name="Tracé 137" d="M411.26,155.32l.99,10.17-1.59,.16-.4-4.09-13.43,1.31-.19-1.96,13.43-1.31-.4-4.12s1.59-.16,1.59-.16Z"/>
      <path id="Tracé_138" data-name="Tracé 138" d="M410.09,177.79l.4-6.14-5.03-.33-.36,5.49-1.62-.11,.36-5.49-5.18-.34-.4,6.14-1.62-.11,.52-8.1,15.08,.98-.53,8.1-1.62-.1h0Z"/>
      <path id="Tracé_139" data-name="Tracé 139" d="M408.94,190.99l-12.9-3.93-1.54,5.05-1.53-.47,2.1-6.94,14.44,4.39-.57,1.89h0Z"/>
      <path id="Tracé_140" data-name="Tracé 140" d="M391.51,202.54l2.96-5.87-2.45-2.6,.93-1.86,10.93,11.63-1.02,2.03-15.84-1.91,.93-1.86,3.55,.43h.01Zm9.72,1.23l-5.57-5.87-2.46,4.87,8.03,1Z"/>
      <path id="Tracé_141" data-name="Tracé 141" d="M389.04,225.36c-2.04,2.3-5.34,3.03-8.16,1.8l1.65-1.69c1.86,.71,3.96,.18,5.27-1.32,2.12-2.55,1.77-6.34-.78-8.46-2.26-1.88-5.55-1.84-7.77,.08-1.47,1.33-1.96,3.44-1.23,5.28l-1.65,1.68c-1.27-2.79-.6-6.09,1.66-8.16,3.05-2.98,7.93-2.92,10.9,.13,2.88,2.95,2.93,7.65,.11,10.66h0Z"/>
      <path id="Tracé_142" data-name="Tracé 142" d="M365.67,224.41c3.58-2.31,8.35-1.27,10.66,2.31,2.3,3.58,1.27,8.35-2.31,10.66s-8.35,1.27-10.66-2.31c-.02-.04-.05-.08-.07-.12-2.29-3.41-1.37-8.04,2.04-10.32,.11-.08,.23-.15,.34-.22Zm.9,1.45c-2.95,1.53-4.09,5.16-2.56,8.11s5.16,4.09,8.11,2.56c2.95-1.53,4.09-5.16,2.56-8.11-.07-.13-.14-.26-.22-.39-1.37-2.72-4.68-3.81-7.4-2.44-.17,.08-.33,.18-.48,.28h0Z"/>
      <path id="Tracé_143" data-name="Tracé 143" d="M362.12,243.59l-2.03,.62-8.93-10.22-1.67,13.47-2.01,.62-4.4-14.32,1.89-.58,3.27,10.68,1.48-12.15,1.32-.41,8.07,9.23-3.29-10.7,1.88-.58,4.4,14.33h.02Z"/>
      <path id="Tracé_144" data-name="Tracé 144" d="M336.1,240.53l2.89-.21-.47-6.28,1.96-.14,1.11,15.05-4.86,.36c-3.54,.26-5.35-1.56-5.53-4.02-.15-2.29,1.16-4.47,4.89-4.75h0Zm.12,1.61c-2.25,.17-3.12,1.29-3,2.98,.13,1.75,1.15,2.72,3.4,2.55l2.89-.21-.41-5.53-2.89,.21h.01Z"/>
      <path id="Tracé_145" data-name="Tracé 145" d="M325.35,249.3l1.11-13.44-5.26-.43,.13-1.6,7.23,.59-1.23,15.04-1.97-.17h0Z"/>
      <path id="Tracé_146" data-name="Tracé 146" d="M308.77,244.86l5.99,1.4,1.15-4.91-5.36-1.25,.37-1.58,5.36,1.25,1.18-5.06-5.99-1.4,.37-1.58,7.91,1.85-3.43,14.72-7.91-1.85,.37-1.59h0Z"/>
      <path id="Tracé_147" data-name="Tracé 147" d="M304.62,245.26l-9.43-3.93,.61-1.48,3.8,1.58,5.18-12.45,1.82,.76-5.18,12.45,3.82,1.59-.61,1.48h-.01Z"/>
      <path id="Tracé_148" data-name="Tracé 148" d="M285.34,233.6l5.21,3.26,2.67-4.28-4.67-2.91,.86-1.38,4.67,2.92,2.75-4.41-5.21-3.26,.86-1.38,6.88,4.3-8.01,12.81-6.88-4.3,.86-1.38h0Z"/>
      <path id="Tracé_149" data-name="Tracé 149" d="M269.66,221.45l10.31-8.7-3.41-4.04,1.22-1.03,4.67,5.54-11.54,9.73-1.27-1.51h.02Z"/>
      <path id="Tracé_150" data-name="Tracé 150" d="M269.43,200.52l3.32,5.68,3.5-.65,1.05,1.79-15.7,2.87-1.15-1.96,10.2-12.27,1.05,1.79-2.28,2.74h0Zm-6.31,7.51l7.94-1.5-2.75-4.71-5.19,6.2h0Z"/>
      <path id="Tracé_151" data-name="Tracé 151" d="M251.63,186.06c-.82-2.97,.36-6.13,2.93-7.82l.51,2.3c-1.6,1.18-2.31,3.23-1.76,5.14,1,3.16,4.37,4.92,7.53,3.93,2.79-.88,4.54-3.64,4.15-6.54-.32-1.96-1.81-3.51-3.76-3.91l-.51-2.3c3.04,.46,5.43,2.81,5.94,5.84,.83,4.18-1.89,8.23-6.06,9.06-4.04,.8-7.99-1.71-8.98-5.7h0Z"/>
      <path id="Tracé_152" data-name="Tracé 152" d="M265.16,166.97c-.02,4.26-3.48,7.7-7.74,7.68-4.26-.02-7.7-3.48-7.68-7.74,.02-4.26,3.48-7.7,7.74-7.68h.13c4.11-.06,7.49,3.22,7.55,7.33v.41h0Zm-1.71-.04c.32-3.31-2.11-6.24-5.41-6.56-3.31-.32-6.24,2.11-6.56,5.41-.32,3.31,2.11,6.24,5.41,6.56,.15,.01,.3,.02,.45,.03,3.03,.33,5.75-1.85,6.08-4.88,.02-.19,.03-.37,.03-.56Z"/>
      <path id="Tracé_153" data-name="Tracé 153" d="M250.99,153.57l.58-2.04,13.43-1.95-10.4-8.71,.57-2.02,14.41,4.09-.54,1.89-10.75-3.05,9.38,7.84-.38,1.33-12.13,1.75,10.77,3.06-.54,1.89-14.41-4.09h0Z"/>
      <path id="Tracé_154" data-name="Tracé 154" d="M267.7,133.39l-1.4,2.54,5.53,3.04-.95,1.73-13.23-7.26,2.34-4.27c1.71-3.11,4.22-3.64,6.38-2.45,2.02,1.1,3.14,3.39,1.34,6.67h-.01Zm-1.42-.78c1.08-1.97,.61-3.32-.87-4.13-1.54-.84-2.91-.51-3.99,1.47l-1.4,2.54,4.86,2.67,1.4-2.54h0Z"/>
      <path id="Tracé_155" data-name="Tracé 155" d="M266.22,119.56l10.66,8.26,3.24-4.18,1.27,.98-4.44,5.73-11.92-9.24,1.19-1.56h0Z"/>
      <path id="Tracé_156" data-name="Tracé 156" d="M278.96,108.11l-4.44,4.26,3.5,3.64,3.97-3.81,1.13,1.17-3.97,3.81,3.6,3.74,4.44-4.26,1.13,1.17-5.84,5.63-10.48-10.89,5.84-5.63,1.12,1.18h0Z"/>
      <path id="Tracé_157" data-name="Tracé 157" d="M280.85,104.41l8.41-5.79,.91,1.32-3.39,2.34,7.65,11.11-1.62,1.12-7.65-11.11-3.41,2.34-.9-1.32h0Z"/>
      <path id="Tracé_158" data-name="Tracé 158" d="M301.11,94.55l-5.57,2.61,2.14,4.57,4.98-2.34,.7,1.47-4.98,2.34,2.21,4.7,5.57-2.61,.69,1.47-7.36,3.44-6.42-13.68,7.35-3.45,.69,1.47h0Z"/>
    </g>
  </g>
  <g>
    <path class="cls-1" d="M.7,62.41l-.7-2.91,20.75-5.02,.7,2.91-8.65,2.09,5.58,23.04-3.45,.84-5.58-23.04L.7,62.42h0Z"/>
    <path class="cls-1" d="M24.2,57.64l-.91-3.78,3.09-.75,.91,3.78-3.09,.75Zm3.91,2.63l4.55,18.79-3.09,.75-4.55-18.79,3.09-.75Z"/>
    <path class="cls-1" d="M35.81,58.41l.67,2.76h.07c.89-2.48,2.65-4.04,5.29-4.68,1.16-.28,2.27-.3,3.34-.04,1.06,.25,1.93,.91,2.6,1.98,.38-1.17,1.02-2.16,1.91-2.96,.89-.8,1.96-1.36,3.2-1.66,.94-.23,1.82-.33,2.63-.31s1.55,.19,2.2,.49c.65,.3,1.21,.77,1.68,1.38,.47,.61,.82,1.41,1.05,2.38l3.33,13.77-3.09,.75-2.98-12.31c-.14-.58-.32-1.11-.54-1.6s-.51-.88-.86-1.2c-.35-.31-.8-.52-1.33-.62-.52-.11-1.17-.07-1.92,.12-1.53,.37-2.62,1.09-3.28,2.18s-.82,2.35-.46,3.8l2.83,11.7-3.09,.75-2.98-12.31c-.15-.6-.34-1.15-.57-1.63s-.53-.88-.88-1.19c-.35-.31-.78-.51-1.28-.61s-1.09-.07-1.81,.11c-.9,.22-1.62,.58-2.17,1.1s-.97,1.08-1.25,1.69c-.28,.6-.44,1.21-.49,1.79s-.03,1.07,.06,1.43l2.83,11.7-3.09,.75-4.55-18.79,2.91-.7h.02Z"/>
    <path class="cls-1" d="M81.45,65.99c-1.15,1.41-2.79,2.36-4.91,2.88-1.5,.36-2.87,.43-4.08,.22-1.22-.22-2.31-.67-3.27-1.37-.96-.69-1.78-1.6-2.44-2.72s-1.2-2.39-1.6-3.8c-.34-1.43-.45-2.78-.29-4.09,.15-1.29,.51-2.47,1.09-3.53,.58-1.07,1.34-1.97,2.31-2.71,.96-.74,2.08-1.28,3.37-1.59,1.67-.4,3.14-.39,4.41,.03s2.36,1.09,3.29,1.99c.93,.9,1.66,1.96,2.22,3.16,.56,1.2,.95,2.37,1.18,3.53l-14.06,3.4c.17,.83,.46,1.59,.85,2.27s.9,1.25,1.53,1.71c.62,.46,1.35,.76,2.18,.91,.84,.16,1.76,.11,2.77-.13,1.31-.31,2.31-.88,3-1.69s1.02-1.87,.99-3.16l3.05-.74c.09,2.2-.43,4.01-1.58,5.42h-.02Zm-3.67-11.88c-.44-.59-.95-1.06-1.53-1.41-.58-.36-1.23-.6-1.94-.72-.71-.12-1.45-.09-2.22,.1s-1.49,.5-2.06,.94c-.58,.44-1.03,.95-1.37,1.55-.34,.59-.57,1.25-.68,1.95-.11,.71-.1,1.42,.02,2.16l10.79-2.61c-.23-.71-.55-1.37-.99-1.96h-.02Z"/>
    <path class="cls-1" d="M101.54,42.51l.66,2.73-3.74,.91,2.82,11.66c.09,.36,.19,.65,.3,.85,.11,.2,.27,.34,.46,.42,.2,.08,.45,.1,.77,.07,.31-.04,.71-.11,1.2-.23l1.41-.34,.66,2.73-2.36,.57c-.8,.19-1.5,.3-2.09,.34-.59,.02-1.1-.06-1.52-.26s-.78-.55-1.08-1.04-.55-1.18-.77-2.04l-2.89-11.95-3.2,.77-.66-2.73,3.2-.77-1.36-5.63,3.09-.75,1.36,5.63,3.74-.91v-.02Z"/>
    <path class="cls-1" d="M105.86,47.33c.1-1.29,.42-2.47,.99-3.54,.56-1.07,1.35-2,2.37-2.78s2.26-1.36,3.73-1.72,2.88-.42,4.12-.19c1.25,.23,2.37,.7,3.36,1.4,.99,.7,1.82,1.6,2.5,2.71,.67,1.11,1.18,2.35,1.51,3.73s.45,2.71,.35,4c-.1,1.28-.43,2.46-.99,3.53s-1.34,1.99-2.35,2.76-2.26,1.34-3.76,1.7-2.85,.43-4.1,.21c-1.26-.22-2.38-.68-3.37-1.38-.99-.7-1.82-1.59-2.5-2.69-.67-1.1-1.18-2.33-1.51-3.71s-.45-2.71-.35-4.01h0Zm4.81,6.13c.52,.81,1.12,1.45,1.79,1.91,.67,.47,1.41,.77,2.2,.91s1.59,.12,2.39-.08,1.51-.54,2.15-1.03c.64-.49,1.15-1.09,1.54-1.82,.39-.72,.63-1.56,.72-2.52s0-2-.28-3.14-.67-2.11-1.19-2.93c-.52-.81-1.12-1.45-1.79-1.93s-1.41-.79-2.21-.93-1.59-.12-2.39,.08-1.51,.54-2.15,1.03c-.64,.49-1.15,1.1-1.54,1.84-.39,.73-.63,1.58-.72,2.54s0,2,.28,3.14,.67,2.11,1.19,2.93Z"/>
    <path class="cls-1" d="M141.8,48.2c.41,.4,.88,.69,1.41,.85s1.12,.23,1.75,.21,1.25-.11,1.88-.26c.49-.12,.99-.28,1.5-.48,.51-.2,.97-.45,1.38-.76,.4-.3,.7-.68,.9-1.12,.2-.45,.23-.96,.09-1.54-.19-.8-.64-1.34-1.35-1.6-.7-.26-1.55-.42-2.51-.45s-2.01-.03-3.13,.03c-1.12,.05-2.18,0-3.18-.16-1-.15-1.88-.5-2.66-1.03-.77-.53-1.3-1.4-1.6-2.61-.23-.94-.21-1.81,.05-2.59s.68-1.47,1.24-2.05,1.23-1.08,2.03-1.49c.78-.41,1.59-.71,2.42-.92,1.06-.25,2.07-.4,3.01-.44,.94-.03,1.81,.08,2.61,.37,.79,.28,1.5,.75,2.09,1.42s1.07,1.56,1.41,2.68l-3.09,.75c-.2-.6-.47-1.06-.83-1.4-.37-.34-.78-.57-1.25-.72s-.97-.21-1.49-.2c-.52,.01-1.04,.08-1.55,.2-.46,.11-.92,.26-1.38,.44-.46,.18-.85,.42-1.2,.69-.34,.28-.6,.59-.77,.95s-.2,.78-.08,1.27c.13,.54,.42,.93,.88,1.19s1.01,.43,1.64,.52c.63,.09,1.34,.13,2.1,.11s1.53-.03,2.3-.04c.82-.02,1.62,0,2.42,.07s1.53,.23,2.2,.49,1.25,.65,1.75,1.18c.5,.52,.86,1.23,1.07,2.13,.28,1.14,.26,2.15-.02,3-.29,.87-.76,1.62-1.42,2.26s-1.43,1.17-2.35,1.58c-.92,.41-1.85,.73-2.78,.97-1.04,.25-2.07,.38-3.06,.39-1,0-1.92-.15-2.77-.47s-1.58-.84-2.22-1.54c-.63-.71-1.11-1.63-1.44-2.79l3.09-.75c.19,.67,.49,1.21,.89,1.61v.02Z"/>
    <path class="cls-1" d="M155.43,21.89l2.4,9.91h.07c.1-.66,.32-1.23,.66-1.74,.34-.5,.75-.95,1.23-1.33,.49-.38,1.01-.71,1.58-.97,.57-.26,1.12-.46,1.69-.6,1.24-.3,2.31-.37,3.21-.23s1.68,.45,2.34,.93,1.18,1.12,1.59,1.9c.41,.78,.74,1.68,.98,2.71l2.99,12.35-3.09,.75-3.07-12.72c-.28-1.16-.84-2-1.68-2.51s-1.85-.63-3.04-.34c-.94,.23-1.73,.57-2.35,1.03-.63,.46-1.09,1.01-1.43,1.65-.33,.64-.52,1.35-.58,2.12s.02,1.58,.22,2.43l2.57,10.61-3.09,.75-6.28-25.94,3.09-.75h-.02Z"/>
    <path class="cls-1" d="M173.64,21.49l-.91-3.78,3.09-.75,.91,3.78-3.09,.75Zm3.91,2.63l4.55,18.79-3.09,.75-4.55-18.79,3.09-.75Z"/>
    <path class="cls-1" d="M185.25,22.25l.72,2.98h.07c.74-2.6,2.49-4.23,5.28-4.91,1.24-.3,2.31-.37,3.21-.23s1.68,.45,2.34,.93,1.18,1.12,1.59,1.9c.41,.78,.74,1.68,.98,2.71l2.99,12.35-3.09,.75-3.07-12.72c-.28-1.16-.84-2-1.68-2.51s-1.85-.63-3.04-.34c-.94,.23-1.73,.57-2.35,1.03-.63,.46-1.09,1.01-1.43,1.65-.33,.64-.52,1.35-.58,2.12s.02,1.58,.22,2.43l2.57,10.61-3.09,.75-4.55-18.79,2.91-.7h0Z"/>
    <path class="cls-1" d="M220.1,32.43c-1.15,1.41-2.79,2.36-4.91,2.88-1.5,.36-2.87,.43-4.08,.22-1.22-.22-2.31-.67-3.27-1.37-.96-.69-1.78-1.6-2.44-2.72s-1.2-2.39-1.6-3.8c-.34-1.43-.45-2.78-.29-4.09,.15-1.29,.51-2.47,1.09-3.53,.58-1.07,1.34-1.97,2.31-2.71s2.08-1.28,3.37-1.59c1.67-.4,3.14-.39,4.41,.03s2.36,1.09,3.29,1.99c.93,.9,1.66,1.96,2.22,3.16s.95,2.37,1.18,3.53l-14.06,3.4c.17,.83,.46,1.59,.85,2.27,.39,.69,.9,1.25,1.53,1.71,.62,.46,1.35,.76,2.18,.91s1.76,.11,2.77-.13c1.31-.31,2.31-.88,3-1.69s1.02-1.87,.99-3.16l3.05-.74c.09,2.2-.43,4.01-1.58,5.42h-.02Zm-3.67-11.88c-.44-.59-.95-1.06-1.53-1.41-.59-.36-1.23-.6-1.94-.72-.71-.12-1.45-.09-2.22,.1s-1.49,.5-2.06,.94c-.58,.44-1.03,.95-1.37,1.55-.34,.59-.57,1.25-.68,1.95-.11,.71-.1,1.42,.02,2.16l10.79-2.61c-.23-.71-.55-1.37-.99-1.96h-.02Z"/>
  </g>
</svg>