<?xml version="1.0" encoding="UTF-8"?>
<svg id="Calque_1" data-name="Calque 1" xmlns="http://www.w3.org/2000/svg" viewBox="0 0 573.71 394.35">
  <defs>
    <style>
      .cls-1 {
        fill: #030007;
      }

      .cls-2 {
        fill: #0b5abd;
      }

      .cls-3 {
        fill: none;
        stroke: #000;
        stroke-linecap: round;
        stroke-linejoin: round;
        stroke-width: 1.5px;
      }
    </style>
  </defs>
  <g>
    <path class="cls-2" d="M142.89,226.93c-5.23,0-7.57,6.35-7.57,19.25s2.34,19.25,7.57,19.25,7.48-6.36,7.48-19.25-2.24-19.25-7.48-19.25Z"/>
    <path class="cls-2" d="M117.75,145.06c0,2.43,1.5,7.2,7.01,7.2s6.45-5.42,6.45-7.38v-12.62c-3.18,2.43-13.46,5.14-13.46,12.8Z"/>
    <path class="cls-2" d="M265.88,288.24c-2.15,0-3.27-.84-3.27-2.15,0-2.06,3.27-3.36,3.27-8.97v-38.13c0-5.61-3.27-6.92-3.27-8.97,0-1.31,1.12-2.15,3.27-2.15,6.45,0,10.75-6.54,13.74-6.54,1.01,0,1.74,.67,2.02,1.97,1.74-.22,3.45-.54,5.12-.93,.83-.3,1.74-.55,2.74-.73,20.54-6.14,35.17-25.14,35.18-47.25-.01-24.67-18.25-45.53-42.69-48.85,19.35-19.16,19.51-50.39,.34-69.74-19.16-19.35-50.39-19.51-69.74-.34-.56,.55-1.1,1.12-1.63,1.69-.17-27.24-22.39-49.18-49.63-49.01-26.38,.17-47.96,21.06-48.97,47.42-19.25-19.29-50.49-19.33-69.78-.08-19.29,19.25-19.33,50.49-.08,69.78,.09,.09,.19,.19,.28,.28C15.79,129.14-3.17,153.94,.44,180.92c3,22.46,20.93,39.99,43.46,42.47-16.09,21.96-11.34,52.8,10.62,68.89,17.76,13.01,41.99,12.68,59.37-.83,.85,27.21,23.59,48.58,50.8,47.73,25.58-.8,46.3-21.05,47.68-46.6,19.56,14.05,45.92,11.7,62.73-4.34h-9.22ZM71.49,94.5c0-1.31,1.12-2.15,3.27-2.15,6.45,0,10.75-6.54,13.74-6.54,1.31,0,2.15,1.12,2.15,3.27v57.2c0,5.61,3.27,6.92,3.27,8.97,0,1.31-1.12,2.15-3.27,2.15h-15.89c-2.15,0-3.27-.84-3.27-2.15,0-2.06,3.27-3.36,3.27-8.97v-42.8c0-5.61-3.27-6.92-3.27-8.97Zm28.23,167.2c3.65,0,6.36-2.06,8.69-4.39,.65-.65,1.21-1.03,1.96-1.03,.93,0,1.59,.75,1.59,2.24,0,3.65-5.51,12.52-18.41,12.52-14.21,0-23.93-11.12-23.93-24.86s9.72-24.86,23.93-24.86c12.24,0,20.28,5.61,20.28,13.27,0,3.93-3.18,7.1-7.1,7.1s-7.01-3.18-7.01-7.1c0-4.3-1.87-7.66-6.17-7.66-6.35,0-8.69,6.45-8.69,14.67,0,11.87,6.26,20.09,14.86,20.09Zm1.68-116.64c0-17.29,29.81-14.86,29.81-19.91v-2.71c0-4.3-1.78-7.66-6.17-7.66s-6.17,3.36-6.17,7.66c0,3.93-3.18,7.1-7.01,7.1s-7.1-3.18-7.1-7.1c0-7.76,8.32-13.27,20.84-13.27,13.65,0,21.5,7.01,21.5,15.89v21.22c0,5.61,3.27,6.92,3.27,8.97,0,1.31-1.12,2.15-3.27,2.15h-9.35c-2.99,0-4.95-1.31-5.89-3.08-2.34,2.15-7.01,4.58-13.83,4.58-11.59,0-16.64-6.54-16.64-13.83Zm41.5,125.98c-14.21,0-23.93-11.12-23.93-24.86s9.72-24.86,23.93-24.86,23.83,11.12,23.83,24.86-9.81,24.86-23.83,24.86Zm108.04-1.5h-15.89c-2.15,0-3.27-.84-3.27-2.15,0-2.06,3.27-3.36,3.27-8.97v-21.22c0-4.3-1.78-9.25-6.45-9.25s-6.45,4.95-6.45,9.25v21.22c0,5.61,3.27,6.92,3.27,8.97,0,1.31-1.12,2.15-3.27,2.15h-15.89c-2.15,0-3.27-.84-3.27-2.15,0-2.06,3.27-3.36,3.27-8.97v-21.22c0-4.3-1.78-9.25-6.45-9.25s-6.45,4.95-6.45,9.25v21.22c0,5.61,3.27,6.92,3.27,8.97,0,1.31-1.12,2.15-3.27,2.15h-15.89c-2.15,0-3.27-.84-3.27-2.15,0-2.06,3.27-3.36,3.27-8.97v-19.44c0-5.61-3.27-6.92-3.27-8.97,0-1.31,1.12-2.15,3.27-2.15,6.45,0,10.75-6.54,13.74-6.54,1.31,0,2.15,1.12,2.15,3.27v.75c2.62-1.96,7.1-4.02,11.96-4.02,6.73,0,11.21,2.24,13.83,5.79,3.18-2.8,8.5-5.79,14.95-5.79,11.87,0,16.82,7.01,16.82,15.89v21.22c0,5.61,3.27,6.92,3.27,8.97,0,1.31-1.12,2.15-3.27,2.15Z"/>
    <path class="cls-2" d="M281.77,267.12v10c0,1.09,.12,2.01,.32,2.81,2.08-3.1,3.76-6.39,5.06-9.78-2.33-.77-4.06-1.93-5.38-3.03Z"/>
    <path class="cls-2" d="M281.77,237.4v17.48c0,4.09,2.21,8.77,7.26,9.21,2.76-11.47,1.34-23.72-4.25-34.39-2.07,1.94-3.02,5.02-3.02,7.7Z"/>
    <path class="cls-2" d="M282.02,225.05c-.08-.12-.17-.24-.25-.36v.56c.08-.07,.17-.13,.25-.2Z"/>
  </g>
  <g id="Groupe_18" data-name="Groupe 18">
    <path id="Tracé_119" data-name="Tracé 119" class="cls-3" d="M399.52,213.9c.82,28.43-4.66,56.69-16.06,82.75-2.54,6.75-6.52,12.86-11.66,17.91-5.39,4.75-13.22,7.32-19.95,4.78-8.35-3.16-12.26-12.71-13.91-21.48-1.1-4.54-1.1-9.28,0-13.82,1.2-4.61,4.88-8.15,9.53-9.17,6.71-.98,12.32,5.11,15.42,11.13,8.81,17,8.53,37.22,6.15,56.22-1.57,12.5-4.19,25.46-12.04,35.32-10.86,13.64-30.34,18.57-47.39,14.84-17.04-3.73-31.69-14.95-42.76-28.42-11.07-13.48-9.3-11.64-17.12-27.23"/>
    <path id="Tracé_120" data-name="Tracé 120" class="cls-3" d="M258.69,328.97l-9.5,7.08-9.49,7.08-1.38-11.77-1.39-11.78,10.88,4.69,10.88,4.69Z"/>
  </g>
  <g id="Groupe_21" data-name="Groupe 21">
    <g id="Groupe_20" data-name="Groupe 20">
      <path id="Tracé_129" data-name="Tracé 129" d="M253.47,1.67l2.63,13.23,5.18-1.03,.31,1.57-7.11,1.4-2.94-14.8,1.93-.37Z"/>
      <path id="Tracé_130" data-name="Tracé 130" d="M271.91,11.59l-6.58,.16-1.13,3.38-2.08,.05L267.22,.06l2.27-.06,5.8,14.86-2.08,.05-1.29-3.32Zm-3.5-9.14l-2.54,7.68,5.45-.13-2.91-7.55Z"/>
      <path id="Tracé_131" data-name="Tracé 131" d="M293.13,2.95c2.99,.71,5.19,3.26,5.44,6.33l-2.27-.66c-.26-1.97-1.72-3.57-3.66-4.01-3.25-.66-6.42,1.44-7.08,4.69-.58,2.88,1,5.75,3.74,6.8,1.87,.66,3.95,.1,5.23-1.41l2.27,.66c-1.86,2.44-5.08,3.41-7.97,2.4-4.04-1.33-6.24-5.69-4.91-9.74,1.26-3.84,5.28-6.05,9.2-5.07h0Z"/>
      <path id="Tracé_132" data-name="Tracé 132" d="M303.36,24c-3.72-2.07-5.06-6.77-2.98-10.49s6.77-5.06,10.49-2.98c3.72,2.07,5.06,6.77,2.98,10.49-.02,.04-.04,.08-.07,.12-1.93,3.63-6.44,5-10.07,3.07-.12-.06-.23-.13-.35-.2Zm.86-1.48c2.74,1.88,6.48,1.18,8.36-1.57,1.88-2.74,1.17-6.48-1.57-8.36s-6.48-1.18-8.36,1.57c-.08,.12-.16,.25-.24,.38-1.75,2.49-1.16,5.93,1.33,7.68,.15,.11,.31,.21,.47,.3h0Z"/>
      <path id="Tracé_133" data-name="Tracé 133" d="M321.94,18.09l1.51,1.49-4.78,12.7,12.65-4.91,1.49,1.48-10.55,10.65-1.4-1.39,7.86-7.94-11.4,4.44-.98-.98,4.32-11.47-7.88,7.94-1.4-1.39,10.55-10.62Z"/>
      <path id="Tracé_134" data-name="Tracé 134" d="M331.54,42.45l-1.56-2.45-5.31,3.38-1.06-1.66,12.72-8.11,2.62,4.11c1.91,2.99,1.17,5.45-.92,6.78-1.93,1.23-4.47,1.1-6.49-2.05Zm1.37-.87c1.21,1.9,2.61,2.13,4.04,1.22,1.48-.93,1.84-2.3,.63-4.21l-1.56-2.45-4.67,2.98,1.56,2.45Z"/>
      <path id="Tracé_135" data-name="Tracé 135" d="M344.37,47.78l-12.37,5.37,2.1,4.84-1.47,.64-2.89-6.65,13.84-6.01,.79,1.8Z"/>
      <path id="Tracé_136" data-name="Tracé 136" d="M348.26,64.51l-1.59-5.94-4.87,1.3,1.42,5.31-1.57,.42-1.42-5.31-5.02,1.34,1.59,5.94-1.57,.42-2.1-7.84,14.6-3.9,2.1,7.84-1.57,.42Z"/>
      <path id="Tracé_137" data-name="Tracé 137" d="M350.6,67.98l.99,10.17-1.59,.16-.4-4.09-13.43,1.31-.19-1.96,13.43-1.31-.4-4.12,1.59-.16Z"/>
      <path id="Tracé_138" data-name="Tracé 138" d="M349.43,90.45l.4-6.14-5.03-.33-.36,5.49-1.62-.11,.36-5.49-5.18-.34-.4,6.14-1.62-.11,.52-8.1,15.08,.98-.53,8.1-1.62-.1Z"/>
      <path id="Tracé_139" data-name="Tracé 139" d="M348.28,103.65l-12.9-3.93-1.54,5.05-1.53-.47,2.1-6.94,14.44,4.39-.57,1.89Z"/>
      <path id="Tracé_140" data-name="Tracé 140" d="M330.85,115.2l2.96-5.87-2.45-2.6,.93-1.86,10.93,11.63-1.02,2.03-15.84-1.91,.93-1.86,3.55,.43Zm9.72,1.22l-5.57-5.87-2.46,4.87,8.03,1Z"/>
      <path id="Tracé_141" data-name="Tracé 141" d="M328.38,138.02c-2.04,2.3-5.34,3.03-8.16,1.8l1.65-1.69c1.86,.71,3.96,.18,5.27-1.32,2.12-2.55,1.77-6.34-.78-8.46-2.26-1.88-5.55-1.84-7.77,.08-1.47,1.33-1.96,3.44-1.23,5.28l-1.65,1.68c-1.27-2.79-.6-6.09,1.66-8.16,3.05-2.98,7.93-2.92,10.9,.13,2.88,2.95,2.93,7.65,.11,10.66h0Z"/>
      <path id="Tracé_142" data-name="Tracé 142" d="M305.01,137.07c3.58-2.31,8.35-1.27,10.66,2.31,2.3,3.58,1.27,8.35-2.31,10.66-3.58,2.31-8.35,1.27-10.66-2.31-.02-.04-.05-.08-.07-.12-2.29-3.41-1.37-8.04,2.04-10.32,.11-.08,.23-.15,.34-.22Zm.9,1.45c-2.95,1.53-4.09,5.16-2.56,8.11,1.53,2.95,5.16,4.09,8.11,2.56,2.95-1.53,4.09-5.16,2.56-8.11-.07-.13-.14-.26-.22-.39-1.37-2.72-4.68-3.81-7.4-2.44-.17,.08-.33,.18-.48,.28Z"/>
      <path id="Tracé_143" data-name="Tracé 143" d="M301.46,156.25l-2.03,.62-8.93-10.22-1.67,13.47-2.01,.62-4.4-14.32,1.89-.58,3.27,10.68,1.48-12.15,1.32-.41,8.07,9.23-3.29-10.7,1.88-.58,4.4,14.33Z"/>
      <path id="Tracé_144" data-name="Tracé 144" d="M275.44,153.19l2.89-.21-.47-6.28,1.96-.14,1.11,15.05-4.86,.36c-3.54,.26-5.35-1.56-5.53-4.02-.15-2.29,1.16-4.47,4.89-4.75Zm.12,1.62c-2.25,.17-3.12,1.29-3,2.98,.13,1.75,1.15,2.72,3.4,2.55l2.89-.21-.41-5.53-2.89,.21Z"/>
      <path id="Tracé_145" data-name="Tracé 145" d="M264.69,161.96l1.11-13.44-5.26-.43,.13-1.6,7.23,.59-1.23,15.04-1.97-.17Z"/>
      <path id="Tracé_146" data-name="Tracé 146" d="M248.11,157.52l5.99,1.4,1.15-4.91-5.36-1.25,.37-1.58,5.36,1.25,1.18-5.06-5.99-1.4,.37-1.58,7.91,1.85-3.43,14.72-7.91-1.85,.37-1.59Z"/>
      <path id="Tracé_147" data-name="Tracé 147" d="M243.96,157.92l-9.43-3.93,.61-1.48,3.8,1.58,5.18-12.45,1.82,.76-5.18,12.45,3.82,1.59-.61,1.48Z"/>
      <path id="Tracé_148" data-name="Tracé 148" d="M224.68,146.26l5.21,3.26,2.67-4.28-4.67-2.91,.86-1.38,4.67,2.92,2.75-4.41-5.21-3.26,.86-1.38,6.88,4.3-8.01,12.81-6.88-4.3,.86-1.38Z"/>
      <path id="Tracé_149" data-name="Tracé 149" d="M209,134.11l10.31-8.7-3.41-4.04,1.22-1.03,4.67,5.54-11.54,9.73-1.27-1.51Z"/>
      <path id="Tracé_150" data-name="Tracé 150" d="M208.77,113.18l3.32,5.68,3.5-.65,1.05,1.79-15.7,2.87-1.15-1.96,10.2-12.27,1.05,1.79-2.28,2.74Zm-6.31,7.5l7.94-1.5-2.75-4.71-5.19,6.2Z"/>
      <path id="Tracé_151" data-name="Tracé 151" d="M190.97,98.72c-.82-2.97,.36-6.13,2.93-7.82l.51,2.3c-1.6,1.18-2.31,3.23-1.76,5.14,1,3.16,4.37,4.92,7.53,3.93,2.79-.88,4.54-3.64,4.15-6.54-.32-1.96-1.81-3.51-3.76-3.91l-.51-2.3c3.04,.46,5.43,2.81,5.94,5.84,.83,4.18-1.89,8.23-6.06,9.06-4.04,.8-7.99-1.71-8.98-5.7h0Z"/>
      <path id="Tracé_152" data-name="Tracé 152" d="M204.5,79.63c-.02,4.26-3.48,7.7-7.74,7.68-4.26-.02-7.7-3.48-7.68-7.74,.02-4.26,3.48-7.7,7.74-7.68,.04,0,.09,0,.13,0,4.11-.06,7.49,3.22,7.55,7.33,0,.14,0,.27,0,.41Zm-1.71-.04c.32-3.31-2.11-6.24-5.41-6.56-3.31-.32-6.24,2.11-6.56,5.41-.32,3.31,2.11,6.24,5.41,6.56,.15,.01,.3,.02,.45,.03,3.03,.33,5.75-1.85,6.08-4.88,.02-.19,.03-.37,.03-.56Z"/>
      <path id="Tracé_153" data-name="Tracé 153" d="M190.33,66.23l.58-2.04,13.43-1.95-10.4-8.71,.57-2.02,14.41,4.09-.54,1.89-10.75-3.05,9.38,7.84-.38,1.33-12.13,1.75,10.77,3.06-.54,1.89-14.41-4.09Z"/>
      <path id="Tracé_154" data-name="Tracé 154" d="M207.04,46.05l-1.4,2.54,5.53,3.04-.95,1.73-13.23-7.26,2.34-4.27c1.71-3.11,4.22-3.64,6.38-2.45,2.02,1.1,3.14,3.39,1.34,6.67Zm-1.42-.78c1.08-1.97,.61-3.32-.87-4.13-1.54-.84-2.91-.51-3.99,1.47l-1.4,2.54,4.86,2.67,1.4-2.54Z"/>
      <path id="Tracé_155" data-name="Tracé 155" d="M205.56,32.22l10.66,8.26,3.24-4.18,1.27,.98-4.44,5.73-11.92-9.24,1.19-1.56Z"/>
      <path id="Tracé_156" data-name="Tracé 156" d="M218.3,20.77l-4.44,4.26,3.5,3.64,3.97-3.81,1.13,1.17-3.97,3.81,3.6,3.74,4.44-4.26,1.13,1.17-5.84,5.63-10.48-10.89,5.84-5.63,1.12,1.18Z"/>
      <path id="Tracé_157" data-name="Tracé 157" d="M220.19,17.07l8.41-5.79,.91,1.32-3.39,2.34,7.65,11.11-1.62,1.12-7.65-11.11-3.41,2.34-.9-1.32Z"/>
      <path id="Tracé_158" data-name="Tracé 158" d="M240.45,7.21l-5.57,2.61,2.14,4.57,4.98-2.34,.7,1.47-4.98,2.34,2.21,4.7,5.57-2.61,.69,1.47-7.36,3.44-6.42-13.68,7.35-3.45,.69,1.47Z"/>
    </g>
  </g>
  <g>
    <path class="cls-1" d="M349.82,179.09l-.23-2.98,21.28-1.65,.23,2.98-8.87,.69,1.84,23.63-3.54,.28-1.84-23.63-8.87,.69Z"/>
    <path class="cls-1" d="M373.78,178.12l-.3-3.88,3.17-.25,.3,3.88-3.17,.25Zm3.44,3.22l1.5,19.27-3.17,.25-1.5-19.27,3.17-.25Z"/>
    <path class="cls-1" d="M385.12,180.73l.22,2.83h.07c1.27-2.3,3.26-3.56,5.97-3.77,1.19-.09,2.29,.07,3.3,.49,1.01,.42,1.76,1.21,2.25,2.37,.56-1.09,1.35-1.97,2.36-2.62,1.01-.65,2.15-1.03,3.42-1.13,.97-.08,1.85-.04,2.65,.11,.8,.15,1.5,.43,2.09,.83,.59,.4,1.07,.95,1.44,1.63,.37,.68,.59,1.52,.66,2.52l1.1,14.13-3.17,.25-.98-12.63c-.05-.6-.14-1.15-.28-1.67s-.36-.95-.66-1.32c-.3-.36-.71-.64-1.21-.82-.5-.19-1.14-.25-1.91-.19-1.57,.12-2.76,.66-3.59,1.63s-1.18,2.19-1.06,3.68l.93,12-3.17,.25-.98-12.63c-.05-.62-.15-1.19-.3-1.7-.15-.51-.38-.95-.68-1.32-.3-.36-.69-.63-1.17-.81-.48-.18-1.07-.24-1.8-.18-.92,.07-1.69,.32-2.32,.74-.63,.42-1.13,.91-1.5,1.47-.37,.55-.63,1.12-.77,1.69s-.2,1.05-.17,1.42l.93,12-3.17,.25-1.5-19.27,2.98-.23Z"/>
    <path class="cls-1" d="M428.97,195.47c-1.36,1.21-3.13,1.89-5.31,2.06-1.54,.12-2.9-.03-4.06-.43-1.17-.41-2.17-1.03-3.01-1.87-.84-.83-1.5-1.86-1.98-3.07-.48-1.21-.8-2.55-.97-4.01-.11-1.47,0-2.82,.36-4.08,.35-1.25,.9-2.36,1.64-3.31,.74-.96,1.64-1.73,2.71-2.31,1.07-.58,2.26-.93,3.58-1.03,1.71-.13,3.16,.11,4.35,.73,1.19,.62,2.16,1.45,2.93,2.49,.77,1.04,1.33,2.2,1.69,3.47,.36,1.27,.56,2.49,.6,3.67l-14.42,1.12c.04,.85,.2,1.64,.48,2.38,.28,.74,.69,1.38,1.24,1.93,.54,.55,1.21,.96,2.01,1.25,.8,.29,1.72,.39,2.76,.31,1.34-.1,2.42-.5,3.23-1.19s1.3-1.68,1.48-2.96l3.13-.24c-.26,2.19-1.06,3.89-2.42,5.1Zm-1.73-12.31c-.34-.65-.77-1.2-1.29-1.64-.52-.45-1.12-.79-1.8-1.02-.68-.23-1.42-.32-2.21-.26s-1.55,.26-2.18,.6c-.64,.34-1.17,.77-1.6,1.31-.43,.53-.76,1.14-.98,1.82-.22,.68-.33,1.39-.32,2.14l11.07-.86c-.11-.74-.33-1.44-.67-2.09Z"/>
    <path class="cls-1" d="M452.54,175.49l.22,2.8-3.84,.3,.93,11.96c.03,.37,.08,.67,.16,.89,.08,.22,.21,.38,.39,.49,.18,.11,.43,.17,.75,.19,.31,.01,.72,0,1.22-.04l1.45-.11,.22,2.8-2.42,.19c-.82,.06-1.53,.06-2.12,0-.59-.07-1.08-.23-1.46-.5-.38-.27-.68-.67-.9-1.2-.22-.53-.36-1.25-.43-2.14l-.95-12.26-3.28,.25-.22-2.8,3.28-.25-.45-5.78,3.17-.25,.45,5.78,3.84-.3Z"/>
    <path class="cls-1" d="M456.04,180.94c.3-1.26,.81-2.37,1.54-3.34,.72-.97,1.65-1.76,2.78-2.37,1.13-.61,2.45-.98,3.96-1.1s2.91,.04,4.1,.47c1.2,.43,2.23,1.07,3.09,1.92,.87,.85,1.54,1.87,2.04,3.07,.49,1.2,.79,2.51,.9,3.92s.01,2.75-.29,4c-.3,1.25-.82,2.36-1.54,3.33-.72,.97-1.64,1.75-2.76,2.35-1.12,.6-2.44,.96-3.98,1.08s-2.88-.03-4.08-.45c-1.21-.42-2.24-1.05-3.11-1.9-.87-.85-1.54-1.86-2.04-3.05-.49-1.19-.79-2.49-.9-3.9s-.01-2.75,.29-4.02Zm3.77,6.83c.38,.88,.87,1.61,1.46,2.17,.59,.57,1.27,.98,2.03,1.25,.76,.27,1.55,.37,2.37,.3s1.58-.29,2.29-.67c.71-.38,1.31-.89,1.81-1.55,.5-.65,.87-1.44,1.11-2.37,.24-.93,.31-1.98,.22-3.15s-.33-2.19-.71-3.08c-.38-.88-.87-1.61-1.46-2.19-.59-.58-1.27-1-2.03-1.27-.76-.27-1.55-.37-2.37-.3s-1.58,.29-2.29,.67c-.71,.38-1.31,.9-1.81,1.57-.5,.66-.87,1.46-1.11,2.39-.24,.93-.31,1.98-.22,3.15s.33,2.19,.71,3.08Z"/>
    <path class="cls-1" d="M491.38,187.52c.34,.46,.76,.82,1.26,1.06s1.07,.41,1.69,.49c.62,.08,1.25,.09,1.9,.04,.5-.04,1.02-.12,1.56-.23,.54-.12,1.03-.29,1.48-.53,.44-.23,.8-.56,1.07-.96,.27-.41,.38-.91,.33-1.51-.06-.82-.42-1.42-1.08-1.79-.65-.37-1.46-.66-2.41-.84s-1.98-.35-3.09-.47c-1.11-.13-2.15-.34-3.11-.66-.96-.31-1.78-.79-2.46-1.44-.68-.65-1.06-1.59-1.16-2.83-.08-.97,.08-1.82,.46-2.55s.9-1.34,1.55-1.83c.65-.49,1.39-.87,2.24-1.15,.84-.28,1.68-.45,2.53-.52,1.09-.08,2.11-.07,3.04,.04,.93,.12,1.77,.37,2.52,.78,.74,.4,1.36,.98,1.84,1.73,.48,.75,.81,1.71,.97,2.87l-3.17,.25c-.1-.62-.3-1.12-.6-1.51-.31-.39-.68-.69-1.12-.91s-.92-.36-1.44-.43c-.52-.07-1.04-.09-1.56-.05-.47,.04-.95,.11-1.43,.22-.48,.11-.91,.28-1.29,.49-.38,.22-.69,.49-.91,.82-.22,.33-.32,.74-.28,1.24,.04,.55,.27,.99,.68,1.32,.41,.33,.93,.59,1.54,.78,.61,.19,1.3,.34,2.06,.44,.76,.1,1.52,.21,2.28,.33,.81,.11,1.6,.26,2.38,.45,.78,.19,1.47,.47,2.09,.83,.62,.36,1.13,.84,1.54,1.44,.41,.59,.65,1.35,.72,2.27,.09,1.17-.08,2.16-.5,2.96-.42,.81-1.01,1.48-1.76,2.01-.75,.53-1.6,.93-2.57,1.19-.97,.26-1.94,.43-2.9,.51-1.07,.08-2.1,.05-3.08-.1-.99-.15-1.87-.45-2.66-.9-.79-.45-1.43-1.08-1.95-1.87-.51-.8-.84-1.79-.98-2.98l3.17-.25c.08,.69,.29,1.27,.62,1.73Z"/>
    <path class="cls-1" d="M509.03,163.71l.79,10.17h.07c.2-.62,.51-1.15,.93-1.6,.42-.44,.89-.82,1.43-1.12,.54-.3,1.11-.54,1.71-.71,.6-.17,1.18-.28,1.76-.32,1.27-.1,2.34,0,3.21,.28,.87,.28,1.59,.71,2.16,1.29s.99,1.29,1.27,2.13c.28,.84,.46,1.78,.54,2.83l.99,12.67-3.17,.25-1.01-13.05c-.09-1.19-.51-2.11-1.26-2.75-.75-.64-1.73-.92-2.95-.82-.97,.08-1.8,.29-2.48,.64-.69,.35-1.24,.82-1.67,1.4-.43,.58-.73,1.25-.91,2-.18,.75-.23,1.56-.17,2.43l.85,10.88-3.17,.25-2.07-26.61,3.17-.25Z"/>
    <path class="cls-1" d="M527.07,166.21l-.3-3.88,3.17-.25,.3,3.88-3.17,.25Zm3.44,3.22l1.5,19.27-3.17,.25-1.5-19.27,3.17-.25Z"/>
    <path class="cls-1" d="M538.41,168.81l.24,3.06h.07c1.14-2.44,3.13-3.77,5.99-4,1.27-.1,2.34,0,3.21,.28,.87,.28,1.59,.71,2.16,1.29s.99,1.29,1.27,2.13c.28,.84,.46,1.78,.54,2.83l.99,12.67-3.17,.25-1.01-13.05c-.09-1.19-.51-2.11-1.26-2.75-.75-.64-1.73-.92-2.95-.82-.97,.08-1.8,.29-2.48,.64-.69,.35-1.24,.82-1.67,1.4-.43,.58-.73,1.25-.91,2-.18,.75-.23,1.56-.17,2.43l.85,10.88-3.17,.25-1.5-19.27,2.98-.23Z"/>
    <path class="cls-1" d="M571.19,184.41c-1.36,1.21-3.13,1.89-5.31,2.06-1.54,.12-2.9-.03-4.06-.43-1.17-.41-2.17-1.03-3.01-1.87-.84-.83-1.5-1.86-1.98-3.07-.48-1.21-.8-2.55-.97-4.01-.11-1.47,0-2.82,.36-4.08,.35-1.25,.9-2.36,1.64-3.31,.74-.96,1.64-1.73,2.71-2.31,1.07-.58,2.26-.93,3.58-1.03,1.71-.13,3.16,.11,4.35,.73,1.19,.62,2.16,1.45,2.93,2.49,.77,1.04,1.33,2.2,1.69,3.47,.36,1.27,.56,2.49,.6,3.67l-14.42,1.12c.04,.85,.2,1.64,.48,2.38,.28,.74,.69,1.38,1.24,1.93,.54,.55,1.21,.96,2.01,1.25,.8,.29,1.72,.39,2.76,.31,1.34-.1,2.42-.5,3.23-1.19s1.3-1.68,1.48-2.96l3.13-.24c-.26,2.19-1.06,3.89-2.42,5.1Zm-1.73-12.31c-.34-.65-.77-1.2-1.29-1.64-.52-.45-1.12-.79-1.8-1.02-.68-.23-1.42-.32-2.21-.26s-1.55,.26-2.18,.6c-.64,.34-1.17,.77-1.6,1.31-.43,.53-.76,1.14-.98,1.82-.22,.68-.33,1.39-.32,2.14l11.07-.86c-.11-.74-.33-1.44-.67-2.09Z"/>
  </g>
</svg>