<?xml version="1.0" encoding="UTF-8"?>
<svg id="Calque_1" data-name="Calque 1" xmlns="http://www.w3.org/2000/svg" viewBox="0 0 209.87 200.78">
  <defs>
    <style>
      .cls-1 {
        fill: none;
        stroke: #030007;
        stroke-linecap: round;
        stroke-miterlimit: 10;
        stroke-width: 1.5px;
      }

      .cls-2 {
        fill: #f59ec1;
      }
    </style>
  </defs>
  <g>
    <path class="cls-2" d="M163.85,117.56c0-12.45-9.21-22.99-21.55-24.66,9.79-9.66,9.89-25.42,.24-35.2s-25.42-9.89-35.2-.24c-.3,.3-.6,.61-.88,.92,0-13.75-11.16-24.89-24.91-24.88-13.43,0-24.43,10.66-24.87,24.08-.06-.06,.06,.06,0,0-.31,6.4-5.62,10.57-11.93,10.57s-11.78-4.6-11.78-11.34c0-2.31,.65-4.37,1.75-6.08-4.86,.87-9.52,3.18-13.27,6.95-9.7,9.75-9.65,25.53,.1,35.22C7.93,94.75-1.62,107.29,.23,120.91c1.53,11.31,10.55,20.12,21.89,21.39-8.13,11.08-5.73,26.65,5.35,34.78,8.96,6.57,21.2,6.4,29.98-.42,.42,13.73,11.9,24.52,25.64,24.1,12.92-.4,23.38-10.63,24.08-23.53,11.16,8.01,26.71,5.46,34.72-5.7,6.28-8.75,6.22-20.54-.15-29.23,12.59-1.42,22.12-12.07,22.12-24.74Zm-108.03,14.56c0,1.02-.4,1.55-1.02,1.55-.97,0-1.59-1.55-4.25-1.55H30.27c-2.66,0-3.28,1.55-4.25,1.55-.62,0-1.02-.53-1.02-1.55,0-3.06-3.1-5.09-3.1-6.51,0-.62,.53-1.02,1.55-1.02h27.1c2.66,0,3.28-1.55,4.25-1.55,.62,0,1.02,.53,1.02,1.55v7.53Zm-11.07-12.62c-6.51,0-11.78-4.6-11.78-11.34s5.27-11.29,11.78-11.29,11.78,4.65,11.78,11.29-5.27,11.34-11.78,11.34Zm14.35-25.99c-1.86,0-3.37-1.51-3.37-3.37s1.51-3.32,3.37-3.32c2.04,0,3.63-.58,3.63-3.81,0-2.08-1.06-3.81-3.32-3.81-6.02,0-3.28,14.26-8.99,14.26-1.2,0-2.04-.97-2.75-2.26-1.55,1.64-3.63,2.57-5.89,2.57-4.87,0-8.81-4.25-8.81-10.85,0-1.24,.13-2.39,.4-3.41,.71-3.41-2.75-5.05-2.75-7.08,0-1.28,1.02-2.3,2.3-2.3s2.26,1.02,2.26,2.3c0,1.2-.18,2.04-.27,3.5,1.59-2.39,4.07-3.81,6.86-3.81,4.87,0,8.81,4.3,8.81,10.8,0,2.48-.53,4.6-1.51,6.33,.18,.09,.35,.13,.49,.13,3.63,0,.18-17.98,8.99-17.98,3.85,0,6.82,4.07,6.82,11.6,0,6.69-2.66,10.49-6.29,10.49Z"/>
    <path class="cls-2" d="M44.75,104.63c-6.11,0-9.12,1.06-9.12,3.54s3.01,3.59,9.12,3.59,9.12-1.11,9.12-3.59-3.01-3.54-9.12-3.54Z"/>
    <path class="cls-2" d="M41.78,79.66c-3.85,0-6.16,1.02-6.16,3.28s2.3,3.32,6.16,3.32,6.16-1.02,6.16-3.32-2.26-3.28-6.16-3.28Z"/>
    <path class="cls-2" d="M44.75,60.4c6.11,0,9.12-1.11,9.12-3.59s-3.01-3.54-9.12-3.54-9.12,1.06-9.12,3.54,3.01,3.59,9.12,3.59Z"/>
  </g>
  <path id="Tracé_105" data-name="Tracé 105" class="cls-1" d="M102.3,18.56c-15.89,4.03-30.03,15.92-32.75,31.39-1.64,9.33,.95,19.18,6.05,27.48,5.1,8.3,12.59,15.13,20.87,20.65,14.52,9.68,31.47,15.49,48.59,19.42,10.61,2.44,21.58,4.21,32.29,2.84,10.71-1.38,21.24-6.29,27.01-14.88,8.02-11.93,5.17-28.48-3.21-40.6s-21.31-20.66-34.2-28.4C143.55,22.4,118.96,9.86,92.73,1.84c-2.46-.75-5.08-1.47-7.55-.87"/>
  <path id="Tracé_105-2" data-name="Tracé 105" class="cls-1" d="M156.81,26.41c-20.46-7.13-42.84-6.41-62.79,2.03-8.98,3.9-17.31,9.52-22.83,17.29s-7.95,17.84-5.09,26.99c3.24,10.35,12.56,18.1,22.41,23.54,9.68,5.35,20.23,9.07,30.91,12.11,11.13,3.17,22.55,5.63,34.09,5.86s23.24-1.9,33.05-7.42c3.93-2.11,7.41-4.96,10.26-8.4,3.93-5.18,6.13-11.46,6.29-17.95,.58-13.41-5.98-26.72-15.85-36.58-9.87-9.86-22.77-16.55-36.16-21.18"/>
  <g>
    <path d="M95,41.38l1.11,.31-1.93,6.96c-.64,2.3,.31,3.56,2.03,4.04s3.16-.13,3.79-2.43l1.93-6.96,1.11,.31-1.93,6.95c-.81,2.93-2.94,3.73-5.19,3.11s-3.66-2.41-2.85-5.34c0,0,1.93-6.95,1.93-6.95Z"/>
    <path d="M110.29,52.21c.53-1.92-.24-3.19-1.82-3.63s-3.02,.25-3.6,2.36l-1.31,4.72-1.11-.31,2.4-8.64,1.11,.31-.41,1.47c.85-.92,2.11-1.17,3.4-.81,1.96,.54,3.18,2.18,2.48,4.71l-1.4,5.07-1.09-.3,1.37-4.94h-.02Z"/>
    <path d="M124.64,56.19c.53-1.92-.24-3.19-1.82-3.63s-3.02,.25-3.6,2.36l-1.31,4.72-1.11-.31,2.4-8.64,1.11,.31-.41,1.47c.85-.92,2.11-1.17,3.4-.81,1.96,.54,3.18,2.18,2.48,4.71l-1.4,5.07-1.09-.3,1.37-4.94h-.02Z"/>
    <path d="M130.57,63.29c-2.44-.68-3.82-2.9-3.06-5.64s3.13-3.92,5.55-3.25,3.85,2.89,3.09,5.65-3.15,3.92-5.59,3.24h0Zm.27-.97c1.63,.45,3.52-.22,4.18-2.59s-.59-3.91-2.23-4.37-3.49,.23-4.15,2.6,.55,3.9,2.2,4.36Z"/>
    <path d="M144.47,67.01l-1.11-.31,.42-1.52c-.83,.95-2.12,1.2-3.4,.85-1.96-.54-3.18-2.18-2.48-4.71l1.4-5.05,1.09,.3-1.36,4.92c-.53,1.92,.24,3.19,1.82,3.63s3.02-.25,3.6-2.36l1.3-4.7,1.11,.31-2.4,8.64h0Z"/>
    <path d="M149.56,59.11l.81,8.37,5.01-6.76,1.17,.32-5.86,7.68-1.25-.35-1.07-9.6,1.19,.33h0Z"/>
    <path d="M159.36,71.27c-2.45-.68-3.77-2.89-3.01-5.62s2.99-3.96,5.48-3.27,3.58,2.94,2.97,5.14c-.1,.35-.16,.57-.27,.86l-7.17-1.99c-.47,2.05,.65,3.5,2.26,3.95,1.47,.41,2.68-.09,3.32-1.16l1.17,.32c-.85,1.52-2.58,2.37-4.75,1.77Zm-1.75-5.79l6.08,1.69c.6-2-.57-3.41-2.17-3.86s-3.22,.2-3.91,2.17Z"/>
    <path d="M171.56,65.08c1.74,.48,2.67,1.75,2.86,2.97l.53-1.9,1.11,.31-2.4,8.64-1.11-.31,.53-1.92c-.81,.97-2.28,1.57-4,1.09-2.36-.65-3.63-2.9-2.88-5.61s2.99-3.94,5.36-3.29v.02Zm-.06,1.02c-1.82-.5-3.56,.38-4.17,2.58s.42,3.88,2.24,4.39,3.58-.44,4.18-2.59-.47-3.88-2.25-4.37h0Z"/>
    <path d="M183.68,77.88l-1.11-.31,.42-1.52c-.83,.95-2.12,1.2-3.4,.85-1.96-.54-3.18-2.18-2.48-4.71l1.4-5.05,1.09,.3-1.36,4.92c-.53,1.92,.24,3.19,1.82,3.63s3.02-.25,3.6-2.36l1.3-4.7,1.11,.31-2.4,8.64h0Z"/>
    <path d="M110.6,68.77l.81,8.37,5.01-6.76,1.17,.32-5.86,7.68-1.25-.35-1.07-9.6,1.19,.33h0Z"/>
    <path d="M119.53,68.6c.13-.47,.59-.71,1.03-.58s.72,.56,.58,1.03-.59,.72-1.04,.6-.71-.57-.58-1.05h0Zm-.43,2.52l1.11,.31-2.4,8.64-1.11-.31,2.4-8.64Z"/>
    <path d="M123.27,81.72c-1.96-.54-3.07-1.91-2.77-3.53l1.14,.32c-.17,.98,.47,1.88,1.87,2.28,1.23,.34,2.12-.13,2.34-.95,.59-2.14-4.95-2.33-4.05-5.57,.36-1.28,1.87-2,3.69-1.5s2.8,1.83,2.43,3.52l-1.11-.31c.2-.98-.31-1.91-1.62-2.27-1.16-.32-2.05,.1-2.27,.85-.65,2.34,4.81,2.51,4.01,5.58-.39,1.39-1.89,2.08-3.68,1.59h.02Z"/>
    <path d="M134.46,75.24c1.74,.48,2.67,1.75,2.86,2.97l.53-1.9,1.11,.31-2.4,8.64-1.11-.31,.53-1.92c-.81,.97-2.28,1.57-4,1.09-2.36-.65-3.63-2.9-2.88-5.61s2.99-3.94,5.36-3.29v.02Zm-.06,1.02c-1.82-.5-3.56,.38-4.17,2.58s.42,3.88,2.24,4.39,3.58-.44,4.18-2.59-.47-3.88-2.25-4.37h0Z"/>
    <path d="M145.14,78.21c1.71,.47,2.67,1.73,2.86,2.96l.52-1.88,1.11,.31-2.46,8.86c-.67,2.42-2.78,3.56-5.15,2.9-2.23-.62-3.47-2.19-3.31-4.09l1.09,.3c.04,1.27,.91,2.38,2.49,2.82s3.23-.28,3.78-2.24l.59-2.14c-.81,.97-2.28,1.57-3.99,1.09-2.37-.66-3.64-2.9-2.89-5.61s2.99-3.94,5.36-3.29h0Zm-.06,1.03c-1.82-.5-3.56,.38-4.17,2.58s.42,3.88,2.24,4.39,3.58-.44,4.18-2.59-.47-3.88-2.25-4.37h0Z"/>
    <path d="M153.47,90.1c-2.45-.68-3.77-2.89-3.01-5.62s2.99-3.96,5.48-3.27,3.58,2.94,2.97,5.14c-.1,.35-.16,.57-.27,.86l-7.17-1.99c-.47,2.05,.65,3.5,2.26,3.95,1.47,.41,2.68-.09,3.32-1.16l1.17,.32c-.85,1.52-2.58,2.37-4.75,1.77Zm-1.75-5.79l6.08,1.69c.6-2-.57-3.41-2.17-3.86s-3.22,.2-3.91,2.17Z"/>
  </g>
  <path id="Tracé_105-3" data-name="Tracé 105" class="cls-1" d="M151.1,22.7c-15.69-5.42-32.91-8.17-48.8-4.14"/>
  <path id="Tracé_105-4" data-name="Tracé 105" class="cls-1" d="M102.3,18.56c-15.89,4.03-30.03,15.92-32.75,31.39-1.64,9.33,.95,19.18,6.05,27.48,5.1,8.3,12.59,15.13,20.87,20.65,14.52,9.68,31.47,15.49,48.59,19.42,10.61,2.44,21.58,4.21,32.29,2.84,10.71-1.38,21.24-6.29,27.01-14.88,8.02-11.93,5.17-28.48-3.21-40.6s-21.31-20.66-34.2-28.4C143.55,22.4,118.96,9.86,92.73,1.84c-2.46-.75-5.08-1.47-7.55-.87"/>
</svg>