<?xml version="1.0" encoding="UTF-8"?>
<svg id="Calque_1" data-name="Calque 1" xmlns="http://www.w3.org/2000/svg" viewBox="0 0 278.77 188.15">
  <defs>
    <style>
      .cls-1 {
        fill: #aecbf0;
      }

      .cls-2 {
        fill: none;
        stroke: #000;
        stroke-linecap: round;
        stroke-linejoin: round;
        stroke-width: 1.5px;
      }
    </style>
  </defs>
  <g id="Groupe_26" data-name="Groupe 26">
    <path id="Tracé_119" data-name="Tracé 119" class="cls-2" d="M208.26,82.45c.5,16.61-2.82,33.11-9.71,48.33-1.75,3.84-3.79,7.69-7.05,10.46s-8,4.28-12.06,2.79c-5.05-1.84-7.42-7.42-8.41-12.55-.67-2.65-.67-5.42,0-8.07,.73-2.69,2.96-4.76,5.77-5.35,4.06-.57,7.45,2.98,9.33,6.5,5.32,9.93,5.15,21.74,3.71,32.84-.95,7.3-2.54,14.87-7.29,20.63-6.57,7.97-18.35,10.84-28.66,8.67-10.3-2.17-19.16-8.73-25.86-16.6-6.69-7.87-5.63-6.8-10.35-15.9"/>
    <path id="Tracé_120" data-name="Tracé 120" class="cls-2" d="M123.08,149.66l-5.75,4.14-5.75,4.14-.84-6.87-.84-6.87,6.58,2.74,6.58,2.74Z"/>
  </g>
  <g>
    <path class="cls-1" d="M64.31,97.88c-3.51,0-4.9,4.13-4.9,9.1s1.39,8.91,4.9,8.91c2.89,0,4.13-2.46,4.13-4.6v-8.64c0-2.14-1.25-4.78-4.13-4.78Z"/>
    <path class="cls-1" d="M120.19,97.42c-2.69,0-3.89,3.16-3.89,9.56s1.2,9.56,3.89,9.56,3.85-3.16,3.85-9.56-1.15-9.56-3.85-9.56Z"/>
    <path class="cls-1" d="M65.9,60.82c2.69,0,3.85-3.16,3.85-9.56s-1.15-9.56-3.85-9.56-3.89,3.16-3.89,9.56,1.2,9.56,3.89,9.56Z"/>
    <path class="cls-1" d="M143.61,60.31c1.2,0,1.96-.49,2.46-1.12-1.77-1.4-3.77-2.55-5.93-3.41-.08,.3-.13,.62-.13,.95,0,1.21,.77,3.58,3.61,3.58Z"/>
    <path class="cls-1" d="M147.26,61.33c-1.2,1.07-3.61,2.28-7.12,2.28-5.96,0-8.56-3.25-8.56-6.87s2.97-5.66,6.3-6.8c.29-.45,.57-.9,.82-1.36-.52,.28-1.1,.46-1.73,.46-2.02,0-3.65-1.58-3.65-3.53,0-3.28,3.1-5.74,7.99-6.41,.27-6.08-1.95-12.25-6.72-16.92-9.12-8.93-24-9.03-33.24-.23-.29,.27-.57,.56-.84,.84C100.56,10.25,90.07,.05,77.09,0c-12.76-.05-23.23,9.74-23.59,22.06-9.21-8.84-24.1-8.8-33.26,.09-5.4,5.24-7.57,12.39-6.58,19.19,1.78-.96,3.12-2.43,4.16-2.43,.67,0,1.11,.56,1.11,1.63v.37c1.35-.98,3.65-2,6.15-2,3.46,0,5.77,1.11,7.12,2.88,1.63-1.39,4.38-2.88,7.69-2.88,6.11,0,8.65,3.48,8.65,7.89v10.54c0,2.79,1.68,3.44,1.68,4.46,0,.65-.58,1.07-1.68,1.07h-8.17c-1.11,0-1.68-.42-1.68-1.07,0-1.02,1.68-1.67,1.68-4.46v-10.54c0-2.14-.91-4.6-3.32-4.6s-3.32,2.46-3.32,4.6v10.54c0,2.79,1.68,3.44,1.68,4.46,0,.65-.58,1.07-1.68,1.07h-8.17c-1.11,0-1.68-.42-1.68-1.07,0-1.02,1.68-1.67,1.68-4.46v-10.54c0-2.14-.91-4.6-3.32-4.6s-3.32,2.46-3.32,4.6v5.96c.45,.52,.91,1.02,1.42,1.51-.48,.06-.95,.17-1.42,.26v2.81c0,2.79,1.68,3.44,1.68,4.46,0,.65-.58,1.07-1.68,1.07H10.74c-1.11,0-1.68-.42-1.68-1.07,0-.97,1.49-1.62,1.65-4.05C3.33,62.38-1.05,70.83,.22,79.82c.91,6.45,4.59,12.01,9.84,15.55h7.61c1.11,0,1.68,.42,1.68,1.07,0,.73-.77,1.23-.78,2.5,.76,.16,1.52,.29,2.3,.37-.58,.76-1.08,1.55-1.54,2.35l3.87,9.27,4.13-10.03c1.06-2.6-.05-3.44-.05-4.46,0-.65,.58-1.07,1.68-1.07h3.27c1.11,0,1.68,.42,1.68,1.07,0,1.02-2.26,1.86-3.32,4.46l-5.72,13.98,.24,.6c.53,1.21,.24,3.11-2.16,3.11h-2.84c-1.66,0-2.8-1.35-3.61-3.25,.73,6.05,3.93,11.8,9.42,15.69,8.46,5.99,20.02,5.84,28.3-.38,.4,12.52,11.25,22.36,24.22,21.97,12.19-.37,22.07-9.69,22.73-21.45,10.54,7.3,25.22,4.97,32.78-5.21,5.92-7.97,5.87-18.71-.13-26.63,11.89-1.29,20.88-11.01,20.89-22.57,0-5.23-1.87-10.08-5-13.95-1.2-.15-2.03-.71-2.45-1.47Zm-106.47,23.13c2.45,0,4.47,1.95,4.47,4.41s-1.97,4.41-4.47,4.41-4.52-1.95-4.52-4.41,2.02-4.41,4.52-4.41Zm4.66,34.13h-8.17c-1.11,0-1.68-.42-1.68-1.07,0-1.02,1.68-1.67,1.68-4.46v-9.66c0-2.79-1.68-3.44-1.68-4.46,0-.65,.58-1.07,1.68-1.07,3.32,0,5.53-3.25,7.07-3.25,.67,0,1.11,.56,1.11,1.63v16.81c0,2.79,1.68,3.44,1.68,4.46,0,.65-.58,1.07-1.68,1.07Zm20.44-79.68c7.21,0,12.26,5.53,12.26,12.35s-5.05,12.35-12.26,12.35-12.31-5.53-12.31-12.35,5-12.35,12.31-12.35Zm10.72,79.68h-4.81c-1.54,0-2.55-.65-3.03-1.49-1.15,1.02-2.93,2.23-6.11,2.23-7.55,0-11.68-5.76-11.68-12.35s4.13-12.35,11.68-12.35c2.89,0,4.62,1.02,5.77,1.95v-4.78c0-2.79-1.68-3.44-1.68-4.46,0-.65,.58-1.07,1.68-1.07,3.32,0,5.53-3.25,7.07-3.25,.67,0,1.11,.56,1.11,1.63v28.41c0,2.79,1.68,3.44,1.68,4.46,0,.65-.58,1.07-1.68,1.07ZM113.31,39.46c3.94-.74,4.86-6.04,7.07-6.04,.67,0,1.11,.56,1.11,1.63v4.6h3.22c1.39,0,2.07,.6,2.07,1.39s-.67,1.39-2.07,1.39h-3.22v8.91c0,6.31,.87,7.61,3.03,7.61,1.59,0,2.55-1.3,3.32-2.18,.29-.37,.63-.51,1.01-.51,.48,0,.82,.37,.82,1.11,0,1.81-1.49,6.22-7.07,6.22-6.3,0-9.28-4.41-9.28-9.61v-8.82c0-2.79-2.07-2.83-2.07-4.27,0-.98,.91-1.21,2.07-1.44Zm-18.85,57.95c-3.27,0-4.47,3.2-4.47,7.29,0,5.9,3.22,9.98,7.64,9.98,1.87,0,3.27-1.02,4.47-2.18,.34-.32,.63-.51,1.01-.51,.48,0,.82,.37,.82,1.11,0,1.81-2.84,6.22-9.47,6.22-7.31,0-12.31-5.53-12.31-12.35s5-12.35,12.31-12.35c6.3,0,10.77,3.71,10.77,8.22,0,6.22-8.32,9.01-12.02,9.01-.58,0-.96-.14-.96-.51,0-1.39,5.38-3.58,5.38-10.12,0-2.14-.96-3.81-3.17-3.81Zm-1.3-10.96c.19-1.72,1.54-1.81,2.88-1.81,1.83,0,3.56,.09,2.55,1.81-2.88,4.97-6.01,6.5-7.21,6.5-1.59,0,1.3-2.32,1.78-6.5Zm5.34-23.6c-1.11,0-1.68-.42-1.68-1.07,0-1.02,1.68-1.67,1.68-4.46v-10.54c0-2.14-.91-4.6-3.32-4.6s-3.32,2.46-3.32,4.6v10.54c0,2.79,1.68,3.44,1.68,4.46,0,.65-.58,1.07-1.68,1.07h-8.17c-1.11,0-1.68-.42-1.68-1.07,0-1.02,1.68-1.67,1.68-4.46v-9.66c0-2.79-1.68-3.44-1.68-4.46,0-.65,.58-1.07,1.68-1.07,3.32,0,5.53-3.25,7.07-3.25,.67,0,1.11,.56,1.11,1.63v.37c1.35-.98,3.65-2,6.15-2,6.11,0,8.65,3.48,8.65,7.89v10.54c0,2.79,1.68,3.44,1.68,4.46,0,.65-.58,1.07-1.68,1.07h-8.17Zm21.69,56.47c-7.31,0-12.31-5.53-12.31-12.35s5-12.35,12.31-12.35,12.26,5.53,12.26,12.35-5.05,12.35-12.26,12.35Z"/>
  </g>
  <g>
    <path d="M171.71,60.09c-.33,2.98-2.49,4.56-5.67,4.21l-3.01-.34,1.07-9.6,3.01,.34c3.18,.35,4.93,2.42,4.6,5.39Zm-5.55,3.18c2.53,.28,4-.98,4.26-3.32s-.9-3.95-3.42-4.23l-1.75-.19-.84,7.55,1.75,.19Z"/>
    <path d="M176.12,65.55c-2.17-.24-3.59-1.93-3.33-4.33s1.97-3.71,4.19-3.47,3.48,1.95,3.25,4.02c-.03,.28-.07,.49-.13,.75l-6.08-.68c-.07,1.54,.92,2.5,2.21,2.64,1.14,.13,1.92-.37,2.29-1.15l1.36,.15c-.54,1.33-1.88,2.27-3.77,2.06Zm-1.96-4.72l4.8,.53c.18-1.47-.84-2.41-2.15-2.55-1.24-.14-2.35,.56-2.66,2.02Zm4.48-6.03l-.12,1.09-3.13,1.24,.1-.94,3.15-1.39Z"/>
    <path d="M192.91,62.96c.17-1.54-.57-2.42-1.82-2.56s-2.24,.57-2.42,2.2l-.46,4.16-1.25-.14,.48-4.27c.17-1.54-.57-2.42-1.82-2.56s-2.24,.57-2.42,2.2l-.46,4.16-1.26-.14,.84-7.55,1.26,.14-.12,1.09c.59-.74,1.54-1.07,2.54-.96,1.25,.14,2.23,.81,2.6,1.99,.57-1.04,1.71-1.51,2.88-1.38,1.74,.19,2.96,1.42,2.72,3.58l-.5,4.45-1.25-.14,.48-4.27Z"/>
    <path d="M199.74,60.28c1.42,.16,2.31,.98,2.66,1.82l.15-1.38,1.28,.14-.84,7.55-1.28-.14,.16-1.41c-.55,.76-1.61,1.37-3.02,1.21-2.03-.23-3.42-1.98-3.16-4.33s2-3.7,4.04-3.47Zm.13,1.12c-1.39-.15-2.68,.72-2.88,2.5s.87,2.96,2.25,3.11,2.7-.75,2.89-2.52-.88-2.93-2.27-3.08Z"/>
    <path d="M206.4,68.79l-1.26-.14,.84-7.55,1.26,.14-.14,1.23c.52-.79,1.4-1.22,2.61-1.09l-.14,1.3-.33-.04c-1.21-.13-2.18,.3-2.38,2.05l-.46,4.11Z"/>
    <path d="M214.32,61.9c1.39,.15,2.31,.98,2.65,1.82l.15-1.38,1.28,.14-1.24,11.13-1.28-.14,.55-4.97c-.52,.72-1.61,1.35-3.03,1.2-2.01-.22-3.41-1.98-3.14-4.32s2-3.7,4.05-3.47Zm.11,1.11c-1.39-.15-2.68,.72-2.88,2.5s.87,2.96,2.25,3.11,2.7-.75,2.89-2.52-.88-2.93-2.27-3.08Z"/>
    <path d="M226.45,71.02l-1.26-.14,.12-1.12c-.57,.73-1.55,1.07-2.57,.96-1.75-.19-3-1.42-2.76-3.59l.49-4.42,1.25,.14-.47,4.26c-.17,1.53,.59,2.41,1.87,2.55s2.27-.56,2.45-2.18l.46-4.15,1.26,.14-.84,7.55Z"/>
    <path d="M231.86,71.75c-2.17-.24-3.59-1.93-3.33-4.33s1.97-3.71,4.19-3.47,3.48,1.95,3.25,4.02c-.03,.28-.07,.49-.13,.75l-6.08-.68c-.07,1.54,.92,2.5,2.21,2.64,1.14,.13,1.92-.37,2.29-1.15l1.36,.15c-.54,1.33-1.88,2.27-3.77,2.06Zm-1.96-4.72l4.8,.53c.18-1.47-.84-2.41-2.15-2.55-1.24-.14-2.35,.56-2.66,2.02Z"/>
    <path d="M242.57,66.2l-4.32,5.08,3.73,.42-.11,1.03-5.18-.58,.11-1.03,4.3-5.09-3.66-.41,.11-1.02,5.12,.57-.11,1.02Z"/>
    <path d="M248.52,65.83l1.66,6.66,3.07-6.13,1.35,.15-3.82,7.22-1.47-.16-2.14-7.88,1.36,.15Z"/>
    <path d="M258.31,74.69c-2.15-.24-3.62-1.94-3.35-4.33s2.13-3.7,4.28-3.46,3.68,1.93,3.41,4.31-2.17,3.72-4.34,3.48Zm.12-1.1c1.32,.15,2.71-.61,2.92-2.52s-.95-2.94-2.26-3.08-2.64,.61-2.85,2.51,.87,2.94,2.19,3.09Z"/>
    <path d="M270.64,75.94l-1.26-.14,.12-1.12c-.57,.73-1.55,1.07-2.57,.96-1.75-.19-3-1.42-2.76-3.59l.49-4.42,1.25,.14-.47,4.26c-.17,1.53,.59,2.41,1.87,2.55s2.27-.56,2.45-2.18l.46-4.15,1.26,.14-.84,7.55Z"/>
    <path d="M275.45,76.6c-1.78-.2-2.92-1.3-2.85-2.69l1.3,.15c-.01,.74,.58,1.36,1.65,1.48,1,.11,1.61-.32,1.68-.94,.19-1.68-4.42-1.2-4.11-4.01,.13-1.16,1.33-1.99,3.02-1.8s2.69,1.21,2.61,2.69l-1.26-.14c.03-.76-.49-1.38-1.51-1.49-.93-.1-1.53,.28-1.6,.88-.2,1.79,4.32,1.3,4.08,4.01-.14,1.24-1.34,2.05-3.02,1.87Z"/>
  </g>
</svg>