<?xml version="1.0" encoding="UTF-8"?>
<svg id="Calque_1" data-name="Calque 1" xmlns="http://www.w3.org/2000/svg" viewBox="0 0 326.81 220.65">
  <defs>
    <style>
      .cls-1 {
        fill: #030007;
      }

      .cls-2 {
        fill: #008a6f;
      }

      .cls-3 {
        fill: #fff;
      }

      .cls-4 {
        stroke: #030007;
        stroke-linecap: round;
        stroke-miterlimit: 10;
      }

      .cls-4, .cls-5 {
        fill: none;
      }

      .cls-5 {
        stroke: #fff;
        stroke-miterlimit: 10;
        stroke-width: 1px;
      }
    </style>
  </defs>
  <g>
    <path class="cls-2" d="M93.09,95.97c3.38,0,4.83-4.1,4.83-12.43s-1.45-12.43-4.83-12.43-4.89,4.1-4.89,12.43,1.51,12.43,4.89,12.43Z"/>
    <path class="cls-2" d="M233.4,152.3c0,.22-.01,.44-.01,.66,0,2.99,.62,5.62,1.71,7.72-.2-2.84-.76-5.66-1.69-8.38Z"/>
    <path class="cls-2" d="M126.99,143.5c-3.38,0-4.89,4.1-4.89,12.43s1.51,12.43,4.89,12.43,4.83-4.1,4.83-12.43-1.45-12.43-4.83-12.43Z"/>
    <path class="cls-2" d="M249.68,132.71c.85-.96,1.64-1.97,2.38-3.02-1.07,.72-1.87,1.74-2.38,3.02Z"/>
    <path class="cls-2" d="M52.13,89.15c0,2.77,1.57,5.97,5.19,5.97,4.4,0,6.15-5.13,6.15-11.58,0-1.19-.06-2.35-.19-3.44-4.22,1.56-7.99,3.95-11.15,6.94v2.11Z"/>
    <path class="cls-2" d="M162.7,144.1c-4.4,0-6.15,5.37-6.15,11.82s1.75,11.58,6.15,11.58c3.62,0,5.19-3.2,5.19-5.97v-11.22c0-2.78-1.57-6.21-5.19-6.21Z"/>
    <path class="cls-2" d="M223.56,155.93c0-4.96,1.97-9.4,5.31-12.34-.02-.02-.03-.05-.05-.07,.05,0,.1-.02,.16-.02,2.61-2.26,6.04-3.61,10.02-3.61,.5,0,.98,.02,1.46,.05,1.64-.86,3.18-1.86,4.64-2.97,0-.01,0-.02,0-.04,0-6.41,3.84-10.97,9.7-11.93,2.05-4.29,3.2-9.08,3.2-14.12,0-16.43-12.15-30.32-28.43-32.53,12.92-12.72,13.09-33.51,.36-46.44-12.72-12.92-33.51-13.09-46.44-.36-.42,.41-.82,.83-1.21,1.26C182.26,14.67,167.54-.02,149.4,0c-17.7,.02-32.2,14.06-32.79,31.75-12.87-12.79-33.67-12.74-46.47,.13-9.73,9.78-12.02,24.15-6.91,36.1,6.99,1.77,10.78,8.3,10.78,15.56,0,8.57-5.19,16.04-14.66,16.04-3.62,0-5.79-1.33-7.24-2.53v6.45c0,3.62,2.11,4.46,2.11,5.79,0,.84-.72,1.39-2.11,1.39h-10.25s0,0-.01,0c0,1.52,.08,3.06,.29,4.61,1.45,10.72,8.01,19.74,17.13,24.59,.03,0,.05,0,.08,0,3.83,0,6.94,1.25,9.31,3.28,.78,.14,1.56,.27,2.36,.36-.28,.39-.55,.78-.81,1.17,2.5,2.95,3.8,6.97,3.8,11.24,0,6.43-2.93,12.25-8.39,14.75,1.76,7.25,5.99,13.95,12.49,18.71,11.82,8.66,27.94,8.43,39.51-.55,.55,18.12,15.68,32.36,33.8,31.81,17.05-.52,30.87-14.02,31.78-31.05,14.72,10.58,35.22,7.23,45.8-7.48,2.41-3.35,4.09-7.05,5.09-10.88-6.43-2.05-10.55-8.12-10.55-15.3ZM77.65,83.54c0-8.87,6.27-16.04,15.44-16.04s15.38,7.18,15.38,16.04-6.33,16.04-15.38,16.04-15.44-7.18-15.44-16.04Zm27.81,69.49c-2.47,0-4.52-2.05-4.52-4.58,0-2.77-1.51-4.95-4.58-4.95-3.32,0-5.13,2.77-5.13,6.63v13.69c0,3.62,2.11,4.46,2.11,5.79,0,.84-.72,1.39-2.11,1.39h-10.25c-1.39,0-2.11-.54-2.11-1.39,0-1.33,2.11-2.17,2.11-5.79v-12.55c0-3.62-2.11-4.46-2.11-5.79,0-.84,.72-1.39,2.11-1.39,4.16,0,6.94-4.22,8.87-4.22,.84,0,1.39,.72,1.39,2.11v.48c1.39-1.15,3.98-2.59,7.9-2.59,6.33,0,10.92,3.62,10.92,8.56,0,2.53-2.05,4.58-4.58,4.58Zm21.53,18.94c-9.17,0-15.44-7.18-15.44-16.04s6.27-16.04,15.44-16.04,15.38,7.18,15.38,16.04-6.33,16.04-15.38,16.04Zm17.49-115.93c-4.83,0-7.66,3.02-7.66,8.02,0,2.11,.48,5.13,2.11,8.63,.6,1.03,.9,2.17,.9,3.38,0,2.53-2.05,4.58-4.58,4.58s-4.52-2.05-4.52-4.58c0-2.77-.78-4.95-3.8-4.95-2.17,0-3.98,1.27-3.98,3.32,0,5.85,18.64,6.21,18.64,16.47,0,6.82-8.2,8.69-14.66,8.69-9.11,0-15.14-3.56-15.14-8.57,0-2.53,2.05-4.58,4.58-4.58s4.52,2.05,4.52,4.58c0,2.77,1.87,4.95,5.43,4.95,2.17,0,5.07-.9,5.07-3.26,0-7-18.4-6.21-18.4-16.41,0-5.79,6.21-8.81,13.39-8.81,2.59,0,4.89,.36,6.88,1.03-.24-1.33-.36-2.59-.36-3.98,0-7.24,4.89-12.12,12.06-12.12,7.66,0,11.7,5.97,11.7,11.7v4.34h4.04c1.75,0,2.59,.78,2.59,1.81s-.84,1.81-2.59,1.81h-4.04v11.58c0,8.2,1.09,9.89,3.8,9.89,1.99,0,3.2-1.69,4.16-2.83,.36-.48,.78-.66,1.27-.66,.6,0,1.03,.48,1.03,1.45,0,2.35-1.87,8.08-8.87,8.08-7.9,0-11.64-5.73-11.64-12.49v-11.46c0-3.62-2.59-3.68-2.59-5.55,0-1.27,1.15-1.57,2.59-1.87,3.98-.78,5.01-3.02,5.01-5.37,0-2.53-1.57-6.82-6.94-6.82Zm33.66,114.97h-6.03c-1.93,0-3.2-.84-3.8-1.93-1.45,1.33-3.68,2.9-7.66,2.9-9.47,0-14.66-7.48-14.66-16.04s5.19-16.04,14.66-16.04c3.62,0,5.79,1.33,7.24,2.53v-6.21c0-3.62-2.11-4.46-2.11-5.79,0-.84,.72-1.39,2.11-1.39,4.16,0,6.94-4.22,8.87-4.22,.84,0,1.39,.72,1.39,2.11v36.92c0,3.62,2.11,4.46,2.11,5.79,0,.84-.72,1.39-2.11,1.39Zm38.48,0h-6.03c-1.93,0-3.2-.84-3.8-1.93-1.63,1.33-4.77,2.9-8.14,2.9-7.66,0-10.86-4.52-10.86-10.25v-10.43c0-3.62-2.11-4.46-2.11-5.79,0-.84,.72-1.39,2.11-1.39,4.16,0,6.94-4.22,8.87-4.22,.84,0,1.39,.72,1.39,2.11v19.72c0,2.77,1.15,5.97,4.16,5.97s4.16-3.2,4.16-5.97v-10.43c0-3.62-2.11-4.46-2.11-5.79,0-.84,.72-1.39,2.11-1.39,4.16,0,6.94-4.22,8.87-4.22,.84,0,1.39,.72,1.39,2.11v21.83c0,3.62,2.11,4.46,2.11,5.79,0,.84-.72,1.39-2.11,1.39Z"/>
  </g>
  <g id="Groupe_28" data-name="Groupe 28">
    <rect id="Rectangle_79" data-name="Rectangle 79" class="cls-1" x="116.61" y="60.04" width="206.98" height="66.59" rx="7.78" ry="7.78" transform="translate(-14.6 47.83) rotate(-12.01)"/>
    <rect id="Rectangle_80" data-name="Rectangle 80" class="cls-5" x="122.7" y="66.36" width="194.38" height="51.96" rx="6.33" ry="6.33" transform="translate(-14.4 47.76) rotate(-12.01)"/>
  </g>
  <path id="Tracé_166" data-name="Tracé 166" class="cls-4" d="M50.77,10.41c-13.52-1.14-26.99,2.51-37.58,10.17-4.96,3.43-8.82,8-11.17,13.22C-.31,39.1,.05,45.04,3.01,50.07c3.51,5.49,10.3,8.61,17.06,10.34,6.69,1.58,13.56,2.43,20.47,2.53,7.19,.37,14.41-.14,21.45-1.52,7.07-1.4,13.58-4.52,18.82-9.01,2.07-1.8,3.74-3.94,4.93-6.31,1.59-3.56,1.97-7.48,1.09-11.23-1.66-7.8-7.63-14.52-15.06-18.78s-16.23-6.26-25-7c-10.28-.87-21.08,.02-30.07,4.62S.97,27.18,1.66,36.48c.58,5.65,3.33,10.94,7.78,14.95,4.44,3.97,9.8,7.01,15.7,8.89,10.22,3.49,21.31,4.4,32.23,4.21,6.77-.12,13.65-.67,19.91-3s11.86-6.66,14.06-12.44c3.05-8.02-1.16-17.14-8.04-22.91-6.88-5.77-15.97-8.84-24.9-11.44C42.16,10.01,25.44,6.32,8.41,5.47c-1.59-.2-3.21,0-4.69,.58"/>
  <g>
    <path class="cls-3" d="M149.76,102.72c.15-1.3,.53-2.5,1.12-3.59,.6-1.09,1.42-2.04,2.47-2.82,1.05-.79,2.35-1.33,3.89-1.63s2.95-.28,4.22,.06c1.27,.34,2.39,.9,3.35,1.69,.96,.79,1.76,1.76,2.39,2.91,.63,1.15,1.07,2.38,1.33,3.71s.31,2.64,.16,3.94c-.15,1.3-.53,2.5-1.12,3.59-.6,1.09-1.42,2.03-2.47,2.81-1.05,.78-2.35,1.32-3.89,1.62s-2.95,.29-4.21-.04c-1.27-.33-2.38-.89-3.35-1.68-.96-.79-1.76-1.76-2.39-2.91-.63-1.15-1.07-2.38-1.33-3.71s-.31-2.64-.16-3.94Zm3.69,6.26c.44,.9,1,1.68,1.7,2.34,.69,.66,1.51,1.13,2.45,1.43,.94,.3,2,.33,3.18,.1s2.15-.66,2.91-1.29c.76-.63,1.34-1.38,1.74-2.24,.4-.87,.63-1.8,.7-2.8,.07-1,0-1.99-.18-2.97s-.51-1.92-.94-2.82c-.44-.9-1-1.68-1.7-2.34-.69-.66-1.51-1.13-2.45-1.43-.94-.3-2-.33-3.18-.1s-2.15,.66-2.91,1.29c-.76,.63-1.34,1.38-1.74,2.24-.4,.87-.63,1.8-.7,2.8-.07,1,0,1.99,.18,2.97s.5,1.92,.94,2.82Z"/>
    <path class="cls-3" d="M186.81,108.08c-1.08,1.5-2.85,2.49-5.3,2.96s-4.57,.27-6.21-.64c-1.64-.91-2.71-2.67-3.21-5.26l-2.41-12.4,2.58-.5,2.41,12.4c.34,1.74,1.06,2.97,2.16,3.69,1.1,.72,2.52,.91,4.26,.57,1.65-.32,2.82-1.01,3.51-2.08,.69-1.06,.86-2.47,.52-4.21l-2.41-12.4,2.58-.5,2.41,12.4c.48,2.48,.18,4.48-.9,5.98Z"/>
    <path class="cls-3" d="M192.13,88.38l3.78,19.42-2.58,.5-3.78-19.42,2.58-.5Z"/>
    <path class="cls-3" d="M206.72,88.29c-.98-.46-2.15-.56-3.49-.3-.54,.11-1.07,.26-1.57,.48s-.94,.48-1.29,.82c-.36,.33-.62,.74-.78,1.21-.16,.47-.18,1.03-.06,1.66,.12,.6,.39,1.05,.81,1.35,.43,.3,.96,.52,1.59,.64,.63,.12,1.34,.19,2.11,.2,.77,0,1.56,.03,2.37,.06s1.6,.1,2.4,.2c.79,.1,1.52,.3,2.19,.6,.67,.3,1.24,.74,1.72,1.3,.48,.57,.81,1.33,1,2.29,.2,1.03,.14,1.96-.18,2.79-.32,.82-.8,1.54-1.43,2.14s-1.38,1.1-2.24,1.48c-.86,.38-1.73,.66-2.62,.83-1.09,.21-2.14,.28-3.17,.19-1.02-.08-1.96-.33-2.8-.74-.84-.41-1.56-1-2.15-1.78-.59-.78-1-1.76-1.23-2.94l2.45-.48c.16,.82,.45,1.49,.89,2.02,.43,.53,.94,.93,1.53,1.21,.59,.28,1.25,.44,1.97,.49,.72,.05,1.45,0,2.17-.14,.58-.11,1.15-.28,1.72-.5,.57-.22,1.06-.51,1.48-.87,.42-.35,.73-.79,.93-1.3,.2-.51,.23-1.12,.1-1.83-.13-.67-.41-1.18-.85-1.53-.43-.35-.97-.6-1.61-.74-.64-.15-1.35-.23-2.12-.25-.78-.02-1.56-.04-2.37-.06s-1.6-.07-2.39-.16c-.79-.08-1.51-.25-2.17-.51-.66-.26-1.23-.65-1.69-1.17-.47-.52-.79-1.22-.96-2.11-.19-.98-.16-1.87,.1-2.66,.26-.79,.67-1.49,1.25-2.08,.57-.59,1.26-1.08,2.06-1.47,.8-.39,1.64-.67,2.53-.84,1-.19,1.94-.26,2.84-.19,.9,.07,1.72,.3,2.46,.68,.74,.38,1.37,.92,1.9,1.62,.52,.7,.9,1.58,1.15,2.64l-2.45,.48c-.42-1.37-1.12-2.28-2.1-2.74Z"/>
    <path class="cls-3" d="M212.46,86.68l-.42-2.18,15.53-3.02,.42,2.18-6.47,1.26,3.35,17.25-2.58,.5-3.35-17.25-6.47,1.26Z"/>
    <path class="cls-3" d="M232.41,80.55l3.78,19.42-2.58,.5-3.78-19.42,2.58-.5Z"/>
    <path class="cls-3" d="M235.12,82.28l-.42-2.18,15.53-3.02,.42,2.18-6.47,1.26,3.35,17.25-2.58,.5-3.35-17.25-6.47,1.26Z"/>
    <path class="cls-3" d="M255.07,76.14l3.78,19.42-2.58,.5-3.78-19.42,2.58-.5Z"/>
    <path class="cls-3" d="M262.11,74.77l3.78,19.42-2.58,.5-3.78-19.42,2.58-.5Z"/>
    <path class="cls-3" d="M269.15,73.4l3.78,19.42-2.58,.5-3.78-19.42,2.58-.5Z"/>
    <path class="cls-3" d="M276.2,72.03l3.78,19.42-2.58,.5-3.78-19.42,2.58-.5Z"/>
    <path class="cls-3" d="M283.24,70.66l3.78,19.42-2.58,.5-3.78-19.42,2.58-.5Z"/>
  </g>
  <g>
    <path class="cls-1" d="M27.95,31.07c3.65-.57,6.33,.93,7.56,3.9l-2.63,.41c-.79-1.69-2.44-2.59-4.61-2.24-2.68,.42-4.37,2.64-3.8,6.23s2.85,5.24,5.54,4.82c2.17-.34,3.46-1.61,3.7-3.55l2.63-.41c-.29,3.04-2.36,5.45-6.01,6.02-4.18,.66-7.62-1.83-8.35-6.49s1.79-8.03,5.97-8.69Z"/>
    <path class="cls-1" d="M37.21,24.6l2.44-.38,3.11,19.85-2.44,.38-3.11-19.85Z"/>
    <path class="cls-1" d="M43.58,24.72c-.15-.94,.46-1.78,1.4-1.92,.88-.14,1.72,.47,1.87,1.41s-.46,1.78-1.35,1.91c-.94,.15-1.78-.46-1.92-1.4Zm1.04,3.99l2.44-.38,2.3,14.7-2.44,.38-2.3-14.7Z"/>
    <path class="cls-1" d="M57.42,26.46c3.65-.57,6.33,.93,7.56,3.9l-2.63,.41c-.79-1.69-2.44-2.59-4.61-2.24-2.68,.42-4.37,2.64-3.8,6.23s2.85,5.24,5.54,4.82c2.17-.34,3.46-1.61,3.7-3.55l2.63-.41c-.29,3.04-2.36,5.45-6.01,6.02-4.18,.66-7.62-1.83-8.35-6.49s1.79-8.03,5.97-8.69Z"/>
    <path class="cls-1" d="M67.05,7.32c1.31,.25,1.93,1.25,2.71,1.62-.35-.81-1.36-1.38-1.56-2.72-.14-1.16,.31-1.82,1.06-1.94,.8-.13,1.42,.32,1.65,1.52,.21,1.33-.66,2.2-.74,3.12,.69-.56,.86-1.77,2.07-2.47,1.06-.53,1.78-.28,2.19,.34,.39,.71,.14,1.48-.86,2.09-1.21,.69-2.3,.13-3.22,.37,.79,.38,1.94,.2,2.95,1.09,.85,.78,.93,1.58,.43,2.16-.5,.58-1.35,.67-2.2-.11-1.06-.93-.94-2.22-1.51-2.95-.41,.88,.19,2.07-.57,3.32-.67,.97-1.41,1.18-2.06,.78-.65-.4-.87-1.18-.3-2.19,.72-1.21,1.98-1.31,2.56-2-.86,.04-1.74,.82-3.1,.53-1.17-.18-1.59-.84-1.44-1.64,.16-.75,.82-1.18,1.95-.94Z"/>
  </g>
</svg>