<?xml version="1.0" encoding="UTF-8"?>
<svg id="Calque_1" data-name="Calque 1" xmlns="http://www.w3.org/2000/svg" viewBox="0 0 410.49 346.27">
  <defs>
    <style>
      .cls-1 {
        fill: #030007;
      }

      .cls-2 {
        fill: #f59ec1;
      }

      .cls-3 {
        fill: none;
        stroke: #030007;
        stroke-linecap: round;
        stroke-miterlimit: 10;
        stroke-width: 2px;
      }
    </style>
  </defs>
  <g id="Groupe_25" data-name="Groupe 25">
    <g>
      <path class="cls-2" d="M88.2,74.35c-4.86,0-7.99,.91-8.48,3.87v19.69c.49,3.54,3.62,3.95,8.48,3.95,9.39,0,11.86-5.52,11.86-14.08s-2.47-13.43-11.86-13.43Z"/>
      <path class="cls-2" d="M304.81,156.38c-.01-23.17-17.13-42.76-40.09-45.87,18.21-17.96,18.41-47.28,.44-65.49-17.96-18.21-47.28-18.41-65.49-.44-.56,.56-1.11,1.13-1.65,1.71C198.01,20.71,177.27-.01,151.69,0c-24.98,.01-45.44,19.83-46.26,44.8-18.15-18.04-47.48-17.96-65.53,.19-18.04,18.15-17.96,47.48,.19,65.53C14.75,113.94-3.01,137.27,.43,162.61c2.85,21.03,19.63,37.43,40.72,39.8-15.12,20.61-10.66,49.58,9.95,64.69,16.68,12.23,39.44,11.91,55.77-.78,.79,25.55,22.14,45.62,47.69,44.83,24.04-.74,43.5-19.77,44.79-43.78,20.76,14.91,49.68,10.17,64.59-10.6,11.69-16.27,11.57-38.22-.27-54.37,23.43-2.64,41.14-22.45,41.14-46.03Zm-188.11-25.2h-16.31c-1.89,0-2.88-.74-2.88-1.89,0-1.81,2.55-3.62,.33-7.91l-3.79-7.25c-2.39-4.61-3.46-7.33-8.15-7.33-2.8,0-5.68,.41-6.18,3.95v12.03c.49,3.79,2.8,4.86,2.8,6.51,0,1.15-.99,1.89-2.8,1.89h-14.66c-1.89,0-2.88-.74-2.88-1.89,0-1.81,2.88-2.97,2.88-7.91v-42.17c0-4.94-2.88-6.1-2.88-7.91,0-1.15,.99-1.89,2.88-1.89h25.12c17.13,0,25.04,7.08,25.04,17.87,0,7.17-3.46,13.43-10.87,16.8l9.23,17.3c2.22,4.2,6.01,6.1,6.01,7.91,0,1.15-.99,1.89-2.88,1.89Zm34.75,1.32c-12.03,0-16.47-4.2-18.86-4.2-1.65,0-3.29,2.88-5.11,2.88-1.15,0-1.4-.99-1.89-2.88l-3.29-13.59c-.82-3.38,.66-4.86,2.22-4.86,5.11,0,11.86,17.71,26.93,17.71,5.93,0,8.81-3.62,8.81-8.07,0-13.34-36.74-13.92-36.74-34.84,0-11.2,10.95-16.56,21.91-16.56,10.05,0,14.91,4.2,17.3,4.2,1.65,0,3.29-2.88,5.11-2.88,1.15,0,1.4,.99,1.89,2.88l3.29,13.59c.82,3.38-.66,4.86-2.22,4.86-5.11,0-11.37-17.71-23.23-17.71-5.93,0-9.14,3.21-9.14,7.91,0,14.33,36.57,15.24,36.57,34.26,0,13.1-13.51,17.3-23.56,17.3Z"/>
    </g>
    <path id="Tracé_161" data-name="Tracé 161" class="cls-3" d="M301.8,150.9c-42.12-14.69-88.2-13.2-129.29,4.17-18.48,8.03-35.64,19.61-47,35.59s-16.37,36.72-10.47,55.58c6.67,21.3,25.86,37.26,46.15,48.47,19.93,11.02,41.66,18.67,63.64,24.93,22.91,6.52,46.44,11.6,70.19,12.06s47.84-3.91,68.05-15.28c8.09-4.35,15.26-10.22,21.12-17.29,8.09-10.66,12.62-23.59,12.94-36.97,1.2-27.61-12.32-55.01-32.63-75.31-20.31-20.3-46.89-34.08-74.46-43.6-32.31-11.15-67.77-16.82-100.49-8.52-32.72,8.3-61.84,32.78-67.43,64.64-3.37,19.22,1.96,39.49,12.46,56.57,10.51,17.08,25.93,31.16,42.98,42.52,29.89,19.93,64.79,31.88,100.04,39.99,21.84,5.02,44.42,8.67,66.48,5.84,22.06-2.84,43.72-12.95,55.62-30.64,16.52-24.55,10.65-58.65-6.61-83.59-17.26-24.94-43.88-42.55-70.42-58.48-48.18-28.92-98.81-54.74-152.82-71.24-5.06-1.55-10.46-3.02-15.55-1.8"/>
  </g>
  <g>
    <path class="cls-1" d="M177.86,183.97c1.02-1.42,2.23-2.58,3.64-3.47,1.41-.89,2.98-1.46,4.72-1.7,1.74-.24,3.61-.04,5.61,.61s3.63,1.58,4.9,2.8c1.27,1.22,2.21,2.6,2.82,4.15,.61,1.55,.91,3.2,.91,4.95-.01,1.75-.29,3.48-.85,5.2s-1.35,3.28-2.37,4.71c-1.02,1.42-2.24,2.58-3.64,3.47-1.41,.89-2.98,1.45-4.72,1.68-1.74,.23-3.6,.02-5.6-.63s-3.63-1.58-4.9-2.78c-1.27-1.2-2.21-2.58-2.83-4.13-.61-1.55-.92-3.2-.9-4.95,0-1.75,.29-3.48,.85-5.2s1.35-3.28,2.37-4.71Zm.26,9.71c-.07,1.34,.08,2.62,.47,3.83s1.03,2.3,1.94,3.26c.91,.96,2.13,1.68,3.66,2.18s2.94,.62,4.24,.38c1.3-.24,2.46-.74,3.49-1.5s1.9-1.7,2.63-2.83c.73-1.13,1.3-2.32,1.71-3.59s.65-2.57,.73-3.91c.07-1.34-.08-2.62-.47-3.83s-1.03-2.3-1.94-3.26c-.91-.96-2.13-1.69-3.66-2.18s-2.94-.62-4.24-.38c-1.3,.24-2.46,.74-3.49,1.5s-1.9,1.7-2.63,2.83c-.73,1.13-1.3,2.32-1.71,3.59s-.65,2.57-.73,3.91Z"/>
    <path class="cls-1" d="M207.85,192.96l-.94,2.89,.07,.02c1.96-1.8,4.3-2.27,7-1.39,1.2,.39,2.14,.88,2.84,1.47,.69,.59,1.19,1.26,1.49,2,.3,.75,.42,1.56,.36,2.43-.06,.88-.26,1.81-.58,2.79l-3.89,11.98-3-.97,4.01-12.34c.37-1.13,.33-2.13-.12-3-.44-.87-1.24-1.49-2.39-1.87-.92-.3-1.76-.41-2.52-.35s-1.45,.28-2.06,.65c-.61,.37-1.15,.87-1.59,1.49-.45,.62-.81,1.34-1.07,2.16l-3.34,10.29-3-.97,5.92-18.22,2.82,.92Z"/>
    <path class="cls-1" d="M237.52,202.6l-.8,2.47,.07,.02c.82-.85,1.84-1.33,3.04-1.45s2.44,.03,3.71,.45c1.41,.46,2.55,1.12,3.43,1.97,.88,.86,1.52,1.84,1.93,2.94,.41,1.11,.6,2.29,.58,3.56s-.24,2.55-.66,3.84-.99,2.46-1.7,3.5c-.71,1.04-1.56,1.88-2.53,2.51-.97,.63-2.06,1.03-3.27,1.18-1.21,.15-2.5,0-3.89-.45-.45-.15-.93-.35-1.45-.63-.52-.27-1.02-.6-1.49-.99-.47-.39-.89-.84-1.25-1.36-.36-.52-.62-1.1-.78-1.75l-.07-.02-3.05,9.38-3-.97,8.18-25.17,3,.97Zm8.67,9.97c.04-.88-.07-1.72-.32-2.5-.25-.78-.68-1.48-1.27-2.09-.59-.61-1.37-1.07-2.34-1.38-1.01-.33-1.93-.41-2.77-.24-.83,.17-1.58,.51-2.24,1.01-.66,.5-1.22,1.13-1.68,1.89-.47,.76-.84,1.56-1.11,2.4-.29,.89-.46,1.79-.52,2.69-.06,.9,.04,1.75,.29,2.53,.25,.78,.68,1.49,1.28,2.11,.6,.62,1.42,1.1,2.45,1.44s1.96,.42,2.79,.24c.82-.17,1.55-.52,2.19-1.04,.64-.52,1.19-1.17,1.65-1.96,.46-.78,.84-1.62,1.13-2.52,.27-.85,.43-1.71,.47-2.59Z"/>
    <path class="cls-1" d="M265.57,231.78c-.62,.14-1.38,.06-2.3-.24-.78-.25-1.32-.67-1.64-1.25-.32-.58-.32-1.37,0-2.36-1.14,.72-2.33,1.12-3.57,1.2-1.23,.08-2.49-.09-3.75-.5-.82-.27-1.57-.62-2.25-1.04-.68-.43-1.22-.93-1.63-1.51-.41-.58-.67-1.24-.78-1.99-.11-.75-.01-1.58,.29-2.5,.34-1.03,.79-1.82,1.35-2.37,.57-.54,1.2-.93,1.91-1.15,.71-.22,1.47-.32,2.28-.29,.81,.03,1.62,.1,2.45,.21,.88,.1,1.7,.23,2.46,.39,.77,.16,1.46,.25,2.07,.28s1.13-.05,1.56-.23c.42-.19,.73-.56,.91-1.13,.21-.66,.26-1.23,.15-1.71-.12-.48-.33-.89-.65-1.23-.32-.34-.71-.62-1.17-.85s-.92-.42-1.39-.57c-1.27-.41-2.41-.51-3.41-.31-1,.21-1.76,.97-2.26,2.28l-3-.97c.41-1.11,.96-1.99,1.63-2.63,.67-.64,1.44-1.08,2.3-1.34,.86-.25,1.78-.34,2.75-.26s1.98,.29,3.01,.63c.82,.27,1.62,.59,2.39,.97,.77,.38,1.43,.86,1.97,1.44,.54,.58,.9,1.26,1.09,2.04,.19,.79,.11,1.71-.24,2.76l-3.04,9.36c-.23,.7-.36,1.23-.38,1.59-.02,.36,.2,.61,.67,.76,.26,.08,.58,.14,.96,.16l-.76,2.33Zm-1.83-10.92c-.47,.16-1.03,.2-1.68,.13-.65-.07-1.33-.17-2.02-.31-.7-.14-1.4-.26-2.12-.38-.72-.12-1.38-.15-2-.09-.62,.06-1.17,.25-1.65,.57-.48,.32-.84,.86-1.09,1.61-.16,.49-.19,.94-.11,1.34,.09,.4,.26,.76,.51,1.08s.57,.59,.96,.82c.39,.23,.82,.42,1.29,.58,.99,.32,1.88,.46,2.67,.42,.79-.04,1.48-.19,2.06-.46,.58-.26,1.05-.6,1.42-1.01,.37-.41,.62-.83,.76-1.25l.99-3.05Z"/>
    <path class="cls-1" d="M276.96,215.41l-1.25,3.84,.07,.02c1.21-1.24,2.46-2.05,3.74-2.41s2.73-.25,4.34,.32l-1.03,3.17c-1.2-.39-2.27-.56-3.23-.5-.95,.05-1.79,.31-2.51,.78-.72,.47-1.35,1.11-1.88,1.94-.53,.83-.98,1.83-1.37,3l-2.63,8.11-3-.97,5.92-18.22,2.82,.92Z"/>
    <path class="cls-1" d="M291.41,212.43l-8.18,25.17-3-.97,8.18-25.17,3,.97Z"/>
    <path class="cls-1" d="M301.17,242.14c-1.7,.59-3.58,.55-5.65-.12-1.46-.47-2.64-1.12-3.56-1.94-.92-.82-1.6-1.77-2.05-2.85-.45-1.08-.67-2.27-.65-3.56,.02-1.29,.23-2.64,.63-4.04,.45-1.39,1.07-2.59,1.87-3.6,.8-1.01,1.71-1.82,2.75-2.42,1.04-.6,2.16-.96,3.36-1.09,1.2-.13,2.42,0,3.67,.41,1.62,.53,2.86,1.3,3.71,2.32,.85,1.02,1.43,2.15,1.74,3.39,.31,1.24,.39,2.52,.24,3.82-.15,1.3-.43,2.5-.83,3.59l-13.64-4.43c-.28,.79-.44,1.58-.46,2.36-.02,.79,.11,1.53,.4,2.24s.75,1.34,1.37,1.91c.62,.57,1.43,1.01,2.41,1.33,1.27,.41,2.4,.46,3.41,.13,1-.32,1.83-1.04,2.47-2.16l2.96,.96c-1.06,1.91-2.45,3.17-4.14,3.76Zm3.08-11.94c-.06-.72-.25-1.39-.56-1.99-.31-.61-.73-1.15-1.27-1.62-.54-.47-1.18-.83-1.93-1.08s-1.52-.34-2.23-.28c-.71,.07-1.37,.26-1.96,.59-.6,.33-1.13,.76-1.59,1.3-.46,.54-.83,1.15-1.11,1.84l10.47,3.4c.18-.72,.24-1.44,.18-2.16Z"/>
    <path class="cls-1" d="M329.9,252.76l.8-2.47-.07-.02c-.82,.85-1.83,1.33-3.04,1.43-1.2,.1-2.44-.05-3.71-.46-1.41-.46-2.55-1.12-3.43-1.97-.88-.86-1.52-1.83-1.93-2.93-.41-1.09-.61-2.27-.58-3.54,.02-1.27,.24-2.54,.66-3.84s.99-2.46,1.7-3.5c.71-1.04,1.56-1.88,2.53-2.51,.97-.63,2.06-1.03,3.27-1.2,1.21-.17,2.51-.02,3.89,.43,.47,.15,.96,.36,1.47,.63,.51,.27,1,.6,1.47,1,.47,.4,.88,.86,1.25,1.38,.36,.52,.62,1.1,.77,1.75l.07,.02,3.05-9.38,3,.97-8.18,25.17-3-.97Zm-8.67-9.97c-.04,.88,.07,1.72,.32,2.5,.25,.78,.67,1.48,1.27,2.09,.59,.61,1.37,1.07,2.34,1.38s1.93,.41,2.77,.24c.83-.17,1.58-.51,2.24-1.01,.66-.5,1.22-1.13,1.69-1.89,.47-.76,.84-1.56,1.11-2.41,.29-.89,.46-1.79,.52-2.69,.06-.9-.04-1.75-.29-2.53-.25-.78-.68-1.49-1.28-2.11-.6-.62-1.42-1.1-2.45-1.44s-1.93-.41-2.77-.24c-.83,.17-1.57,.52-2.21,1.04-.64,.52-1.19,1.17-1.65,1.96-.46,.78-.84,1.62-1.13,2.52-.27,.85-.43,1.71-.47,2.59Z"/>
    <path class="cls-1" d="M350.79,258.26c-1.7,.59-3.58,.55-5.65-.12-1.46-.47-2.64-1.12-3.56-1.94-.92-.82-1.6-1.77-2.05-2.85-.45-1.08-.67-2.27-.65-3.56,.02-1.29,.23-2.64,.63-4.04,.45-1.39,1.07-2.59,1.87-3.6,.8-1.01,1.71-1.82,2.75-2.42,1.04-.6,2.16-.96,3.36-1.09,1.2-.13,2.42,0,3.67,.41,1.62,.53,2.86,1.3,3.71,2.32,.85,1.02,1.43,2.15,1.74,3.39,.31,1.24,.39,2.52,.24,3.82-.15,1.3-.43,2.5-.83,3.59l-13.64-4.43c-.28,.79-.44,1.58-.46,2.36-.02,.79,.11,1.53,.4,2.24s.75,1.34,1.37,1.91c.62,.57,1.43,1.01,2.41,1.33,1.27,.41,2.4,.46,3.41,.13,1-.32,1.83-1.04,2.47-2.16l2.96,.96c-1.06,1.91-2.45,3.17-4.14,3.76Zm3.08-11.94c-.06-.72-.25-1.39-.56-1.99-.31-.61-.73-1.15-1.27-1.62-.54-.47-1.18-.83-1.93-1.08s-1.52-.34-2.23-.28c-.71,.07-1.37,.26-1.96,.59-.6,.33-1.13,.76-1.59,1.3-.46,.54-.83,1.15-1.11,1.84l10.47,3.4c.18-.72,.24-1.44,.18-2.16Z"/>
    <path class="cls-1" d="M218.1,263.19l-.85-20.42,3.35,1.09,.17,16.85,.07,.02,9.91-13.58,3.14,1.02-12.58,16.06-3.21-1.04Z"/>
    <path class="cls-1" d="M234.47,254.31c.75-1.04,1.65-1.87,2.68-2.48,1.03-.61,2.18-.99,3.44-1.12,1.26-.13,2.61,.03,4.05,.5s2.65,1.13,3.58,1.98c.93,.85,1.63,1.82,2.11,2.93,.47,1.1,.71,2.3,.71,3.58,0,1.29-.22,2.6-.66,3.94s-1.03,2.52-1.78,3.55c-.75,1.03-1.64,1.85-2.67,2.46-1.03,.61-2.17,.98-3.42,1.11-1.25,.13-2.6-.05-4.06-.52s-2.62-1.12-3.57-1.96c-.95-.84-1.66-1.81-2.13-2.91-.47-1.1-.71-2.29-.71-3.56,0-1.27,.21-2.58,.65-3.92s1.03-2.53,1.78-3.57Zm.87,7.69c.01,.95,.19,1.8,.52,2.55s.79,1.38,1.39,1.91c.59,.53,1.28,.92,2.05,1.17s1.56,.34,2.35,.26c.79-.08,1.54-.32,2.24-.73s1.34-.99,1.91-1.75c.57-.76,1.04-1.7,1.4-2.8s.53-2.13,.52-3.09c-.02-.95-.19-1.81-.51-2.56-.33-.75-.79-1.4-1.38-1.93-.59-.53-1.28-.92-2.05-1.17s-1.56-.34-2.35-.26c-.79,.08-1.54,.33-2.25,.75-.71,.42-1.35,1.01-1.92,1.77-.57,.76-1.04,1.7-1.4,2.8s-.53,2.13-.52,3.09Z"/>
    <path class="cls-1" d="M263.22,277.85l.94-2.89-.07-.02c-1,.92-2.08,1.49-3.24,1.69-1.16,.21-2.41,.09-3.75-.34-1.2-.39-2.15-.87-2.84-1.45-.7-.58-1.2-1.24-1.5-1.99-.3-.75-.42-1.56-.36-2.43,.06-.88,.26-1.81,.58-2.79l3.89-11.98,3,.97-4.01,12.34c-.37,1.13-.33,2.13,.12,3,.44,.87,1.24,1.49,2.39,1.87,.92,.3,1.76,.41,2.52,.35,.76-.06,1.45-.28,2.06-.65,.61-.37,1.15-.87,1.59-1.49,.45-.62,.81-1.34,1.07-2.16l3.34-10.29,3,.97-5.92,18.22-2.82-.92Z"/>
    <path class="cls-1" d="M274.16,276.91c.13,.55,.38,1.03,.76,1.45,.37,.42,.82,.78,1.36,1.09,.54,.3,1.11,.56,1.72,.75,.47,.15,.97,.28,1.51,.38,.54,.1,1.06,.12,1.55,.08,.5-.05,.94-.21,1.34-.48,.4-.27,.69-.69,.87-1.25,.25-.78,.15-1.46-.31-2.05-.46-.59-1.09-1.15-1.89-1.68-.8-.53-1.69-1.07-2.65-1.6-.97-.54-1.84-1.13-2.6-1.78-.76-.65-1.33-1.4-1.7-2.25-.37-.85-.37-1.86,.01-3.04,.3-.92,.76-1.64,1.38-2.16,.62-.52,1.33-.89,2.11-1.09,.78-.2,1.61-.27,2.48-.21,.88,.06,1.71,.23,2.51,.48,1.03,.34,1.96,.73,2.77,1.19,.81,.46,1.48,1.01,2.01,1.67,.53,.65,.87,1.41,1.03,2.28,.16,.87,.09,1.87-.19,3l-3-.97c.14-.6,.15-1.14,.02-1.61-.13-.47-.36-.89-.68-1.25-.32-.36-.71-.68-1.16-.94-.45-.26-.92-.47-1.41-.63-.45-.15-.91-.26-1.39-.34-.48-.08-.94-.09-1.37-.04-.43,.05-.82,.19-1.15,.41-.33,.22-.57,.56-.72,1.03-.17,.52-.13,1.01,.13,1.46,.25,.46,.63,.89,1.12,1.3,.49,.41,1.06,.8,1.72,1.18,.66,.38,1.31,.77,1.96,1.16,.7,.41,1.37,.85,2.01,1.32,.64,.47,1.17,.99,1.6,1.55,.43,.57,.71,1.2,.86,1.9,.15,.7,.08,1.48-.2,2.35-.36,1.1-.89,1.95-1.58,2.53-.7,.58-1.49,.97-2.37,1.18-.89,.21-1.82,.25-2.81,.12-.99-.13-1.94-.34-2.85-.63-1.01-.33-1.94-.75-2.79-1.26-.85-.51-1.55-1.12-2.09-1.83s-.91-1.53-1.07-2.45c-.17-.92-.09-1.96,.23-3.1l3,.97c-.19,.67-.22,1.27-.09,1.82Z"/>
  </g>
</svg>