<?xml version="1.0" encoding="UTF-8"?>
<svg id="Calque_1" data-name="Calque 1" xmlns="http://www.w3.org/2000/svg" viewBox="0 0 349.58 306.07">
  <defs>
    <style>
      .cls-1 {
        fill: #030007;
      }

      .cls-2 {
        fill: #0b5abd;
      }

      .cls-3 {
        fill: none;
        stroke: #000;
        stroke-linecap: round;
        stroke-linejoin: round;
        stroke-width: 1.5px;
      }
    </style>
  </defs>
  <path class="cls-2" d="M349.58,130.68c-.01-19.39-14.44-35.79-33.78-38.4,15.31-15.06,15.43-39.61,.27-54.82s-39.87-15.33-55.18-.27c-.44,.43-.87,.88-1.29,1.33C259.47,17.11,241.89-.13,220.34,0c-20.87,.13-37.94,16.56-38.74,37.28-15.23-15.16-39.95-15.19-55.21-.07-15.26,15.13-15.29,39.69-.07,54.85,.07,.07,.15,.15,.22,.22-21.35,2.83-36.35,22.33-33.5,43.54,2.38,17.66,16.56,31.43,34.39,33.39-12.73,17.26-8.97,41.5,8.4,54.15,14.05,10.23,33.22,9.96,46.98-.65,.67,21.39,18.67,38.18,40.19,37.52,20.24-.63,36.63-16.54,37.72-36.63,17.49,12.48,41.86,8.51,54.42-8.87,9.84-13.62,9.75-31.99-.23-45.51,19.74-2.21,34.66-18.8,34.67-38.53ZM188.17,66.2v29.68c0,9.55-6.14,17.85-20.56,17.85-17.75,0-22.33-9.11-22.33-18.44v-29.09c0-4.41-2.59-5.44-2.59-7.05,0-1.03,.89-1.69,2.59-1.69h13.16c1.7,0,2.59,.66,2.59,1.69,0,1.62-2.59,2.65-2.59,7.05v29.09c0,9.33,4.81,14.03,12.57,14.03,7.25,0,12.72-4.19,12.72-13.44v-29.68c0-4.41-2.59-5.44-2.59-7.05,0-1.03,.89-1.69,2.59-1.69h4.44c1.7,0,2.59,.66,2.59,1.69,0,1.62-2.59,2.65-2.59,7.05Zm9.24,44.67c0-1.62,2.59-2.65,2.59-7.05v-37.62c0-4.41-2.59-5.44-2.59-7.05,0-1.03,.89-1.69,2.59-1.69h13.16c1.7,0,2.59,.66,2.59,1.69,0,1.62-2.59,2.65-2.59,7.05v37.62c0,4.41,2.59,5.44,2.59,7.05,0,1.03-.89,1.69-2.59,1.69h-13.16c-1.7,0-2.59-.66-2.59-1.69Zm57.31,43.49v29.68c0,9.55-6.14,17.85-20.56,17.85-17.75,0-22.33-9.11-22.33-18.44v-29.09c0-4.41-2.59-5.44-2.59-7.05,0-1.03,.89-1.69,2.59-1.69h13.16c1.7,0,2.59,.66,2.59,1.69,0,1.62-2.59,2.65-2.59,7.05v29.09c0,9.33,4.81,14.03,12.57,14.03,7.25,0,12.72-4.19,12.72-13.44v-29.68c0-4.41-2.59-5.44-2.59-7.05,0-1.03,.89-1.69,2.59-1.69h4.44c1.7,0,2.59,.66,2.59,1.69,0,1.62-2.59,2.65-2.59,7.05Zm61.97,44.67c0,1.03-.89,1.69-2.59,1.69h-15.6c-1.7,0-2.59-.66-2.59-1.69,0-1.62,1.41-3.53-1.11-7.05l-11.83-16.53-12.94,16.53c-2.66,3.38-1.78,5.44-1.78,7.05,0,1.03-.89,1.69-2.59,1.69h-5.4c-1.7,0-2.59-.66-2.59-1.69,0-1.62,4.21-3.67,6.88-7.05l15.82-20.13-12.42-17.49c-2.81-3.89-5.92-5.44-5.92-7.05,0-1.03,.89-1.69,2.59-1.69h15.6c1.7,0,2.59,.66,2.59,1.69,0,1.62-2.07,3.16,.74,7.05l7.02,9.92,7.47-9.92c2.59-3.45,1.92-5.44,1.92-7.05,0-1.03,.89-1.69,2.59-1.69h5.4c1.7,0,2.59,.66,2.59,1.69,0,1.62-4.51,3.6-7.1,7.05l-10.2,13.59,17.16,24.02c2.51,3.45,6.29,5.44,6.29,7.05Z"/>
  <g id="Groupe_29" data-name="Groupe 29">
    <path id="Tracé_168" data-name="Tracé 168" class="cls-3" d="M92.64,253.24c36.28-15.9,62.65-48.16,70.89-86.69,1.62-7.94,2.36-16.55-1.19-23.85s-12.69-12.41-20.13-9.07c-11.27,5.06-8.52,22.14-1.18,32.03,15.09,20.32,46.37,30.5,66.78,15.47,12.33-9.09,17.79-24.51,22.59-39.01"/>
    <path id="Tracé_169" data-name="Tracé 169" class="cls-3" d="M240.58,143.37l-10.27-2.98-10.27-2.98,7.74-7.35,7.74-7.35,2.54,10.33,2.54,10.33Z"/>
  </g>
  <g>
    <path class="cls-1" d="M9.89,256.45c-1.15-.27-2.41-.12-3.79,.46-.56,.23-1.08,.52-1.57,.86-.49,.34-.89,.72-1.2,1.16-.31,.44-.5,.92-.56,1.47-.07,.54,.04,1.14,.31,1.79,.26,.61,.65,1.03,1.17,1.26,.52,.23,1.14,.34,1.84,.33,.7-.01,1.47-.1,2.3-.26,.83-.16,1.68-.32,2.54-.46,.87-.15,1.73-.25,2.6-.32,.87-.07,1.69-.02,2.47,.16s1.49,.51,2.13,1.01c.64,.5,1.16,1.24,1.57,2.22,.44,1.06,.59,2.06,.43,3.01-.16,.95-.51,1.82-1.05,2.61-.54,.79-1.23,1.48-2.06,2.08-.83,.6-1.7,1.09-2.61,1.47-1.11,.47-2.23,.77-3.34,.91-1.11,.14-2.16,.08-3.15-.17-.99-.25-1.89-.72-2.7-1.42-.81-.7-1.46-1.65-1.97-2.86l2.51-1.05c.35,.84,.82,1.49,1.39,1.95,.58,.47,1.21,.78,1.91,.95,.69,.17,1.43,.2,2.22,.09,.78-.11,1.55-.32,2.29-.63,.59-.25,1.17-.56,1.73-.92,.56-.37,1.02-.78,1.39-1.26s.61-1,.71-1.59c.1-.59,0-1.25-.3-1.97-.29-.69-.7-1.17-1.25-1.44-.54-.28-1.17-.42-1.89-.44-.72-.02-1.49,.05-2.32,.21-.83,.15-1.68,.31-2.54,.46s-1.72,.28-2.58,.36c-.86,.09-1.67,.07-2.43-.06-.76-.13-1.45-.42-2.07-.87-.62-.45-1.11-1.13-1.5-2.04-.42-1-.58-1.96-.48-2.86,.1-.91,.39-1.74,.87-2.5,.48-.76,1.1-1.43,1.87-2.03,.77-.59,1.6-1.08,2.51-1.47,1.02-.43,2.02-.71,2.99-.83,.97-.12,1.9-.07,2.78,.18,.88,.24,1.67,.68,2.38,1.31,.71,.63,1.32,1.48,1.81,2.56l-2.51,1.05c-.75-1.37-1.7-2.19-2.85-2.46Z"/>
    <path class="cls-1" d="M34.51,266.32l-.96-2.28-.06,.02c-.13,1.1-.49,2.03-1.1,2.77-.6,.75-1.44,1.34-2.49,1.79-.95,.4-1.79,.6-2.53,.62-.74,.01-1.4-.13-1.98-.43-.59-.3-1.09-.74-1.52-1.31-.43-.57-.8-1.25-1.13-2.03l-3.98-9.47,2.37-.99,4.1,9.75c.37,.89,.93,1.49,1.67,1.79,.74,.3,1.56,.26,2.47-.12,.72-.3,1.3-.68,1.74-1.12,.44-.45,.74-.95,.93-1.5,.18-.56,.25-1.15,.19-1.77s-.22-1.26-.49-1.91l-3.42-8.14,2.37-.99,6.05,14.4-2.23,.94Z"/>
    <path class="cls-1" d="M36.4,248.58l1.28,3.04,.06-.02c.08-1.41,.43-2.57,1.03-3.48s1.55-1.61,2.85-2.11l1.05,2.51c-.95,.4-1.7,.87-2.26,1.41-.56,.54-.94,1.15-1.14,1.82-.2,.67-.24,1.41-.12,2.2,.11,.79,.37,1.65,.76,2.58l2.69,6.41-2.37,.99-6.05-14.4,2.23-.94Z"/>
    <path class="cls-1" d="M51.48,235.79l8.36,19.89-2.37,.99-8.36-19.89,2.37-.99Z"/>
    <path class="cls-1" d="M76.25,248.72c-.31,.41-.82,.77-1.55,1.08-.61,.26-1.17,.29-1.68,.1s-.92-.68-1.25-1.46c-.32,1.05-.84,1.93-1.56,2.64-.72,.71-1.58,1.27-2.58,1.69-.65,.27-1.3,.46-1.95,.56-.65,.1-1.25,.08-1.81-.06-.56-.14-1.07-.41-1.54-.81-.47-.41-.85-.97-1.15-1.69-.34-.82-.49-1.54-.42-2.18s.25-1.21,.57-1.73,.74-.98,1.25-1.39c.51-.41,1.06-.8,1.62-1.17,.6-.4,1.17-.76,1.73-1.07,.56-.31,1.03-.62,1.43-.93,.4-.31,.67-.63,.84-.97,.16-.34,.15-.74-.04-1.18-.22-.52-.49-.9-.82-1.13-.33-.23-.68-.37-1.06-.41-.38-.04-.77,0-1.17,.1-.4,.1-.79,.23-1.16,.39-1,.42-1.76,.96-2.27,1.62-.51,.66-.57,1.53-.18,2.62l-2.37,.99c-.34-.91-.47-1.74-.39-2.49,.08-.75,.31-1.44,.71-2.05,.4-.61,.92-1.16,1.56-1.62,.64-.47,1.38-.87,2.19-1.22,.65-.27,1.32-.5,1.99-.67s1.34-.23,1.98-.16c.64,.07,1.23,.3,1.76,.68,.53,.39,.98,1,1.33,1.83l3.11,7.4c.23,.56,.44,.95,.61,1.18,.17,.23,.45,.27,.82,.11,.2-.09,.43-.22,.68-.42l.77,1.84Zm-6.95-5.77c-.2,.35-.53,.67-.97,.98-.44,.3-.91,.6-1.41,.89-.5,.29-1.01,.59-1.51,.89-.5,.31-.93,.65-1.28,1.01s-.59,.77-.71,1.23c-.13,.46-.06,.98,.18,1.57,.16,.39,.38,.68,.65,.88,.27,.2,.57,.33,.89,.39,.32,.06,.66,.06,1.03,0,.37-.07,.73-.18,1.11-.33,.78-.33,1.4-.71,1.87-1.16s.81-.91,1.03-1.38c.22-.47,.33-.93,.34-1.38,0-.45-.06-.84-.2-1.17l-1.01-2.41Z"/>
    <path class="cls-1" d="M30.72,290.3l.88,2.09-2.87,1.21,3.76,8.94c.12,.28,.23,.49,.35,.64,.12,.15,.26,.24,.43,.28,.17,.04,.38,.02,.62-.05,.24-.07,.55-.18,.92-.34l1.09-.46,.88,2.09-1.81,.76c-.61,.26-1.16,.44-1.63,.54-.47,.1-.89,.09-1.25-.01s-.7-.34-1-.7c-.3-.35-.59-.87-.87-1.53l-3.85-9.17-2.45,1.03-.88-2.09,2.45-1.03-1.81-4.32,2.37-.99,1.81,4.32,2.87-1.21Z"/>
    <path class="cls-1" d="M34.78,293.59c-.09-1.04,.02-2.03,.33-2.96,.31-.93,.82-1.77,1.53-2.53,.71-.76,1.63-1.37,2.76-1.85s2.24-.71,3.27-.68c1.03,.03,1.98,.26,2.86,.68,.88,.43,1.66,1.04,2.34,1.83,.68,.79,1.25,1.72,1.69,2.78s.71,2.11,.79,3.14c.09,1.04-.03,2.02-.34,2.94-.31,.93-.82,1.76-1.52,2.51-.7,.74-1.63,1.36-2.78,1.84s-2.22,.71-3.25,.69c-1.03-.01-1.99-.23-2.87-.66-.88-.43-1.66-1.03-2.34-1.82-.68-.79-1.24-1.71-1.69-2.77s-.71-2.11-.8-3.15Zm4.63,4.28c.52,.58,1.08,1.01,1.68,1.3,.6,.28,1.22,.43,1.87,.44,.65,.01,1.28-.11,1.89-.37s1.14-.62,1.59-1.09c.45-.47,.78-1.02,1-1.65,.22-.63,.3-1.33,.25-2.1-.05-.77-.26-1.6-.63-2.47s-.81-1.6-1.33-2.18c-.52-.58-1.08-1.02-1.68-1.31-.6-.29-1.23-.44-1.88-.46s-1.28,.11-1.89,.37-1.14,.62-1.59,1.09-.78,1.03-.99,1.66c-.21,.64-.29,1.34-.24,2.12,.05,.78,.26,1.6,.63,2.47s.81,1.6,1.33,2.18Z"/>
    <path class="cls-1" d="M48.38,279.83l-1.22-2.9,2.37-.99,1.22,2.9-2.37,.99Zm3.46,1.6l6.05,14.4-2.37,.99-6.05-14.4,2.37-.99Z"/>
    <path class="cls-1" d="M55.71,273.34l8.36,19.89-2.37,.99-8.36-19.89,2.37-.99Z"/>
    <path class="cls-1" d="M77.56,286.49c-.73,1.27-1.92,2.25-3.55,2.93-1.15,.48-2.23,.72-3.23,.7-1-.02-1.93-.24-2.79-.66-.86-.43-1.62-1.04-2.3-1.85-.68-.81-1.27-1.75-1.76-2.83-.46-1.1-.71-2.17-.76-3.22-.05-1.05,.09-2.04,.41-2.96s.82-1.74,1.49-2.46c.67-.72,1.5-1.28,2.48-1.7,1.28-.54,2.46-.72,3.52-.55,1.07,.17,2.03,.56,2.88,1.17,.85,.6,1.58,1.35,2.18,2.23,.6,.88,1.07,1.77,1.4,2.66l-10.78,4.53c.25,.64,.57,1.21,.98,1.7,.41,.5,.88,.89,1.44,1.17,.55,.28,1.17,.43,1.86,.45,.69,.02,1.42-.14,2.2-.46,1-.42,1.73-1,2.17-1.73,.45-.73,.57-1.62,.38-2.65l2.34-.98c.36,1.75,.18,3.26-.56,4.53Zm-4.46-9.01c-.42-.41-.89-.72-1.41-.93s-1.06-.32-1.64-.33c-.58,0-1.17,.11-1.76,.36s-1.12,.6-1.52,1.02c-.4,.42-.7,.89-.9,1.41-.2,.52-.29,1.07-.29,1.65,0,.58,.1,1.15,.3,1.73l8.27-3.48c-.27-.54-.62-1.02-1.04-1.43Z"/>
  </g>
</svg>