<?xml version="1.0" encoding="UTF-8"?>
<svg id="Calque_1" data-name="Calque 1" xmlns="http://www.w3.org/2000/svg" viewBox="0 0 148.89 147.56">
  <defs>
    <style>
      .cls-1 {
        fill: #030007;
      }

      .cls-2 {
        fill: #008a6f;
      }

      .cls-3 {
        fill: #fff;
      }

      .cls-4 {
        fill: none;
        stroke: #fff;
        stroke-miterlimit: 10;
        stroke-width: 1px;
      }
    </style>
  </defs>
  <g id="Groupe_15" data-name="Groupe 15">
    <path id="Tracé_106" data-name="Tracé 106" d="M33.94,.89l.9-.09,1.97,5.33,.99-5.63,.94-.1,2.04,5.3L41.65,.09l.91-.09-1.21,6.65-.94,.1-2.03-5.04-1.02,5.36-.93,.11-2.47-6.28Z"/>
    <path id="Tracé_107" data-name="Tracé 107" d="M48.07,1.55l-2.62-.37-.31,2.15,2.34,.33-.1,.69-2.34-.33-.31,2.21,2.62,.37-.1,.69-3.46-.49,.92-6.43,3.46,.49-.1,.69Z"/>
    <path id="Tracé_108" data-name="Tracé 108" d="M50.52,8.28l-2.29-.78,2.1-6.14,2.2,.75c1.3,.44,1.71,1.37,1.42,2.22-.21,.67-.86,1.1-1.56,1.05,.66,.39,.96,1.2,.7,1.93-.37,.95-1.44,1.42-2.39,1.05-.06-.02-.12-.05-.18-.08Zm.87-2.86l-1.39-.48-.74,2.17,1.42,.48c.79,.27,1.4,.04,1.63-.63,.2-.63-.14-1.3-.77-1.5-.05-.02-.1-.03-.15-.04h0Zm.84-2.67l-1.33-.45-.68,1.99,1.35,.46c.75,.26,1.31,.03,1.52-.59,.21-.61-.07-1.14-.86-1.41h0Z"/>
    <path id="Tracé_109" data-name="Tracé 109" d="M59.1,4.91l.7,.57-2.36,5.17,4.68-3.3,.74,.6-2.29,5.2,4.56-3.37,.71,.57-5.54,3.87-.74-.6,2.11-5.01-4.5,3.08-.74-.58,2.68-6.19Z"/>
    <path id="Tracé_110" data-name="Tracé 110" d="M14.9,51.8l1.62,2.09,1.71-1.33-1.45-1.87,.55-.43,1.45,1.87,1.77-1.37-1.62-2.09,.55-.43,2.14,2.76-5.14,3.98-2.14-2.76,.55-.43Z"/>
    <path id="Tracé_111" data-name="Tracé 111" d="M17.81,45.26l1.1,2.16-5.78,2.96-1.06-2.07c-.62-1.22-.28-2.17,.53-2.58,.62-.33,1.39-.2,1.85,.33-.2-.74,.15-1.53,.84-1.87,.92-.43,2.02-.02,2.44,.9,.03,.06,.05,.12,.07,.18Zm-5.08,2.79l.64,1.25,1.87-.96-.65-1.27c-.36-.7-.92-.93-1.51-.63-.57,.29-.74,.87-.36,1.61Zm2.47-1.34l.67,1.31,2.04-1.04-.68-1.33c-.38-.75-.98-1-1.61-.68-.58,.31-.81,1.03-.5,1.61,.02,.05,.05,.09,.08,.13h0Z"/>
    <path id="Tracé_112" data-name="Tracé 112" d="M9.31,41.72l-.11-.9,5.29-2.07-5.65-.89-.11-.94,5.27-2.14-5.62-.75-.11-.91,6.67,1.09,.11,.94-5,2.13,5.38,.92,.12,.93-6.24,2.59Z"/>
    <path id="Tracé_113" data-name="Tracé 113" d="M9.7,27.59l-.32,2.62,2.15,.27,.29-2.35,.69,.09-.29,2.35,2.22,.27,.32-2.62,.69,.09-.43,3.47-6.45-.79,.43-3.47,.69,.08Z"/>
    <path id="Tracé_114" data-name="Tracé 114" d="M16.38,25.01l-.74,2.31-6.18-1.97,.71-2.22c.42-1.3,1.34-1.73,2.2-1.46,.67,.2,1.12,.84,1.08,1.54,.38-.67,1.18-.98,1.92-.74,.95,.36,1.44,1.42,1.08,2.37-.02,.06-.05,.11-.07,.17Zm-5.57-1.6l-.43,1.34,2.01,.64,.43-1.36c.24-.75,0-1.31-.62-1.51-.61-.2-1.14,.1-1.39,.88h0Zm2.69,.79l-.45,1.4,2.18,.7,.46-1.43c.26-.8,0-1.4-.67-1.62-.63-.19-1.3,.16-1.49,.79-.02,.05-.03,.1-.04,.15h0Z"/>
    <path id="Tracé_115" data-name="Tracé 115" d="M12.84,16.5l.55-.71,5.21,2.26-3.39-4.61,.58-.75,5.24,2.19-3.46-4.49,.56-.72,3.97,5.47-.58,.75-5.05-2.02,3.17,4.44-.57,.75-6.24-2.55Z"/>
    <path id="Tracé_116" data-name="Tracé 116" d="M23.08,6.75l-2.08,1.63,1.34,1.71,1.86-1.46,.43,.55-1.86,1.46,1.38,1.76,2.08-1.63,.43,.55-2.75,2.16-4.01-5.11,2.75-2.16,.43,.55Z"/>
    <path id="Tracé_117" data-name="Tracé 117" d="M29.63,9.62l-2.15,1.12-3-5.76,2.06-1.08c1.21-.63,2.17-.29,2.59,.51,.34,.62,.21,1.38-.31,1.85,.74-.21,1.53,.14,1.88,.83,.43,.92,.03,2.02-.89,2.45-.06,.03-.12,.05-.18,.07Zm-2.82-5.06l-1.25,.65,.97,1.87,1.26-.66c.7-.36,.93-.92,.62-1.51-.3-.57-.87-.73-1.61-.35h0Zm1.35,2.45l-1.3,.68,1.06,2.03,1.33-.69c.74-.39,1-.99,.67-1.62-.31-.58-1.04-.8-1.62-.49-.05,.03-.1,.06-.14,.09h0Z"/>
  </g>
  <g>
    <path class="cls-2" d="M132.41,102.82h-5c-1.15,0-1.75-.45-1.75-1.15,0-1.1,1.75-1.8,1.75-4.8v-22.9c0-3-1.75-3.7-1.75-4.8,0-.7,.6-1.15,1.75-1.15,3.45,0,5.75-3.5,7.35-3.5,.7,0,1.15,.6,1.15,1.75v12.85c1.2-1,3-2.1,6-2.1,2.76,0,5.08,.79,6.93,2.1,.02-.37,.05-.74,.05-1.12,0-10.55-7.39-19.24-16.97-20.61,3.77-4,5.86-9.3,5.83-14.8,0-11.5-8.78-20.83-19.62-20.83-5.57,.04-10.85,2.51-14.44,6.76-.02-11.48-8.79-20.78-19.61-20.78s-19.23,8.95-19.58,20.12c-3.58-3.87-8.6-6.08-13.87-6.1-10.83,0-19.62,9.32-19.62,20.83-.03,5.5,2.05,10.8,5.82,14.8-9.58,1.38-16.97,10.07-16.97,20.61s7.62,19.52,17.42,20.69c-2.48,3.61-3.81,7.89-3.79,12.27,0,11.5,8.78,20.83,19.62,20.83,4.39-.01,8.63-1.56,12-4.38,.34,11.19,8.96,20.16,19.59,20.16s19-8.72,19.56-19.68c3.27,2.52,7.27,3.89,11.4,3.9,10.83,0,19.62-9.33,19.62-20.83,0-2.86-.56-5.67-1.64-8.28-.36,.1-.76,.16-1.21,.16Zm-38.2-19.05l-6,15.1,.25,.6c.55,1.3,.3,3.35-2.2,3.35h-3.8c-1.45,0-2-1.25-2.55-2.55l-4.3-10.65-3.7,9.25,.25,.6c.55,1.3,.3,3.35-2.2,3.35h-3.8c-1.45,0-2-1.25-2.55-2.55l-6.7-16.5c-1.25-3.1-3.15-3.7-3.15-4.8,0-.7,.6-1.15,1.75-1.15h8.9c1.15,0,1.75,.45,1.75,1.15,0,1.1-1.6,1.7-.35,4.8l4.4,10.85,3.65-9.25-.65-1.6c-1.25-3.1-3.15-3.7-3.15-4.8,0-.7,.6-1.15,1.75-1.15h8.9c1.15,0,1.75,.45,1.75,1.15,0,1.1-1.6,1.7-.35,4.8l4.4,10.85,4.3-10.85c1.1-2.8-.05-3.7-.05-4.8,0-.7,.6-1.15,1.75-1.15h3.4c1.15,0,1.75,.45,1.75,1.15,0,1.1-2.35,2-3.45,4.8Zm16.5-3.75c-3.4,0-4.65,3.45-4.65,7.85,0,6.35,3.35,10.75,7.95,10.75,1.95,0,3.4-1.1,4.65-2.35,.35-.35,.65-.55,1.05-.55,.5,0,.85,.4,.85,1.2,0,1.95-2.95,6.7-9.85,6.7-7.6,0-12.8-5.95-12.8-13.3s5.2-13.3,12.8-13.3c6.55,0,11.2,4,11.2,8.85,0,6.7-8.65,9.7-12.5,9.7-.6,0-1-.15-1-.55,0-1.5,5.6-3.85,5.6-10.9,0-2.3-1-4.1-3.3-4.1Z"/>
    <path class="cls-2" d="M140.21,80.47c-3,0-4.3,2.85-4.3,5.15v9.35c0,.8,.16,1.64,.49,2.4,3.61-1.5,6.7-4.1,8.9-7.42-.07-5.19-1.53-9.48-5.09-9.48Z"/>
  </g>
  <g id="Groupe_16" data-name="Groupe 16">
    <rect id="Rectangle_79" data-name="Rectangle 79" class="cls-1" x="1.58" y="98.53" width="119.64" height="37" rx="5.16" ry="5.16" transform="translate(-23 15.33) rotate(-12.01)"/>
    <rect id="Rectangle_80" data-name="Rectangle 80" class="cls-4" x="4.96" y="102.04" width="112.64" height="28.86" rx="4.2" ry="4.2" transform="translate(-22.89 15.3) rotate(-12.01)"/>
  </g>
  <g>
    <path class="cls-3" d="M22.27,129.69c-2.13,.44-3.78-.49-4.17-2.1l1.13-.23c.27,.86,1.15,1.79,2.86,1.44,1.47-.3,2.16-1.35,1.94-2.44-.65-3.13-6.08,.05-6.9-3.95-.34-1.64,.77-3.12,2.82-3.55s3.47,.46,3.95,1.88l-1.16,.24c-.28-.72-1.18-1.48-2.66-1.2-1.25,.24-2.14,1.14-1.89,2.37,.63,3.07,6.08-.02,6.9,3.94,.3,1.44-.57,3.15-2.82,3.61Z"/>
    <path class="cls-3" d="M25.48,117.84l1.06-.22,1.38,6.69c.45,2.2,1.8,2.86,3.45,2.52s2.6-1.47,2.14-3.68l-1.38-6.69,1.06-.22,1.38,6.67c.58,2.81-.87,4.41-3.02,4.86s-4.12-.45-4.7-3.26l-1.38-6.67Z"/>
    <path class="cls-3" d="M38.77,115.1c2.46-.51,3.89,.59,4.26,2.34,.3,1.46-.27,2.86-1.99,3.56l3.67,3.95-1.28,.26-3.55-3.9-1.96,.4,.92,4.44-1.06,.22-2.19-10.63,3.19-.66Zm.18,.9l-2.13,.44,.91,4.42,2.14-.44c1.73-.36,2.31-1.46,2.05-2.75s-1.18-2.04-2.98-1.67Z"/>
    <path class="cls-3" d="M49.73,112.83l2.01,9.76,3.82-.79,.18,.87-4.88,1.01-2.19-10.63,1.06-.22Z"/>
    <path class="cls-3" d="M62.9,118.57l-4.84,1-.41,2.72-1.13,.23,1.71-11.29,1.2-.25,6.03,9.7-1.13,.23-1.45-2.33Zm-3.78-6.13l-.91,6.18,4.2-.87-3.28-5.31Z"/>
    <path class="cls-3" d="M68.39,108.99l6.98-1.44,.18,.88-2.95,.61,2.01,9.75-1.06,.22-2.01-9.75-2.96,.61-.18-.88Z"/>
    <path class="cls-3" d="M84.04,116.95c-2.98,.61-5.72-1.15-6.38-4.34s1.16-5.9,4.14-6.51c3-.62,5.72,1.17,6.38,4.34,.66,3.19-1.15,5.9-4.14,6.51Zm-.19-.93c2.36-.49,3.81-2.58,3.24-5.36s-2.73-4.11-5.09-3.63c-2.36,.49-3.81,2.56-3.24,5.34s2.74,4.13,5.09,3.64Z"/>
    <path class="cls-3" d="M89.04,104.73l1.06-.22,2.19,10.63-1.06,.22-2.19-10.63Z"/>
    <path class="cls-3" d="M93.58,103.79l2.01,9.76,3.82-.79,.18,.87-4.88,1.01-2.19-10.63,1.06-.22Z"/>
    <path class="cls-3" d="M104.65,102.42l-4.49,.92,.82,3.97,4.03-.83,.18,.88-4.03,.83,.83,4.03,4.49-.92,.18,.88-5.55,1.14-2.19-10.64,5.55-1.14,.18,.88Z"/>
  </g>
</svg>